<?xml version="1.0" standalone="no"?>
<!DOCTYPE svg PUBLIC "-//W3C//DTD SVG 1.1//EN" "http://www.w3.org/Graphics/SVG/1.1/DTD/svg11.dtd" >
<svg xmlns="http://www.w3.org/2000/svg" xmlns:xlink="http://www.w3.org/1999/xlink" version="1.1">
<metadata></metadata>
<defs>
<font id="noyh_newsregular" horiz-adv-x="483" >
<font-face units-per-em="2048" ascent="1536" descent="-512" />
<missing-glyph horiz-adv-x="407" />
<glyph unicode="&#xfb01;" horiz-adv-x="1161" d="M39 674v135q0 20 20 20h152q0 217 67 312.5t211 95.5q103 0 177 -39q10 -10 10 -16q0 -11 -2 -13l-39 -112q-6 -6 -19 -6q-8 0 -12 2q-32 12 -78 12q-71 0 -94.5 -56t-23.5 -180h591q21 0 21 -20v-789q0 -20 -21 -20h-155q-21 0 -21 20v633h-415v-633q0 -20 -21 -20h-156 q-20 0 -20 20v633h-152q-20 0 -20 21z" />
<glyph unicode="&#xfb02;" horiz-adv-x="1159" d="M41 674v135q0 20 20 20h152q0 217 67 312.5t212 95.5q102 0 176 -39q10 -10 10 -16q0 -11 -2 -13l-39 -112q-6 -6 -19 -6q-8 0 -12 2q-32 12 -78 12q-71 0 -94.5 -56t-23.5 -180h217q20 0 20 -20v-135q0 -21 -20 -21h-217v-633q0 -20 -21 -20h-156q-20 0 -20 20v633h-152 q-20 0 -20 21zM821 20v1139q0 9 6 15t15 6h155q9 0 15 -6t6 -15v-1139q0 -20 -21 -20h-155q-21 0 -21 20z" />
<glyph horiz-adv-x="0" />
<glyph unicode="&#xd;" horiz-adv-x="579" />
<glyph unicode=" "  horiz-adv-x="407" />
<glyph unicode="&#x09;" horiz-adv-x="407" />
<glyph unicode="&#xa0;" horiz-adv-x="407" />
<glyph unicode="!" horiz-adv-x="499" d="M143 96q0 44 31.5 74.5t75.5 30.5t75 -30.5t31 -74.5t-31 -75t-75 -31t-75.5 31t-31.5 75zM152 1143q0 20 20 20h156q20 0 20 -20l-33 -815q0 -21 -20 -21h-96q-9 0 -15 6t-6 15z" />
<glyph unicode="&#x22;" horiz-adv-x="768" d="M143 1143q0 20 21 20h135q20 0 20 -20l-22 -320q0 -20 -21 -20h-90q-20 0 -20 20q-22 295 -23 320zM449 1143q0 20 20 20h135q21 0 21 -20l-23 -320q0 -20 -20 -20h-90q-21 0 -21 20q-18 243 -22 320z" />
<glyph unicode="#" horiz-adv-x="1560" d="M143 285v135q0 20 21 20h215l90 252h-193q-20 0 -20 21v135q0 20 20 20h261l98 273q13 22 29 22h163q21 0 21 -20l-103 -275h324l94 273q13 22 29 22h162q20 0 20 -20l-98 -275h121q20 0 20 -20v-135q0 -21 -20 -21h-189l-94 -252h170q21 0 21 -20v-135q0 -9 -6 -15 t-15 -6h-233q-22 -62 -88 -241q-13 -23 -29 -23h-162q-20 0 -20 20l92 244h-320l-94 -241q-13 -23 -29 -23h-161q-21 0 -21 20l94 244h-149q-9 0 -15 6t-6 15zM588 440h317l96 252h-321z" />
<glyph unicode="$" horiz-adv-x="1110" d="M143 854q0 139 87 223t249 97v151q0 9 6 15t15 6h155q9 0 15 -6t6 -15v-162q108 -20 207 -61q12 -8 12 -19q0 -6 -2 -10l-53 -117q-3 -8 -15 -12q-6 0 -10 2q-156 53 -260 53q-60 0 -103 -14t-64 -31.5t-33 -43t-13.5 -39.5t-1.5 -29q0 -43 27 -76.5t71 -55.5 t100.5 -44.5t115 -42t115 -49.5t100.5 -65.5t71 -92t27 -127.5q0 -105 -86.5 -182.5t-204.5 -106.5v-162q0 -20 -21 -20h-155q-21 0 -21 20v154q-172 10 -307 92q-10 7 -10 18q0 7 2 11l53 106q7 10 16 10q7 0 11 -2q132 -67 317 -67q82 0 145.5 42.5t63.5 102.5 q0 40 -27 71t-71 51t-100.5 41t-115 39.5t-115 49t-100.5 67.5t-71 96.5t-27 133.5z" />
<glyph unicode="%" horiz-adv-x="1794" d="M143 881q0 117 84 199.5t203 82.5q115 0 198 -83t83 -199q0 -117 -83.5 -201t-197.5 -84q-118 0 -202.5 84t-84.5 201zM297 881q0 -62 39 -104t94 -42q51 0 89 42t38 104q0 60 -37.5 96.5t-89.5 36.5q-57 0 -95 -35.5t-38 -97.5zM487 20l607 1121q13 22 28 22h164 q21 0 21 -20l-607 -1120q-13 -23 -28 -23h-164q-21 0 -21 20zM1083 285q0 117 84 199.5t203 82.5q116 0 198.5 -82.5t82.5 -199.5t-83 -201t-198 -84q-118 0 -202.5 84t-84.5 201zM1237 285q0 -63 39 -105.5t94 -42.5q51 0 89 42.5t38 105.5q0 59 -37.5 96t-89.5 37 q-56 0 -94.5 -36t-38.5 -97z" />
<glyph unicode="&#x26;" horiz-adv-x="1339" d="M143 348q0 94 60 176.5t172 130.5q-92 97 -92 248q0 122 98.5 198.5t300.5 76.5q159 0 266 -66q13 -6 13 -18q0 -6 -3 -9l-53 -120q-7 -13 -16 -13q-4 0 -12 4q-76 43 -189 43q-42 0 -76 -7.5t-55 -18t-36.5 -26.5t-23 -29.5t-11.5 -31t-4.5 -26t-0.5 -18.5 q0 -58 62 -123l315 -332l178 197q6 6 15 6t14 -8l74 -74q6 -6 6 -12q0 -9 -8 -17l-179 -205l238 -254q0 -20 -20 -20h-152q-33 0 -53 29l-115 125q-44 -53 -97.5 -89t-102.5 -50.5t-79.5 -19.5t-54.5 -5q-159 0 -269 97.5t-110 260.5zM340 336q0 -46 11.5 -79.5t29.5 -52 t46.5 -28.5t54 -13t61.5 -3q43 0 98 28.5t109 79.5l-244 254q-70 -19 -118 -79t-48 -107z" />
<glyph unicode="'" horiz-adv-x="462" d="M143 1143q0 20 21 20h135q20 0 20 -20l-22 -320q0 -20 -21 -20h-90q-20 0 -20 20q-22 295 -23 320z" />
<glyph unicode="(" horiz-adv-x="702" d="M143 539q0 442 219 903q12 20 21 20h154q9 0 15.5 -6t6.5 -14q-219 -464 -219 -903q0 -435 219 -869q-1 -1 -3 -4.5t-3 -5t-2.5 -4t-3 -3.5t-4 -2t-4.5 -1h-154q-9 0 -16 6t-7 14q-219 428 -219 869z" />
<glyph unicode=")" horiz-adv-x="702" d="M143 -330q219 434 219 869q0 439 -219 903q0 8 7 14t16 6h153q9 0 21 -20q219 -461 219 -903q0 -441 -219 -869q0 -8 -7 -14t-16 -6h-153q-9 0 -21 20z" />
<glyph unicode="*" horiz-adv-x="1089" d="M143 817q0 6 2 8l52 121q6 12 20 12q4 0 8 -2l256 -143l-22 330q0 20 20 20h131q21 0 21 -20l-23 -330l256 143q4 2 8 2q15 0 21 -12l51 -121q2 -2 2 -8q0 -15 -12 -18q-196 -81 -260 -103l143 -202q4 -8 4 -13q0 -9 -10 -16l-113 -68q-8 -4 -12 -4q-9 0 -16 10l-125 240 l-125 -240q-7 -10 -17 -10q-4 0 -12 4l-112 68q-11 7 -11 16q0 5 4 13l144 202q-64 22 -260 103q-13 3 -13 18z" />
<glyph unicode="+" horiz-adv-x="927" d="M143 356v136q0 20 21 20h203v213q0 20 20 20h156q20 0 20 -20v-213h201q20 0 20 -20v-136q0 -20 -20 -20h-201v-211q0 -21 -20 -21h-156q-20 0 -20 21v211h-203q-21 0 -21 20z" />
<glyph unicode="," horiz-adv-x="501" d="M143 78q0 44 32 75t77 31q44 0 75 -31t31 -75q0 -8 -4 -23.5t-6 -17.5l-92 -180q-13 -23 -29 -23h1h-1h-1h-1h-1h-1h-1h-1h-1h-1h-1h-1h-1h-1h-1h-1h-1h-1h-1h-1h-1h-1h-1h-1h-1h-1h-1h-1h-1h-1h-1h-10q-20 0 -20 21l41 127q-66 39 -66 96z" />
<glyph unicode="-" horiz-adv-x="927" d="M143 328v135q0 20 21 20h600q20 0 20 -20v-135q0 -21 -20 -21h-600q-9 0 -15 6t-6 15z" />
<glyph unicode="." horiz-adv-x="499" d="M143 96q0 44 31.5 74.5t75.5 30.5t75 -30.5t31 -74.5t-31 -75t-75 -31t-75.5 31t-31.5 75z" />
<glyph unicode="/" horiz-adv-x="1095" d="M143 -238l596 1584q13 22 29 22h164q20 0 20 -20l-596 -1584q-13 -22 -28 -22h-164q-21 0 -21 20z" />
<glyph unicode="0" horiz-adv-x="1208" d="M92 584q0 166 59 299.5t177 214t276 80.5q159 0 277 -80.5t176.5 -214t58.5 -299.5t-58.5 -299.5t-176.5 -214t-277 -80.5q-158 0 -276 80.5t-177 214t-59 299.5zM289 578q0 -418 313 -418q86 0 149 32t99 90.5t53 131.5t17 164t-17 164.5t-53 132t-99 90.5t-149 32 q-313 0 -313 -419z" />
<glyph unicode="1" horiz-adv-x="770" d="M61 772v137q0 14 21 21q58 16 120.5 38.5t128.5 53.5t104.5 49.5t102.5 52t68 35.5q8 4 12 4q3 0 4.5 -1.5t2 -3t1.5 -5.5t1 -6v-1127q0 -20 -21 -20h-155q-21 0 -21 20v840q-68 -48 -176 -78t-176 -32q-7 0 -12 7t-5 15z" />
<glyph unicode="2" horiz-adv-x="1038" d="M123 20v70q0 61 33 123t85 115.5t115.5 107t127 104.5t115.5 99.5t85 101t33 101.5q0 11 -0.5 19t-5.5 25.5t-14 30.5t-27.5 29.5t-44.5 27t-68 18t-94 7.5q-54 0 -128.5 -19.5t-129.5 -43.5q-11 0 -15 2q-11 3 -16 18q-28 67 -47 105q-4 8 -4 14t12 12q59 34 150 62.5 t184 28.5q214 0 329 -85.5t115 -238.5q0 -70 -20 -130.5t-55 -107.5t-78 -88.5t-94.5 -82t-100 -79t-98 -88.5t-84.5 -102h512q20 0 20 -20v-136q0 -20 -20 -20h-752q-20 0 -20 20z" />
<glyph unicode="3" horiz-adv-x="991" d="M92 1008v135q0 20 21 20h733q6 0 11 -4t5 -10t-2 -8l-227 -461q121 -33 183.5 -112.5t62.5 -184.5q0 -178 -109.5 -285.5t-327.5 -107.5q-82 0 -182 28.5t-156 73.5q-10 8 -10 17q0 4 6 16l60 94q10 10 22 10q9 0 15 -6q142 -63 247 -63q132 0 185 54t53 167 q0 53 -22.5 91t-61.5 58.5t-82 29.5t-92 9q-23 0 -41 -4q-8 0 -8 8l188 414h-450q-9 0 -15 6t-6 15z" />
<glyph unicode="4" horiz-adv-x="1058" d="M102 289v137q0 15 27 47l418 670q9 20 26 20h265q20 0 20 -20v-699h119q20 0 20 -20v-135q0 -21 -20 -21h-119v-248q0 -20 -20 -20h-156q-20 0 -20 20v248h-539q-9 0 -15 6t-6 15zM342 444h320v506z" />
<glyph unicode="5" horiz-adv-x="1005" d="M123 233q0 11 7 18t17 7h146q15 0 31 -25q53 -73 198 -73q96 0 162 47.5t66 146.5q0 102 -59 148.5t-152 46.5q-45 0 -66.5 -1t-53 -8.5t-63.5 -23.5q-2 -1 -11.5 -6.5t-12.5 -5.5q-4 0 -170 12q-21 7 -21 23v604q0 20 21 20h688q20 0 20 -20v-135q0 -21 -20 -21h-512 v-297q65 41 203 41q170 0 287.5 -105t117.5 -270q0 -82 -35 -151.5t-94 -116t-135 -72.5t-158 -26q-148 0 -257 64t-144 179z" />
<glyph unicode="6" horiz-adv-x="1079" d="M102 399q0 91 45 170l314 574q1 1 2 4q12 15 20 16h176q21 0 21 -20l-193 -352h54q115 0 215 -50.5t160.5 -141t60.5 -200.5q0 -131 -62 -225.5t-159.5 -139t-216.5 -44.5q-69 0 -132.5 16t-119 50t-97 81.5t-65 115t-23.5 146.5zM299 389q0 -104 72.5 -166.5 t169.5 -62.5q96 0 167.5 62.5t71.5 166.5q0 101 -71 160t-168 59t-169.5 -59t-72.5 -160z" />
<glyph unicode="7" horiz-adv-x="970" d="M72 1008v135q0 20 20 20h811q17 0 17 -12q0 -9 -5 -14l-475 -1117q-14 -20 -26 -20h-174q-21 0 -21 20l422 967h-549q-20 0 -20 21z" />
<glyph unicode="8" horiz-adv-x="1073" d="M102 338q0 87 44 154t122 108q-127 73 -127 236q0 167 102.5 254.5t293.5 87.5q190 0 293.5 -88t103.5 -254q0 -163 -129 -236q166 -86 166 -262q0 -108 -62.5 -189t-159.5 -120t-210 -39q-115 0 -213 39t-161 120t-63 189zM299 336q0 -52 24 -89t63 -54.5t76 -25 t75 -7.5t74.5 7.5t75.5 25t63 54.5t24 89q0 68 -37.5 114t-89 64t-112.5 18q-43 0 -83 -11t-75.5 -33t-56.5 -61.5t-21 -90.5zM338 834q0 -102 50.5 -137t148.5 -35t149 35t51 137q0 44 -10.5 74.5t-27 47.5t-44.5 26.5t-54 12t-66 2.5q-38 0 -63.5 -2.5t-53 -12 t-43.5 -26.5t-26.5 -47.5t-10.5 -74.5z" />
<glyph unicode="9" horiz-adv-x="1079" d="M102 764q0 131 62.5 227t160.5 141.5t216 45.5q86 0 164 -27t139 -77.5t97 -130.5t36 -179q0 -91 -45 -170l-314 -574q-1 -1 -2 -4q-12 -15 -20 -16h-176q-21 0 -21 20l197 363h-53q-178 0 -309.5 108.5t-131.5 272.5zM299 774q0 -100 70.5 -157.5t167.5 -57.5 q98 0 170.5 57.5t72.5 157.5q0 103 -72 164t-169 61t-168.5 -61t-71.5 -164z" />
<glyph unicode=":" horiz-adv-x="499" d="M143 96q0 44 31.5 74.5t75.5 30.5t75 -30.5t31 -74.5t-31 -75t-75 -31t-75.5 31t-31.5 75zM143 672q0 44 31 74t76 30q44 0 75 -30t31 -74t-31 -75.5t-75 -31.5t-75.5 31.5t-31.5 75.5z" />
<glyph unicode=";" horiz-adv-x="501" d="M143 78q0 44 32 75t77 31q44 0 75 -31t31 -75q0 -8 -4 -23.5t-6 -17.5l-92 -180q-13 -23 -29 -23h1h-1h-1h-1h-1h-1h-1h-1h-1h-1h-1h-1h-1h-1h-1h-1h-1h-1h-1h-1h-1h-1h-1h-1h-1h-1h-1h-1h-1h-1h-1h-10q-20 0 -20 21l41 127q-66 39 -66 96zM145 672q0 44 31 74t76 30 q44 0 75 -30t31 -74t-31 -75.5t-75 -31.5t-75.5 31.5t-31.5 75.5z" />
<glyph unicode="&#x3c;" horiz-adv-x="894" d="M143 309v256q0 13 25 25l559 282q11 0 18 -7t7 -17v-174q0 -13 -22 -23q-2 -1 -3 -2l-428 -211l428 -211q1 -1 5.5 -3t6.5 -3t5 -3t4.5 -4t2.5 -5t1 -6v-174q0 -11 -7 -18t-18 -7l-557 279q-27 9 -27 26z" />
<glyph unicode="=" horiz-adv-x="772" d="M143 176v135q0 9 6 15t15 6h444q9 0 15 -6t6 -15v-135q0 -20 -21 -20h-444q-21 0 -21 20zM143 492v135q0 20 21 20h444q21 0 21 -20v-135q0 -9 -6 -15t-15 -6h-444q-9 0 -15 6t-6 15z" />
<glyph unicode="&#x3e;" horiz-adv-x="894" d="M143 29v174q0 3 1 6t2.5 5t4.5 4t5 3t6.5 3t5.5 3l428 211l-428 211q-1 0 -4 1.5t-4 2.5t-3.5 2t-3.5 2t-3 2.5t-3 3t-2 3.5t-1.5 4t-0.5 4v174q0 10 7 17t18 7l559 -282q25 -12 25 -25v-256q0 -17 -27 -26l-557 -279q-10 0 -17.5 7t-7.5 18z" />
<glyph unicode="?" horiz-adv-x="954" d="M143 1087q5 12 15 19q125 72 295 72q98 0 176.5 -29.5t130 -99t51.5 -170.5q0 -42 -25 -90.5t-61.5 -95.5t-73.5 -95.5t-64 -107t-30 -115.5v-19q0 -20 -20 -20h-158q-21 0 -21 20v31q0 82 26.5 150.5t64 112t75 81t64 76t26.5 78.5q0 51 -47.5 82.5t-120.5 31.5 q-127 0 -215 -45q-8 -4 -12 -4q-17 0 -22 11l-52 114q-2 4 -2 12zM350 96q0 44 31.5 74.5t75.5 30.5t75 -30.5t31 -74.5t-31 -75t-75 -31t-75.5 31t-31.5 75z" />
<glyph unicode="@" horiz-adv-x="1947" d="M143 412q0 69 11.5 138.5t40 144.5t71.5 141.5t110.5 127t151.5 104.5t200.5 69.5t252.5 25.5q188 0 336 -49.5t237.5 -126t147.5 -179t80 -199.5t22 -197q0 -59 -10.5 -117t-36 -116.5t-63.5 -102.5t-98 -71.5t-134 -27.5q-50 0 -84.5 4.5t-89 28t-106.5 68.5 q-30 -31 -63 -50.5t-69 -27t-56.5 -9t-51.5 -1.5q-76 0 -143 21.5t-122 65t-87.5 118.5t-32.5 172q0 176 83.5 275t254.5 99q35 0 58.5 -2.5t56.5 -10.5t64.5 -28t62.5 -51v74q0 20 20 20h156q20 0 20 -20v-567q68 -21 127 -21q24 0 42.5 4.5t39 21.5t33.5 46t22 82.5 t9 126.5q0 49 -6.5 97.5t-25 106.5t-47.5 109t-78.5 99.5t-113.5 83.5t-156.5 56t-203.5 21t-203.5 -21.5t-156.5 -56.5t-114 -84t-79.5 -100.5t-48.5 -110t-26 -107.5t-7 -97q0 -55 3 -100.5t13 -99.5t27 -97.5t46.5 -90t69.5 -82t98 -68t130.5 -53.5t168.5 -33.5 t210 -12.5q147 0 432 90q11 0 18 -7.5t7 -17.5v-123q0 -22 -23 -26q-76 -33 -206 -54.5t-212 -21.5q-112 0 -204 6.5t-196 27.5t-184.5 56t-157.5 96t-126.5 143t-80 201t-30.5 267zM754 356q0 -107 44 -151.5t140 -44.5q97 0 148 46t51 150q0 205 -199 205 q-95 0 -139.5 -48.5t-44.5 -156.5z" />
<glyph unicode="A" horiz-adv-x="1224" d="M41 20l557 1143q12 6 14 6q3 0 15 -6l557 -1143q0 -20 -21 -20h-176q-8 0 -11.5 3.5t-10.5 16.5q-16 35 -56 116.5t-59 123.5h-475q-19 -42 -59 -123.5t-56 -116.5q-10 -17 -15 -19q-3 -1 -7 -1h-177q-20 0 -20 20zM459 432h307l-154 311z" />
<glyph unicode="B" horiz-adv-x="1122" d="M143 20v1123q0 20 21 20h516q140 0 240 -99.5t100 -238.5q0 -131 -109 -247q107 -113 107 -242q0 -138 -100 -237t-238 -99h-516q-21 0 -21 20zM340 172h322q65 0 113 49.5t48 114.5q0 57 -35 103t-88 46h-360v-313zM340 666h324q66 0 112.5 47.5t46.5 111.5 q0 65 -46 112.5t-113 47.5h-324v-319z" />
<glyph unicode="C" horiz-adv-x="1212" d="M92 584q0 161 79.5 298t216.5 216.5t298 79.5q117 0 225 -44t189 -122q4 -8 4 -13q0 -6 -10 -16q-44 -38 -90 -86q-10 -10 -23 -10q-10 0 -16 6q-122 104 -281 104q-172 0 -283.5 -121t-111.5 -298t111.5 -298.5t283.5 -121.5q79 0 173.5 37.5t162.5 109.5q6 6 14 6 q13 0 23 -10q49 -52 73 -72q11 -11 11 -16q0 -4 -4 -12q-80 -99 -198 -155t-253 -56q-161 0 -298 79.5t-216.5 216.5t-79.5 298z" />
<glyph unicode="D" horiz-adv-x="1175" d="M143 20v1123q0 20 21 20h391q161 0 289.5 -77.5t199 -211t70.5 -296.5t-70.5 -294.5t-199 -207.5t-289.5 -76h-391q-21 0 -21 20zM340 172h178q175 0 287.5 112t112.5 287q0 176 -113.5 295t-286.5 119h-178v-813z" />
<glyph unicode="E" horiz-adv-x="1052" d="M143 20v1123q0 20 21 20h756q20 0 20 -20v-135q0 -21 -20 -21h-580v-338h457q20 0 20 -20v-129q0 -21 -20 -21h-457v-303h580q20 0 20 -20v-136q0 -20 -20 -20h-756q-21 0 -21 20z" />
<glyph unicode="F" horiz-adv-x="970" d="M143 20v1123q0 20 21 20h756q20 0 20 -20v-135q0 -21 -20 -21h-580v-338h461q20 0 20 -20v-129q0 -21 -20 -21h-461v-459q0 -20 -21 -20h-155q-21 0 -21 20z" />
<glyph unicode="G" horiz-adv-x="1294" d="M92 584q0 161 80 298t217.5 216.5t298.5 79.5q117 0 225 -44t189 -122q4 -8 4 -13q0 -6 -10 -16q-44 -38 -90 -86q-10 -10 -23 -10q-10 0 -16 6q-122 104 -281 104q-174 0 -284.5 -120.5t-110.5 -298.5t110.5 -298t284.5 -120q156 0 277 98v182h-222q-20 0 -20 21v131 q0 20 20 20h400q20 0 20 -20v-572q0 -20 -20 -20h-56q-5 0 -9.5 3t-10 10t-8.5 10l-49 59q-156 -92 -320 -92q-161 0 -298.5 79.5t-217.5 216.5t-80 298z" />
<glyph unicode="H" horiz-adv-x="1196" d="M143 20v1123q0 20 21 20h155q21 0 21 -20v-494h516v494q0 20 21 20h155q21 0 21 -20v-1123q0 -20 -21 -20h-155q-21 0 -21 20v459h-516v-459q0 -20 -21 -20h-155q-21 0 -21 20z" />
<glyph unicode="I" d="M143 20v1123q0 20 21 20h155q21 0 21 -20v-1123q0 -20 -21 -20h-155q-21 0 -21 20z" />
<glyph unicode="J" horiz-adv-x="942" d="M33 113q0 8 8 16l70 92q9 15 22 15q2 0 12 -5q57 -44 107 -57.5t131 -13.5q97 0 147 32.5t71.5 114t21.5 242.5v594q0 20 20 20h156q20 0 20 -20v-621q0 -154 -22.5 -254.5t-75.5 -163.5t-134.5 -88.5t-205.5 -25.5q-209 0 -342 110q-6 12 -6 13z" />
<glyph unicode="K" horiz-adv-x="1202" d="M143 20v1123q0 20 21 20h155q21 0 21 -20v-514l471 520q12 14 35 14h207q22 0 22 -18l-362 -395l448 -730q0 -20 -20 -20h-172q-23 0 -35 14l-361 584l-233 -254v-324q0 -20 -21 -20h-155q-21 0 -21 20z" />
<glyph unicode="L" horiz-adv-x="1030" d="M143 20v1123q0 20 21 20h155q21 0 21 -20v-967h580q20 0 20 -20v-136q0 -20 -20 -20h-756q-21 0 -21 20z" />
<glyph unicode="M" horiz-adv-x="1400" d="M143 20v1141q5 8 13 8q6 0 14 -8l512 -549q12 -12 18 -12q7 0 19 12l512 549q8 8 14 8q7 0 12 -8v-1141q0 -20 -20 -20h-156q-20 0 -20 20v644l-340 -338q-12 -15 -21 -15q-8 0 -20 15l-340 338v-644q0 -20 -21 -20h-155q-21 0 -21 20z" />
<glyph unicode="N" horiz-adv-x="1282" d="M143 20v1141q0 8 11 8q8 0 16 -8l772 -522v504q0 20 21 20h155q21 0 21 -20v-1123q0 -20 -21 -20h-155q-21 0 -21 20v388l-602 391v-779q0 -20 -21 -20h-155q-21 0 -21 20z" />
<glyph unicode="O" horiz-adv-x="1372" d="M92 584q0 161 79.5 298t216.5 216.5t298 79.5t298 -79.5t216.5 -216.5t79.5 -298t-79.5 -298t-216.5 -216.5t-298 -79.5t-298 79.5t-216.5 216.5t-79.5 298zM289 578q0 -177 111 -297.5t284 -120.5t286 120.5t113 297.5t-113 298t-286 121q-172 0 -283.5 -121 t-111.5 -298z" />
<glyph unicode="P" horiz-adv-x="1052" d="M143 20v1123q0 20 21 20h508q143 0 241.5 -107.5t98.5 -275.5t-98.5 -272.5t-241.5 -104.5h-332v-383q0 -20 -21 -20h-155q-21 0 -21 20zM340 584h311q70 0 117 50t47 144q0 96 -46.5 145.5t-117.5 49.5h-311v-389z" />
<glyph unicode="Q" horiz-adv-x="1372" d="M92 584q0 161 79.5 298t216.5 216.5t298 79.5t298 -79.5t216.5 -216.5t79.5 -298q0 -228 -151 -396.5t-375 -193.5q-6 -18 -6 -35q0 -92 77 -92q36 0 54 2q6 0 11.5 -2t8 -4.5t2.5 -3.5q31 -94 31 -95q0 -14 -8 -18q-44 -25 -121 -25q-106 0 -168 66.5t-62 204.5v8 q-207 40 -344 204.5t-137 379.5zM289 578q0 -177 111 -297.5t284 -120.5t286 120.5t113 297.5t-113 298t-286 121q-172 0 -283.5 -121t-111.5 -298z" />
<glyph unicode="R" horiz-adv-x="1112" d="M143 20v1123q0 20 21 20h526q142 0 241 -102.5t99 -257.5q0 -114 -63.5 -206.5t-165.5 -137.5l223 -439q0 -20 -20 -20h-177q-22 0 -34 14l-218 428h-235v-422q0 -20 -21 -20h-155q-21 0 -21 20zM340 621h334q68 0 112.5 49.5t44.5 130.5q0 82 -45 133t-112 51h-334v-364 z" />
<glyph unicode="S" horiz-adv-x="1021" d="M113 854q0 153 105 238.5t300 85.5q157 0 334 -76q12 -8 12 -19q0 -6 -2 -10l-53 -117q-3 -8 -14 -12q-7 0 -11 2q-156 53 -260 53q-60 0 -103 -14t-64 -31.5t-33 -43t-13.5 -39.5t-1.5 -29q0 -43 27 -76.5t71 -55.5t100.5 -44.5t115 -42t115 -49.5t100.5 -65.5t71 -92 t27 -127.5q0 -66 -37 -124t-95 -95t-125 -58.5t-130 -21.5q-125 0 -219.5 18.5t-188.5 75.5q-10 7 -10 18q0 7 2 11l53 106q7 10 17 10q6 0 10 -2q132 -67 317 -67q82 0 145.5 42.5t63.5 102.5q0 36 -21.5 64.5t-57.5 48t-83 37t-99 35.5t-104 38t-99 49t-83 65.5 t-57.5 90.5t-21.5 121z" />
<glyph unicode="T" horiz-adv-x="954" d="M61 1008v135q0 20 21 20h790q21 0 21 -20v-135q0 -9 -6 -15t-15 -6h-297v-967q0 -20 -20 -20h-156q-20 0 -20 20v967h-297q-9 0 -15 6t-6 15z" />
<glyph unicode="U" horiz-adv-x="1261" d="M143 512v631q0 20 21 20h155q21 0 21 -20v-631q0 -181 67.5 -266.5t223.5 -85.5t223.5 85.5t67.5 266.5v631q0 20 20 20h156q20 0 20 -20v-631q0 -246 -124 -384t-361 -138q-240 0 -365 138t-125 384z" />
<glyph unicode="V" horiz-adv-x="1224" d="M41 1143q0 20 20 20h177q8 0 11.5 -3.5t10.5 -16.5q15 -33 42 -87.5t111.5 -227.5t198.5 -408l353 723q1 1 2 4q12 15 20 16h176q21 0 21 -20l-557 -1143q-12 -6 -15 -6q-2 0 -14 6z" />
<glyph unicode="W" horiz-adv-x="1560" d="M41 1143q0 20 20 20h164q12 0 23 -20l223 -680l289 631q11 14 20 14q10 0 21 -14l289 -635l223 684q10 17 15 19q3 1 7 1h164q21 0 21 -20q-49 -146 -178 -537.5t-201 -603.5q-12 -6 -15 -6q-2 0 -14 6l-313 621q-12 12 -19 12q-6 0 -18 -12l-313 -621q-12 -6 -15 -6 q-2 0 -14 6q-72 212 -201 603.5t-178 537.5z" />
<glyph unicode="X" horiz-adv-x="1110" d="M41 20l395 564l-395 559q0 20 20 20h193q13 0 27 -20l274 -387l274 387q14 20 27 20h193q20 0 20 -20l-395 -559l395 -564q0 -20 -20 -20h-193q-13 0 -27 20l-274 390l-274 -390q-14 -20 -27 -20h-193q-20 0 -20 20z" />
<glyph unicode="Y" horiz-adv-x="1146" d="M41 1143q0 20 20 20h189q8 0 11.5 -3.5t10.5 -16.5l301 -496l301 496q11 20 23 20h188q21 0 21 -20l-434 -709v-414q0 -20 -21 -20h-155q-21 0 -21 20v414z" />
<glyph unicode="Z" horiz-adv-x="978" d="M61 1008v135q0 20 21 20h809q6 0 11 -4t5 -10t-2 -8l-532 -965h524q21 0 21 -20v-136q0 -20 -21 -20h-815q-6 0 -11 4t-5 10q0 7 2 9l534 964h-520q-9 0 -15 6t-6 15z" />
<glyph unicode="[" horiz-adv-x="675" d="M143 -330v1772q0 20 21 20h348q20 0 20 -20v-135q0 -21 -20 -21h-172v-1460h172q20 0 20 -21v-135q0 -20 -20 -20h-348q-21 0 -21 20z" />
<glyph unicode="\" horiz-adv-x="1095" d="M143 1348q0 20 21 20h164q15 0 28 -22l596 -1584q0 -20 -20 -20h-164q-16 0 -29 22z" />
<glyph unicode="]" horiz-adv-x="675" d="M143 -195q0 9 6 15t15 6h172v1460h-172q-9 0 -15 6t-6 15v135q0 20 21 20h348q20 0 20 -20v-1772q0 -20 -20 -20h-348q-21 0 -21 20v135z" />
<glyph unicode="^" horiz-adv-x="860" d="M143 809q30 59 88 171.5t88 172.5q7 10 19 10h184q12 0 19 -10q30 -60 88 -172.5t88 -171.5q0 -21 -19 -21h-163q-15 0 -23 21l-82 207l-82 -207q-8 -21 -22 -21h-164q-19 0 -19 21z" />
<glyph unicode="_" horiz-adv-x="927" d="M143 -31q0 9 6 15t15 6h600q20 0 20 -21v-135q0 -20 -20 -20h-600q-21 0 -21 20v135z" />
<glyph unicode="`" horiz-adv-x="624" d="M143 1143q0 20 21 20h182q17 0 23 -20l112 -312q-6 -22 -22 -22h-97q-13 0 -24 18q-60 102 -195 316z" />
<glyph unicode="a" horiz-adv-x="913" d="M82 252q0 126 77.5 195t205.5 69q62 0 126 -17.5t93 -49.5q0 113 -54.5 156.5t-167.5 43.5q-49 0 -145 -22l-16 -4q-13 0 -19 16l-43 90q-6 12 -6 25t10 18q51 26 99.5 39t77 15.5t71.5 2.5q186 0 287.5 -97.5t101.5 -270.5v-441q0 -20 -20 -20h-107q-19 0 -28 20l-9 80 q-17 -31 -48 -54t-59 -33t-63 -16t-48.5 -6.5t-28.5 -0.5q-32 0 -64 4.5t-74.5 21.5t-73.5 44t-53 76.5t-22 115.5zM279 262q0 -59 34 -80.5t115 -21.5q15 0 37.5 3.5t59 18.5t59.5 39v66q-20 34 -74.5 53.5t-103.5 19.5q-71 0 -99 -25t-28 -73z" />
<glyph unicode="b" horiz-adv-x="1050" d="M143 20v1123q0 20 21 20h155q21 0 21 -20v-424q81 110 252 110q165 0 276 -121.5t111 -293.5q0 -175 -108 -299.5t-267 -124.5q-205 0 -285 119l-12 -89q-9 -20 -28 -20h-115q-21 0 -21 20zM340 412q0 -107 65.5 -179.5t157.5 -72.5q90 0 152.5 73.5t62.5 178.5 t-61.5 172t-153.5 67t-157.5 -67t-65.5 -172z" />
<glyph unicode="c" horiz-adv-x="843" d="M72 414q0 112 57.5 207.5t156 151.5t214.5 56q75 0 147.5 -26.5t128.5 -73.5q6 -6 6 -14q0 -7 -6 -19q-36 -56 -74 -96q-10 -10 -22 -10q-10 0 -16 6q-31 22 -80 36.5t-86 14.5q-95 0 -161.5 -64.5t-66.5 -170.5q0 -107 67 -179.5t161 -72.5q116 0 178 39q6 6 14 6 q13 0 23 -10l59 -95q6 -12 6 -16q0 -10 -8 -16q-112 -78 -270 -78q-116 0 -214.5 57.5t-156 155t-57.5 211.5z" />
<glyph unicode="d" horiz-adv-x="1050" d="M72 414q0 172 111 293.5t276 121.5q171 0 252 -110v424q0 20 20 20h156q20 0 20 -20v-1123q0 -20 -20 -20h-115q-20 0 -29 20l-12 89q-80 -119 -285 -119q-159 0 -266.5 124.5t-107.5 299.5zM272 412q0 -105 62.5 -178.5t152.5 -73.5q92 0 158 72.5t66 179.5 q0 105 -66 172t-158 67t-153.5 -67t-61.5 -172z" />
<glyph unicode="e" horiz-adv-x="933" d="M72 403q0 87 23.5 162.5t70 135t124 94t177.5 34.5q174 0 284.5 -105t110.5 -296v-80q0 -20 -20 -20h-568q0 -47 24.5 -82.5t63 -52.5t73 -25t65.5 -8q51 0 108 12.5t94 38.5q6 6 15 6q12 0 22 -10l60 -94q6 -12 6 -17q0 -10 -8 -16q-85 -90 -295 -90q-91 0 -167.5 24.5 t-136 73t-93 129.5t-33.5 186zM274 492h396q0 78 -58.5 116.5t-140.5 38.5q-78 0 -137.5 -40.5t-59.5 -114.5z" />
<glyph unicode="f" horiz-adv-x="698" d="M41 674v135q0 20 20 20h152v43q0 217 67 312.5t212 95.5q102 0 176 -39q10 -10 10 -16q0 -11 -2 -13l-39 -112q-6 -6 -19 -6q-8 0 -12 2q-32 12 -78 12q-71 0 -94.5 -56t-23.5 -180v-43h217q20 0 20 -20v-135q0 -21 -20 -21h-217v-633q0 -20 -21 -20h-156q-20 0 -20 20 v633h-152q-20 0 -20 21z" />
<glyph unicode="g" horiz-adv-x="1050" d="M72 414q0 172 111 293.5t276 121.5q22 0 48.5 -3.5t68 -14t82 -37t69.5 -65.5l18 90q3 20 21 20h121q20 0 20 -20v-793q0 -105 -34.5 -187t-92 -129.5t-124.5 -71.5t-138 -24q-119 0 -193 18t-137 71q-8 8 -8 18q0 4 4 12l54 103q8 8 18 8q4 0 12 -4q93 -53 228 -53 q62 0 103.5 14t64 42.5t32.5 62t13 83.5v111q-83 -90 -263 -90q-159 0 -266.5 124.5t-107.5 299.5zM272 412q0 -105 62.5 -178.5t152.5 -73.5q92 0 158 72.5t66 179.5q0 105 -66 172t-158 67t-153.5 -67t-61.5 -172z" />
<glyph unicode="h" horiz-adv-x="1030" d="M143 20v1123q0 20 21 20h155q21 0 21 -20v-400q91 86 225 86q90 0 157.5 -29t107 -80.5t58.5 -115t19 -139.5v-445q0 -20 -20 -20h-156q-20 0 -20 20v414q0 51 -6 84.5t-24.5 66.5t-59 49.5t-103.5 16.5q-88 0 -133 -61.5t-45 -155.5v-414q0 -20 -21 -20h-155 q-21 0 -21 20z" />
<glyph unicode="i" d="M125 1026q0 49 36 86t83 37q51 0 87 -36.5t36 -86.5q0 -49 -36 -84t-87 -35q-48 0 -83.5 35t-35.5 84zM143 20v779q0 20 21 20h155q21 0 21 -20v-779q0 -20 -21 -20h-155q-21 0 -21 20z" />
<glyph unicode="j" d="M-117 -342q0 8 2 10l39 109q10 10 19 10q8 0 12 -2q56 -18 98 -18q55 0 72.5 41t17.5 176v815q0 20 21 20h155q21 0 21 -20v-836q0 -111 -16.5 -184.5t-52.5 -113.5t-82.5 -55.5t-114.5 -15.5q-101 0 -180 46q-11 4 -11 18zM125 1026q0 49 36 86t83 37q51 0 87 -36.5 t36 -86.5q0 -49 -36 -84t-87 -35q-48 0 -83.5 35t-35.5 84z" />
<glyph unicode="k" horiz-adv-x="946" d="M143 20v1123q0 20 21 20h155q21 0 21 -20v-654l303 310q14 20 27 20h215q20 0 20 -20l-370 -387l366 -392q0 -20 -20 -20h-213q-13 0 -27 16l-301 314v-310q0 -20 -21 -20h-155q-21 0 -21 20z" />
<glyph unicode="l" d="M143 20v1123q0 20 21 20h155q21 0 21 -20v-1123q0 -20 -21 -20h-155q-21 0 -21 20z" />
<glyph unicode="m" horiz-adv-x="1394" d="M143 20v779q0 20 21 20h121q17 0 20 -20l17 -76q91 106 221 106q60 0 118.5 -35t96.5 -94q49 76 112 102.5t138 26.5q120 0 192 -98.5t72 -245.5v-465q0 -20 -21 -20h-155q-21 0 -21 20v445q0 184 -123 184q-55 0 -97 -36t-48 -91q2 -20 2 -59v-443q0 -20 -21 -20h-155 q-21 0 -21 20v412q0 96 -30 156.5t-95 60.5q-71 0 -109 -61.5t-38 -155.5v-412q0 -20 -21 -20h-155q-21 0 -21 20z" />
<glyph unicode="n" horiz-adv-x="1030" d="M143 20v779q0 20 21 20h112q18 0 21 -20l18 -80q92 110 250 110q90 0 157.5 -29t107 -80.5t58.5 -115t19 -139.5v-445q0 -20 -20 -20h-156q-20 0 -20 20v414q0 51 -6 84.5t-24.5 66.5t-59 49.5t-103.5 16.5q-88 0 -133 -61.5t-45 -155.5v-414q0 -20 -21 -20h-155 q-21 0 -21 20z" />
<glyph unicode="o" horiz-adv-x="991" d="M72 414q0 170 124.5 292.5t299.5 122.5t299.5 -122.5t124.5 -292.5q0 -174 -125 -299t-299 -125t-299 125t-125 299zM268 412q0 -107 66.5 -179.5t159.5 -72.5q96 0 162.5 72t66.5 180q0 106 -65.5 171.5t-163.5 65.5q-95 0 -160.5 -65.5t-65.5 -171.5z" />
<glyph unicode="p" horiz-adv-x="1071" d="M143 -330v1129q0 20 21 20h141q18 0 21 -20l20 -90q88 120 266 120q165 0 276 -121.5t111 -293.5q0 -175 -107.5 -299.5t-266.5 -124.5q-205 0 -285 119v-439q0 -20 -21 -20h-155q-21 0 -21 20zM360 412q0 -107 66 -179.5t158 -72.5q90 0 152.5 73.5t62.5 178.5 t-61.5 172t-153.5 67t-158 -67t-66 -172z" />
<glyph unicode="q" horiz-adv-x="1071" d="M72 414q0 172 111 293.5t276 121.5q178 0 266 -120l20 90q3 20 21 20h141q21 0 21 -20v-1129q0 -20 -21 -20h-155q-21 0 -21 20v439q-80 -119 -285 -119q-159 0 -266.5 124.5t-107.5 299.5zM272 412q0 -105 62.5 -178.5t152.5 -73.5q92 0 158 72.5t66 179.5 q0 105 -66 172t-158 67t-153.5 -67t-61.5 -172z" />
<glyph unicode="r" horiz-adv-x="638" d="M143 20v779q0 20 21 20h121q17 0 20 -20l17 -70q90 100 229 100h47q20 0 20 -20v-137q0 -21 -20 -21h-51q-207 0 -207 -217v-414q0 -20 -21 -20h-155q-21 0 -21 20z" />
<glyph unicode="s" horiz-adv-x="811" d="M92 78q0 1 1 3t1 3l31 102q9 13 27 13q127 -52 239 -52q26 0 54 5.5t54.5 23.5t26.5 45q0 30 -24 51t-62 34.5t-84 26t-92 31.5t-84 46t-62 74t-24 110q0 115 90 175t234 60q113 0 229 -41q15 -8 15 -26l-33 -115q-2 -5 -9 -10.5t-14 -5.5q-96 26 -198 26 q-71 0 -93 -17.5t-22 -53.5q0 -26 32 -47t80.5 -34.5t104.5 -35.5t104.5 -47.5t80.5 -72t32 -107.5q0 -69 -29.5 -120t-79 -78.5t-106 -40.5t-119.5 -13q-170 0 -287 67q-5 2 -9.5 8.5t-4.5 12.5z" />
<glyph unicode="t" horiz-adv-x="714" d="M51 672v137q0 20 21 20h151v314q0 20 21 20h155q21 0 21 -20v-314h190q21 0 21 -20v-137q0 -9 -6 -15t-15 -6h-190v-270q0 -139 17.5 -179t86.5 -40q36 0 54 2q4 2 14 2q16 0 20 -14l27 -119q2 -2 2 -13q0 -5 -4 -10.5t-6 -5.5q-47 -14 -139 -14q-137 0 -203 76t-66 268 v317h-151q-9 0 -15 6t-6 15z" />
<glyph unicode="u" horiz-adv-x="1030" d="M123 354v445q0 20 20 20h156q20 0 20 -20v-422q0 -51 6 -84.5t24.5 -66.5t59 -49.5t103.5 -16.5q88 0 133 61.5t45 155.5v422q0 20 21 20h155q21 0 21 -20v-779q0 -20 -21 -20h-112q-18 0 -21 20l-18 80q-92 -110 -250 -110q-90 0 -157.5 29t-107 80.5t-58.5 115 t-19 139.5z" />
<glyph unicode="v" horiz-adv-x="868" d="M31 799q0 20 20 20h176q12 0 23 -20l184 -398l184 398q11 20 23 20h176q21 0 21 -20l-387 -803q-12 -6 -17 -6q-4 0 -16 6z" />
<glyph unicode="w" horiz-adv-x="1273" d="M51 799q0 20 21 20h164q8 0 11.5 -3.5t10.5 -16.5l139 -385l215 405q6 10 25 10t25 -10l215 -405l139 385q10 17 15 19q3 1 7 1h164q21 0 21 -20l-293 -795q-1 -1 -4.5 -3t-6 -3.5t-4.5 -1.5q-5 0 -14 6l-246 461q-12 12 -18 12q-7 0 -19 -12l-245 -461q-9 -6 -15 -6 q-2 0 -7.5 4t-6.5 4z" />
<glyph unicode="x" horiz-adv-x="884" d="M57 799q0 20 21 20h182q12 0 23 -20l159 -277l160 277q11 20 23 20h182q20 0 20 -20l-235 -404l233 -375q0 -20 -20 -20h-182q-16 0 -29 23l-152 237l-151 -237q-13 -23 -29 -23h-182q-21 0 -21 20l234 375z" />
<glyph unicode="y" horiz-adv-x="897" d="M61 799q0 20 21 20h176q12 0 23 -20l184 -393l182 393q11 20 23 20h176q20 0 20 -20l-540 -1129q-11 -20 -23 -20h-176q-21 0 -21 20l248 520q-51 108 -153 318.5t-140 290.5z" />
<glyph unicode="z" horiz-adv-x="847" d="M82 14q0 7 2 9l352 616h-332q-20 0 -20 20v140q0 20 20 20h633q6 0 11.5 -4t5.5 -10t-2 -8l-355 -623h348q21 0 21 -20v-134q0 -20 -21 -20h-647q-6 0 -11 4t-5 10z" />
<glyph unicode="{" horiz-adv-x="849" d="M143 487v138q0 20 21 20q60 8 101.5 54t41.5 106v328q0 98 17 165t52.5 105t82.5 54t114 16h113q9 0 15 -6t6 -15v-135q0 -9 -6 -15t-15 -6h-80q-67 0 -84.5 -39t-17.5 -176v-276q0 -132 -109 -248q109 -119 109 -250v-287q0 -136 17 -172t85 -36h80q9 0 15 -6t6 -15 v-135q0 -9 -6 -15t-15 -6h-113q-67 0 -114 16t-82.5 54t-52.5 105t-17 165v332q0 59 -41.5 106t-101.5 54q-21 0 -21 20z" />
<glyph unicode="|" d="M143 -330v1772q0 20 21 20h155q21 0 21 -20v-1772q0 -20 -21 -20h-155q-21 0 -21 20z" />
<glyph unicode="}" horiz-adv-x="849" d="M143 -209q0 9 6 15t15 6h80q68 0 85 36t17 172v287q0 131 109 250q-109 116 -109 248v276q0 137 -17.5 176t-84.5 39h-80q-9 0 -15 6t-6 15v135q0 9 6 15t15 6h112q90 0 146 -29t88.5 -105t32.5 -206v-328q0 -60 41.5 -106t101.5 -54q21 0 21 -20v-138q0 -20 -21 -20 q-60 -7 -101.5 -54t-41.5 -106v-332q0 -130 -32.5 -206t-88.5 -105t-146 -29h-112q-9 0 -15 6t-6 15v135z" />
<glyph unicode="~" horiz-adv-x="901" d="M143 401q0 15 15 23q85 72 172 72q45 0 78.5 -11t49.5 -24t41.5 -24t57.5 -11q64 0 115 39q4 2 10 2q12 0 20 -12l54 -115q0 -1 1 -3t1 -3q0 -16 -15 -23q-91 -78 -188 -78q-45 0 -116 35t-109 35q-57 0 -101 -33q-4 -2 -10 -2q-11 0 -20 13l-54 114q0 1 -1 3t-1 3z" />
<glyph unicode="&#xa1;" horiz-adv-x="499" d="M143 1057q0 44 31.5 75t75.5 31t75 -31t31 -75t-31 -74.5t-75 -30.5t-75.5 30.5t-31.5 74.5zM152 10l26 815q0 9 6 15t15 6h96q20 0 20 -21l33 -815q0 -20 -20 -20h-156q-20 0 -20 20z" />
<glyph unicode="&#xa2;" horiz-adv-x="1335" d="M143 588q0 212 133 374t336 205v162q0 9 6 15t15 6h155q9 0 15 -6t6 -15v-151q198 -24 342 -162q4 -8 4 -12q0 -7 -10 -17q-44 -38 -90 -86q-10 -10 -23 -10q-10 0 -16 6q-122 104 -281 104q-172 0 -283.5 -121t-111.5 -298t111.5 -298.5t283.5 -121.5q79 0 173.5 37.5 t162.5 109.5q6 6 14 6q13 0 23 -10q45 -47 74 -72q10 -10 10 -16q0 -4 -4 -12q-144 -179 -379 -207v-156q0 -20 -21 -20h-155q-21 0 -21 20v164q-203 43 -336 206.5t-133 375.5z" />
<glyph unicode="&#xa3;" horiz-adv-x="1259" d="M143 471v135q0 9 6 15t15 6h155v151q0 168 123 284t297 116q79 0 163 -28.5t138 -76.5q0 -1 3.5 -5.5t3.5 -6.5q0 -6 -11 -17l-94 -96q-7 -10 -24 -10q-5 0 -13 8q-25 25 -74 38t-94 13q-94 0 -157.5 -62.5t-63.5 -168.5v-139h248q20 0 20 -21v-135q0 -20 -20 -20h-248 v-275h580q20 0 20 -20v-136q0 -20 -20 -20h-922q-20 0 -20 20v142q0 16 16 16q58 4 100.5 46.5t48.5 101.5v125h-155q-21 0 -21 20z" />
<glyph unicode="&#xa4;" horiz-adv-x="1040" d="M143 215q0 7 7 14l108 101q-29 69 -29 131q0 57 29 129l-108 100q-7 7 -7 15q0 4 4 12l62 69q7 7 14 7q8 0 13 -5l106 -98q80 60 178 60t178 -60l107 98q5 5 12 5t14 -7l62 -69q4 -8 4 -12q0 -9 -6 -15l-109 -100q29 -72 29 -129q0 -62 -29 -131l109 -101q6 -6 6 -14 q0 -4 -4 -12l-62 -70q-6 -6 -14 -6q-4 0 -12 4l-107 98q-83 -55 -174 -55h-8q-91 0 -174 55l-106 -98q-8 -4 -13 -4q-8 0 -14 6l-62 70q-4 8 -4 12zM373 461q0 -60 43 -102t102 -42q62 0 106 42t44 102t-44 101.5t-106 41.5q-59 0 -102 -42t-43 -101z" />
<glyph unicode="&#xa5;" horiz-adv-x="1351" d="M143 1143q0 20 21 20h188q12 0 23 -20l301 -496l301 496q1 1 2 4q12 15 20 16h189q20 0 20 -20l-309 -506h100q9 0 15 -6t6 -15v-135q0 -20 -21 -20h-208l-17 -27v-84h225q21 0 21 -20v-135q0 -9 -6 -15t-15 -6h-225v-154q0 -20 -20 -20h-156q-20 0 -20 20v154h-226 q-20 0 -20 21v135q0 20 20 20h226v84l-17 27h-209q-20 0 -20 20v135q0 21 20 21h103z" />
<glyph unicode="&#xa6;" d="M143 242q0 20 21 20h155q21 0 21 -20v-572q0 -20 -21 -20h-155q-21 0 -21 20v572zM143 870v572q0 20 21 20h155q21 0 21 -20v-572q0 -20 -21 -20h-155q-21 0 -21 20z" />
<glyph unicode="&#xa7;" horiz-adv-x="1144" d="M143 8q0 1 1 3t1 3l31 103q8 12 27 12q125 -51 239 -51q26 0 54 5.5t55 23.5t27 45q0 30 -24 51t-62 34t-84 26t-92.5 32t-84.5 45.5t-62 73.5t-24 110q0 95 63.5 153.5t170.5 74.5q-10 42 -10 79q0 115 90 175.5t233 60.5q114 0 230 -41q14 -7 14 -27l-33 -114 q-2 -5 -8.5 -11t-13.5 -6q-100 27 -199 27q-71 0 -93 -18t-22 -54q0 -26 32 -47t80.5 -34.5t104.5 -35.5t104.5 -47.5t80.5 -72t32 -107.5q0 -199 -233 -243q10 -30 10 -64q0 -69 -29.5 -120t-79 -78.5t-106 -40.5t-119.5 -13q-167 0 -286 68q-5 2 -10 8t-5 12zM344 516 q0 -33 67 -65t141.5 -49t113.5 -17q26 0 54 5.5t54.5 23.5t26.5 45q0 26 -21.5 46t-47 30.5t-75.5 25.5q-100 27 -198 27q-71 0 -93 -18t-22 -54z" />
<glyph unicode="&#xa8;" horiz-adv-x="811" d="M143 1059q0 44 31 74t76 30q44 0 75 -30t31 -74t-31 -75.5t-75 -31.5t-75.5 31.5t-31.5 75.5zM455 1059q0 44 31 74t75 30q45 0 76 -30t31 -74t-31.5 -75.5t-75.5 -31.5t-75 31.5t-31 75.5z" />
<glyph unicode="&#xa9;" horiz-adv-x="1460" d="M143 575q0 160 78.5 295.5t213.5 214t294 78.5q160 0 295.5 -78.5t214 -214t78.5 -295.5q0 -159 -78.5 -294t-214 -213t-295.5 -78q-159 0 -294 78t-213.5 213t-78.5 294zM254 575q0 -92 39.5 -179.5t104 -152t152 -104t179.5 -39.5q93 0 181 39.5t152.5 104t104 152 t39.5 179.5q0 124 -66 234.5t-176.5 177t-234.5 66.5q-123 0 -233 -66.5t-176 -177t-66 -234.5zM401 578q0 136 99.5 231.5t238.5 95.5q67 0 136 -24.5t110 -65.5q6 -6 6 -18q0 -7 -6 -13l-92 -90q-2 -4 -12 -4q-13 0 -23 10q-19 16 -54.5 25.5t-66.5 9.5q-65 0 -109 -43 t-44 -117q0 -71 44.5 -120t108.5 -49q32 0 67 9.5t54 26.5q15 11 23 11t12 -4l92 -82q6 -6 6 -15t-6 -18q-42 -40 -111 -65t-135 -25q-138 0 -238 99.5t-100 234.5z" />
<glyph unicode="&#xaa;" horiz-adv-x="798" d="M143 735q0 96 58 144.5t157 48.5q93 0 140 -33q0 60 -27.5 85.5t-93.5 25.5q-87 0 -135 -17q0 -2 -6 -2q-10 0 -15 12l-39 82q-4 16 -4 17q0 8 4 14q65 35 101 43t102 8q144 0 207 -70.5t63 -205.5v-322q0 -18 -18 -18h-78q-18 0 -24 18l-9 47q-46 -73 -166 -73 q-24 0 -48 3t-56.5 15.5t-56 32.5t-40 57.5t-16.5 87.5zM299 748q0 -68 104 -68q9 0 23 2t36.5 10.5t35.5 22.5v47q-23 39 -90 39q-109 0 -109 -53z" />
<glyph unicode="&#xab;" horiz-adv-x="1181" d="M143 414l160 379q13 22 29 22h182q21 0 21 -20l-175 -387l175 -388q0 -20 -21 -20h-182q-16 0 -29 23l-158 376q-2 4 -2 15zM647 414l160 379q13 22 29 22h182q20 0 20 -20l-174 -387l174 -388q0 -20 -20 -20h-182q-16 0 -29 23l-158 376q-2 4 -2 15z" />
<glyph unicode="&#xac;" horiz-adv-x="927" d="M143 328v135q0 20 21 20h600q20 0 20 -20v-352q0 -21 -20 -21h-156q-20 0 -20 21v196h-424q-9 0 -15 6t-6 15z" />
<glyph unicode="&#xad;" horiz-adv-x="405" />
<glyph unicode="&#xae;" horiz-adv-x="1460" d="M143 575q0 160 78.5 295.5t213.5 214t294 78.5q160 0 295.5 -78.5t214 -214t78.5 -295.5q0 -159 -78.5 -294t-214 -213t-295.5 -78q-159 0 -294 78t-213.5 213t-78.5 294zM254 575q0 -92 39.5 -179.5t104 -152t152 -104t179.5 -39.5q93 0 181 39.5t152.5 104t104 152 t39.5 179.5q0 124 -66 234.5t-176.5 177t-234.5 66.5q-123 0 -233 -66.5t-176 -177t-66 -234.5zM477 256v643q0 14 15 14h229q274 0 274 -243q0 -68 -34 -122t-89 -79l127 -213q0 -14 -14 -14h-145q-16 0 -19 14l-98 197h-64v-197q0 -14 -14 -14h-153q-15 0 -15 14zM659 621 h78q37 0 56.5 11.5t19.5 47.5t-20 49.5t-56 13.5h-78v-122z" />
<glyph unicode="&#xaf;" horiz-adv-x="927" d="M143 1008v135q0 20 21 20h600q20 0 20 -20v-135q0 -21 -20 -21h-600q-9 0 -15 6t-6 15z" />
<glyph unicode="&#xb0;" horiz-adv-x="854" d="M143 881q0 117 84 199.5t203 82.5q115 0 198 -83t83 -199q0 -117 -83.5 -201t-197.5 -84q-118 0 -202.5 84t-84.5 201zM311 881q0 -56 35.5 -93.5t83.5 -37.5q46 0 80.5 37.5t34.5 93.5q0 54 -34 86t-81 32q-50 0 -84.5 -31.5t-34.5 -86.5z" />
<glyph unicode="&#xb1;" horiz-adv-x="927" d="M143 20v136q0 20 21 20h600q20 0 20 -20v-136q0 -20 -20 -20h-600q-21 0 -21 20zM143 532v136q0 20 21 20h203v213q0 21 20 21h156q20 0 20 -21v-213h201q20 0 20 -20v-136q0 -20 -20 -20h-201v-211q0 -20 -20 -20h-156q-20 0 -20 20v211h-203q-21 0 -21 20z" />
<glyph unicode="&#xb2;" horiz-adv-x="720" d="M143 561v49q0 48 27.5 96t66.5 84.5t77.5 67.5t66 55.5t27.5 38.5q0 35 -84 35q-59 0 -127 -33q-2 -2 -9 -2q-8 0 -12 11l-31 133q0 5 1 8.5t2 4.5t3 2.5t3 2.5q27 17 83 33t107 16q231 0 231 -209q0 -32 -11 -59t-43 -61t-61.5 -59.5t-94.5 -78.5h198q15 0 15 -14v-121 q0 -5 -4.5 -8.5t-10.5 -3.5h-407q-5 0 -9 4t-4 8z" />
<glyph unicode="&#xb3;" horiz-adv-x="712" d="M143 606q0 3 4 15l41 106q2 2 9 2q90 -39 139 -39q44 0 60 18t16 60q0 24 -11.5 39t-35 20.5t-39.5 7t-45 1.5q-27 0 -41 -2q-7 0 -7 6l93 161h-170q-5 0 -9 4.5t-4 10.5v135q0 4 4 8t9 4h397q12 0 12 -10q0 -4 -2 -6l-102 -205q56 -16 82 -70t26 -120q0 -97 -58.5 -155 t-176.5 -58q-47 0 -103.5 17t-85.5 44q-2 2 -2 6z" />
<glyph unicode="&#xb4;" horiz-adv-x="612" d="M143 907l113 234l3 4q3 4 5.5 8t7 7t7.5 3h167q9 0 16 -6t7 -16l-156 -234q-13 -22 -34 -22h-113q-9 0 -16 6.5t-7 15.5z" />
<glyph unicode="&#xb5;" horiz-adv-x="1030" d="M123 -330v1129q0 20 20 20h156q20 0 20 -20v-449q0 -43 7.5 -74.5t27.5 -59t59.5 -42t98.5 -14.5q88 0 133 61.5t45 155.5v422q0 20 21 20h155q21 0 21 -20v-779q0 -20 -21 -20h-112q-18 0 -21 20l-18 80q-51 -61 -103 -85.5t-116 -24.5q-113 0 -177 82v-402 q0 -20 -20 -20h-156q-20 0 -20 20z" />
<glyph unicode="&#xb6;" horiz-adv-x="1277" d="M143 737q0 159 109 279t268 147h594q21 0 21 -20v-1473q0 -20 -21 -20h-156q-20 0 -20 20v1256h-209v-1256q0 -20 -20 -20h-156q-21 0 -21 20v641q-167 25 -278 145.5t-111 280.5z" />
<glyph unicode="&#xb7;" horiz-adv-x="522" d="M143 391q0 49 34.5 84t82.5 35q51 0 85 -34.5t34 -84.5q0 -48 -34.5 -82.5t-84.5 -34.5q-47 0 -82 35t-35 82z" />
<glyph unicode="&#xb8;" horiz-adv-x="641" d="M143 -287q0 4 2 6l35 62q8 4 13 4q4 0 12 -4q14 -9 54 -20t71 -11q47 0 47 29q0 8 -7 16.5t-21.5 17.5t-28 16t-34 17t-32.5 17l-27 12l15 117h125l-9 -66q72 -43 106 -78t34 -79q0 -61 -54.5 -90t-124.5 -29q-97 0 -169 51q0 1 -3.5 5.5t-3.5 6.5z" />
<glyph unicode="&#xb9;" horiz-adv-x="604" d="M143 920v106q0 4 4 8t9 4q58 13 124.5 44.5t111 56t57.5 24.5q12 0 12 -10v-608q0 -5 -4 -10t-8 -5h-134q-12 0 -12 15v399q-75 -37 -149 -37q-11 0 -11 13z" />
<glyph unicode="&#xba;" horiz-adv-x="854" d="M143 881q0 117 84 199.5t203 82.5q115 0 198 -83t83 -199q0 -117 -83.5 -201t-197.5 -84q-118 0 -202.5 84t-84.5 201zM311 881q0 -56 35.5 -93.5t83.5 -37.5q46 0 80.5 37.5t34.5 93.5q0 54 -34 86t-81 32q-50 0 -84.5 -31.5t-34.5 -86.5z" />
<glyph unicode="&#xbb;" horiz-adv-x="1181" d="M143 20l174 388l-174 387q0 20 21 20h182q16 0 29 -22l160 -379q0 -9 -3 -15l-157 -376q-13 -23 -29 -23h-182q-21 0 -21 20zM647 20l174 388l-174 387q0 20 21 20h182q16 0 29 -22l159 -379q0 -11 -2 -15l-157 -376q-13 -23 -29 -23h-182q-21 0 -21 20z" />
<glyph unicode="&#xbc;" horiz-adv-x="1427" d="M143 920v106q0 4 4 8t9 4q58 13 124.5 44.5t111 56t57.5 24.5q12 0 12 -10v-608q0 -5 -4 -10t-8 -5h-134q-12 0 -12 15v399q-75 -37 -149 -37q-11 0 -11 13zM393 20q70 190 212 560.5t212 560.5q13 22 29 22h129q20 0 20 -20l-424 -1120q-13 -23 -28 -23h-129 q-21 0 -21 20zM797 113q0 -13 12 -13h272v-88q0 -12 15 -12h131q12 0 12 12v88h33q12 0 12 13v125q0 12 -12 12h-33v354q-3 10 -12 10h-185q-4 0 -12 -10l-219 -332q-4 -6 -9 -20.5t-5 -20.5v-118zM983 250l98 141v-141h-98z" />
<glyph unicode="&#xbd;" horiz-adv-x="1452" d="M143 920v106q0 4 4 8t9 4q58 13 124.5 44.5t111 56t57.5 24.5q12 0 12 -10v-608q0 -5 -4 -10t-8 -5h-134q-12 0 -12 15v399q-75 -37 -149 -37q-11 0 -11 13zM393 20q70 190 212 560.5t212 560.5q13 22 29 22h129q20 0 20 -20l-424 -1120q-13 -23 -28 -23h-129 q-21 0 -21 20zM874 12q0 -4 4 -8t9 -4h407q6 0 10.5 3.5t4.5 8.5v121q0 14 -15 14h-198q123 100 167 150t44 109q0 208 -232 208q-51 0 -107 -16t-83 -33q-8 -8 -8 -18l30 -133q4 -11 13 -11q5 0 8 3q66 32 127 32q84 0 84 -35q0 -14 -27.5 -38.5t-66.5 -55.5t-77.5 -67.5 t-66 -84.5t-27.5 -96v-49z" />
<glyph unicode="&#xbe;" horiz-adv-x="1476" d="M143 606q0 3 4 15l41 106q2 2 9 2q90 -39 139 -39q44 0 60 18t16 60q0 24 -11.5 39t-35 20.5t-39.5 7t-45 1.5q-27 0 -41 -2q-7 0 -7 6l93 161h-170q-5 0 -9 4.5t-4 10.5v135q0 4 4 8t9 4h397q12 0 12 -10q0 -4 -2 -6l-102 -205q56 -16 82 -70t26 -120q0 -97 -58.5 -155 t-176.5 -58q-47 0 -103.5 17t-85.5 44q-2 2 -2 6zM430 20q70 190 211.5 560.5t212.5 560.5q13 22 29 22h129q20 0 20 -20l-424 -1120q-13 -23 -28 -23h-129q-21 0 -21 20zM846 113q0 -13 12 -13h272v-88q0 -12 15 -12h131q12 0 12 12v88h33q12 0 12 13v125q0 12 -12 12h-33 v354q-3 10 -12 10h-184q-6 0 -13 -10l-219 -332q-4 -6 -9 -20.5t-5 -20.5v-118zM1032 250l98 141v-141h-98z" />
<glyph unicode="&#xbf;" horiz-adv-x="954" d="M143 289q0 42 25 90.5t61.5 95.5t73.5 95.5t64 107t30 115.5v18q0 20 21 20h157q21 0 21 -20v-31q0 -82 -26.5 -150t-64 -112t-75 -81t-64 -75.5t-26.5 -78.5q0 -51 47.5 -83t120.5 -32q127 0 215 45q8 4 12 4q18 0 23 -10l51 -115q2 -4 2 -12q-5 -13 -14 -19 q-124 -71 -295 -71q-73 0 -136 17.5t-113.5 52.5t-80 94t-29.5 135zM391 1071q0 44 31.5 75.5t75.5 31.5t75 -31.5t31 -75.5t-31 -74t-75 -30q-45 0 -76 30t-31 74z" />
<glyph unicode="&#xc0;" horiz-adv-x="1224" d="M41 20l557 1143q12 6 14 6q3 0 15 -6l557 -1143q0 -20 -21 -20h-176q-8 0 -11.5 3.5t-10.5 16.5q-16 35 -56 116.5t-59 123.5h-475q-19 -42 -59 -123.5t-56 -116.5q-10 -17 -15 -19q-3 -1 -7 -1h-177q-20 0 -20 20zM352 1565q0 10 7 16t16 6h168q4 0 9 -5t9 -11l4 -6 l113 -234q0 -9 -7 -15.5t-16 -6.5h-112q-22 0 -35 22zM459 432h307l-154 311z" />
<glyph unicode="&#xc1;" horiz-adv-x="1224" d="M41 20l557 1143q12 6 14 6q3 0 15 -6l557 -1143q0 -20 -21 -20h-176q-8 0 -11.5 3.5t-10.5 16.5q-16 35 -56 116.5t-59 123.5h-475q-19 -42 -59 -123.5t-56 -116.5q-10 -17 -15 -19q-3 -1 -7 -1h-177q-20 0 -20 20zM459 432h307l-154 311zM524 1331l113 234l4 6q4 6 9 11 t9 5h168q9 0 16 -6t7 -16l-156 -234q-13 -22 -35 -22h-112q-9 0 -16 6.5t-7 15.5z" />
<glyph unicode="&#xc2;" horiz-adv-x="1224" d="M41 20l557 1143q12 6 14 6q3 0 15 -6l557 -1143q0 -20 -21 -20h-176q-8 0 -11.5 3.5t-10.5 16.5q-16 35 -56 116.5t-59 123.5h-475q-19 -42 -59 -123.5t-56 -116.5q-10 -17 -15 -19q-3 -1 -7 -1h-177q-20 0 -20 20zM356 1372q0 6 6 12l203 175q1 0 6.5 4t11 7t9.5 3h41 q4 0 9 -3t10.5 -6.5t6.5 -4.5l203 -175q6 -6 6 -12t-10 -16l-61 -68q-6 -6 -15 -6q-6 0 -14 4l-156 129l-155 -129q-8 -4 -15 -4q-8 0 -14 6l-61 68q-11 11 -11 16zM459 432h307l-154 311z" />
<glyph unicode="&#xc3;" horiz-adv-x="1224" d="M41 20l557 1143q12 6 14 6q3 0 15 -6l557 -1143q0 -20 -21 -20h-176q-8 0 -11.5 3.5t-10.5 16.5q-16 35 -56 116.5t-59 123.5h-475q-19 -42 -59 -123.5t-56 -116.5q-10 -17 -15 -19q-3 -1 -7 -1h-177q-20 0 -20 20zM305 1477q0 15 14 22q85 72 173 72q45 0 78.5 -11 t49.5 -24t41.5 -24t57.5 -11q64 0 115 39q4 2 10 2q12 0 20 -12l54 -115q0 -1 1 -3t1 -3q0 -15 -15 -23q-90 -77 -188 -77q-45 0 -116 34.5t-109 34.5q-59 0 -101 -32q-6 -3 -10 -3q-12 0 -21 13l-53 114q0 1 -1 3.5t-1 3.5zM459 432h307l-154 311z" />
<glyph unicode="&#xc4;" horiz-adv-x="1224" d="M41 20l557 1143q12 6 14 6q3 0 15 -6l557 -1143q0 -20 -21 -20h-176q-8 0 -11.5 3.5t-10.5 16.5q-16 35 -56 116.5t-59 123.5h-475q-19 -42 -59 -123.5t-56 -116.5q-10 -17 -15 -19q-3 -1 -7 -1h-177q-20 0 -20 20zM350 1415q0 44 31.5 74.5t75.5 30.5t75 -30.5t31 -74.5 t-31 -75t-75 -31t-75.5 31t-31.5 75zM459 432h307l-154 311zM662 1415q0 44 31 74.5t75 30.5t75 -30.5t31 -74.5t-31 -75t-75 -31t-75 31t-31 75z" />
<glyph unicode="&#xc5;" horiz-adv-x="1224" d="M41 20l557 1143q12 6 14 6q3 0 15 -6l557 -1143q0 -20 -21 -20h-176q-8 0 -11.5 3.5t-10.5 16.5q-16 35 -56 116.5t-59 123.5h-475q-19 -42 -59 -123.5t-56 -116.5q-10 -17 -15 -19q-3 -1 -7 -1h-177q-20 0 -20 20zM393 1526q0 90 64.5 154.5t154.5 64.5q89 0 153 -64 t64 -155q0 -88 -64 -152.5t-153 -64.5t-154 64.5t-65 152.5zM459 432h307l-154 311zM532 1526q0 -36 24.5 -62t55.5 -26q30 0 54 26t24 62q0 37 -23.5 59.5t-54.5 22.5q-33 0 -56.5 -22t-23.5 -60z" />
<glyph unicode="&#xc6;" horiz-adv-x="1832" d="M31 20q118 151 421.5 541t460.5 588q14 14 31 14h756q20 0 20 -20v-135q0 -21 -20 -21h-580v-338h457q20 0 20 -20v-129q0 -21 -20 -21h-457v-303h580q20 0 20 -20v-136q0 -20 -20 -20h-746q-20 0 -20 20v279h-442l-218 -279q-14 -20 -26 -20h-197q-20 0 -20 20zM627 471 h307v397z" />
<glyph unicode="&#xc7;" horiz-adv-x="1212" d="M92 584q0 161 79.5 298t216.5 216.5t298 79.5q117 0 225 -44t189 -122q4 -8 4 -13q0 -6 -10 -16q-44 -38 -90 -86q-10 -10 -23 -10q-10 0 -16 6q-122 104 -281 104q-172 0 -283.5 -121t-111.5 -298t111.5 -298.5t283.5 -121.5q79 0 173.5 37.5t162.5 109.5q6 6 14 6 q13 0 23 -10q49 -52 73 -72q11 -11 11 -16q0 -4 -4 -12q-74 -92 -180.5 -147t-229.5 -62l-8 -66q71 -42 105 -77.5t34 -79.5q0 -61 -54 -90t-124 -29q-98 0 -170 51l-6 12q0 4 2 6l35 62q8 4 12 4t12 -4q14 -9 54 -20t71 -11q47 0 47 29q0 8 -7 16.5t-21.5 17.5t-28 16 t-34 17t-32.5 17l-26 12l14 121q-218 31 -364 198t-146 390z" />
<glyph unicode="&#xc8;" horiz-adv-x="1052" d="M143 20v1123q0 20 21 20h756q20 0 20 -20v-135q0 -21 -20 -21h-580v-338h457q20 0 20 -20v-129q0 -21 -20 -21h-457v-303h580q20 0 20 -20v-136q0 -20 -20 -20h-756q-21 0 -21 20zM289 1565q0 22 22 22h168q3 0 7.5 -3t7 -7t5.5 -8l3 -4l112 -234q0 -9 -6.5 -15.5 t-15.5 -6.5h-113q-22 0 -35 22z" />
<glyph unicode="&#xc9;" horiz-adv-x="1052" d="M143 20v1123q0 20 21 20h756q20 0 20 -20v-135q0 -21 -20 -21h-580v-338h457q20 0 20 -20v-129q0 -21 -20 -21h-457v-303h580q20 0 20 -20v-136q0 -20 -20 -20h-756q-21 0 -21 20zM430 1331l113 234l4 6q4 6 9 11t9 5h168q9 0 16 -6t7 -16l-156 -234q-13 -22 -35 -22 h-112q-9 0 -16 6.5t-7 15.5z" />
<glyph unicode="&#xca;" horiz-adv-x="1052" d="M143 20v1123q0 20 21 20h756q20 0 20 -20v-135q0 -21 -20 -21h-580v-338h457q20 0 20 -20v-129q0 -21 -20 -21h-457v-303h580q20 0 20 -20v-136q0 -20 -20 -20h-756q-21 0 -21 20zM276 1372q0 5 7 12l202 175q1 0 6.5 4t11 7t9.5 3h41q4 0 9.5 -3t11 -7t6.5 -4l202 -175 q6 -6 6 -12t-10 -16l-61 -68q-6 -6 -15 -6q-6 0 -14 4l-156 129l-155 -129q-8 -4 -15 -4q-8 0 -14 6l-61 68q-11 11 -11 16z" />
<glyph unicode="&#xcb;" horiz-adv-x="1052" d="M143 20v1123q0 20 21 20h756q20 0 20 -20v-135q0 -21 -20 -21h-580v-338h457q20 0 20 -20v-129q0 -21 -20 -21h-457v-303h580q20 0 20 -20v-136q0 -20 -20 -20h-756q-21 0 -21 20zM268 1415q0 44 31.5 74.5t75.5 30.5t75 -30.5t31 -74.5t-31 -75t-75 -31t-75.5 31 t-31.5 75zM580 1415q0 44 31 74.5t75 30.5t75.5 -30.5t31.5 -74.5t-31.5 -75t-75.5 -31t-75 31t-31 75z" />
<glyph unicode="&#xcc;" d="M-10 1565q0 22 22 22h168q3 0 7.5 -3t7 -7t5.5 -8l3 -4l112 -234q0 -9 -6.5 -15.5t-15.5 -6.5h-113q-22 0 -35 22zM143 20v1123q0 20 21 20h155q21 0 21 -20v-1123q0 -20 -21 -20h-155q-21 0 -21 20z" />
<glyph unicode="&#xcd;" d="M143 20v1123q0 20 21 20h155q21 0 21 -20v-1123q0 -20 -21 -20h-155q-21 0 -21 20zM168 1331l113 234l4 6q4 6 9 11t9 5h168q9 0 16 -6t7 -16l-156 -234q-13 -22 -35 -22h-113q-9 0 -15.5 6.5t-6.5 15.5z" />
<glyph unicode="&#xce;" d="M-14 1372q0 6 6 12l203 175q1 1 6.5 4.5t10.5 6.5t9 3h41q4 0 9.5 -3t11 -7t6.5 -4l203 -175q6 -6 6 -12q0 -5 -11 -16l-61 -68q-6 -6 -14 -6q-7 0 -15 4l-155 129l-156 -129q-8 -4 -14 -4q-9 0 -15 6l-61 68q-10 10 -10 16zM143 20v1123q0 20 21 20h155q21 0 21 -20 v-1123q0 -20 -21 -20h-155q-21 0 -21 20z" />
<glyph unicode="&#xcf;" d="M-4 1415q0 44 31 74.5t75 30.5t75.5 -30.5t31.5 -74.5t-31.5 -75t-75.5 -31t-75 31t-31 75zM143 20v1123q0 20 21 20h155q21 0 21 -20v-1123q0 -20 -21 -20h-155q-21 0 -21 20zM274 1415q0 44 31.5 74.5t75.5 30.5t75 -30.5t31 -74.5t-31 -75t-75 -31t-75.5 31t-31.5 75z " />
<glyph unicode="&#xd0;" horiz-adv-x="1243" d="M31 500v135q0 20 20 20h160v488q0 20 20 20h392q161 0 289.5 -77.5t199 -211t70.5 -296.5t-70.5 -294.5t-199 -207.5t-289.5 -76h-392q-20 0 -20 20v459h-160q-20 0 -20 21zM408 172h178q175 0 287 112t112 287q0 176 -113 295t-286 119h-178v-330h243q21 0 21 -20v-135 q0 -9 -6 -15t-15 -6h-243v-307z" />
<glyph unicode="&#xd1;" horiz-adv-x="1282" d="M143 20v1141q0 8 9 8q4 0 10 -6l780 -524v504q0 20 21 20h155q21 0 21 -20v-1123q0 -20 -21 -20h-155q-21 0 -21 20v388l-602 391v-779q0 -20 -21 -20h-155q-21 0 -21 20zM305 1477q0 15 14 22q85 72 173 72q45 0 78.5 -11t49.5 -24t41.5 -24t57.5 -11q64 0 115 39 q4 2 10 2q12 0 20 -12l54 -115q0 -1 1 -3t1 -3q0 -15 -15 -23q-90 -77 -188 -77q-45 0 -116 34.5t-109 34.5q-59 0 -101 -32q-6 -3 -10 -3q-12 0 -21 13l-53 114q0 1 -1 3.5t-1 3.5z" />
<glyph unicode="&#xd2;" horiz-adv-x="1372" d="M92 584q0 161 79.5 298t216.5 216.5t298 79.5t298 -79.5t216.5 -216.5t79.5 -298t-79.5 -298t-216.5 -216.5t-298 -79.5t-298 79.5t-216.5 216.5t-79.5 298zM289 578q0 -177 111 -297.5t284 -120.5t286 120.5t113 297.5t-113 298t-286 121q-172 0 -283.5 -121 t-111.5 -298zM434 1565q0 10 7 16t16 6h168q4 0 9 -5t9 -11l4 -6l113 -234q0 -9 -7 -15.5t-16 -6.5h-112q-22 0 -35 22z" />
<glyph unicode="&#xd3;" horiz-adv-x="1372" d="M92 584q0 161 79.5 298t216.5 216.5t298 79.5t298 -79.5t216.5 -216.5t79.5 -298t-79.5 -298t-216.5 -216.5t-298 -79.5t-298 79.5t-216.5 216.5t-79.5 298zM289 578q0 -177 113 -297.5t286 -120.5t284 120.5t111 297.5t-111.5 298t-283.5 121q-173 0 -286 -121 t-113 -298zM612 1331l113 234l3 4q3 4 5.5 8t7 7t7.5 3h167q9 0 16 -6t7 -16l-156 -234q-13 -22 -34 -22h-113q-9 0 -16 6.5t-7 15.5z" />
<glyph unicode="&#xd4;" horiz-adv-x="1372" d="M92 584q0 161 79.5 298t216.5 216.5t298 79.5t298 -79.5t216.5 -216.5t79.5 -298t-79.5 -298t-216.5 -216.5t-298 -79.5t-298 79.5t-216.5 216.5t-79.5 298zM289 578q0 -177 111 -297.5t284 -120.5t286 120.5t113 297.5t-113 298t-286 121q-172 0 -283.5 -121 t-111.5 -298zM430 1372q0 6 6 12l203 175q1 0 6.5 4t11 7t9.5 3h41q4 0 9 -3t10.5 -6.5t6.5 -4.5l203 -175q6 -6 6 -12t-10 -16l-62 -68q-6 -6 -14 -6q-6 0 -14 4l-156 129l-156 -129q-8 -4 -14 -4q-8 0 -14 6l-62 68q-10 10 -10 16z" />
<glyph unicode="&#xd5;" horiz-adv-x="1372" d="M92 584q0 161 79.5 298t216.5 216.5t298 79.5t298 -79.5t216.5 -216.5t79.5 -298t-79.5 -298t-216.5 -216.5t-298 -79.5t-298 79.5t-216.5 216.5t-79.5 298zM289 578q0 -177 111 -297.5t284 -120.5t286 120.5t113 297.5t-113 298t-286 121q-172 0 -283.5 -121 t-111.5 -298zM377 1477q0 15 14 22q85 72 172 72q45 0 78.5 -11t50 -24t42 -24t57.5 -11q63 0 114 39q4 2 10 2q13 0 21 -12l53 -115q0 -1 1 -3t1 -3q0 -16 -14 -23q-90 -77 -189 -77q-45 0 -116 34.5t-109 34.5q-58 0 -100 -32q-6 -3 -10 -3q-12 0 -21 13l-53 114 q0 1 -1 3.5t-1 3.5z" />
<glyph unicode="&#xd6;" horiz-adv-x="1372" d="M92 584q0 161 79.5 298t216.5 216.5t298 79.5t298 -79.5t216.5 -216.5t79.5 -298t-79.5 -298t-216.5 -216.5t-298 -79.5t-298 79.5t-216.5 216.5t-79.5 298zM289 578q0 -177 111 -297.5t284 -120.5t286 120.5t113 297.5t-113 298t-286 121q-172 0 -283.5 -121 t-111.5 -298zM422 1415q0 44 31 74.5t75 30.5t75.5 -30.5t31.5 -74.5t-31.5 -75t-75.5 -31t-75 31t-31 75zM733 1415q0 44 31.5 74.5t75.5 30.5t75 -30.5t31 -74.5t-31 -75t-75 -31t-75.5 31t-31.5 75z" />
<glyph unicode="&#xd7;" horiz-adv-x="868" d="M143 240q0 7 9 16l159 158l-159 159q-9 9 -9 17q0 4 9 18l88 88q14 9 18 9q7 0 16 -9l160 -159l160 159q9 9 16 9q6 0 19 -9l88 -88q8 -12 8 -18q0 -9 -8 -17l-160 -159l160 -158q8 -8 8 -16q0 -7 -8 -19l-90 -90q-12 -8 -19 -8q-8 0 -16 8l-158 158l-158 -158 q-8 -8 -16 -8q-6 0 -18 8l-90 90q-9 13 -9 19z" />
<glyph unicode="&#xd8;" horiz-adv-x="1372" d="M92 584q0 161 79.5 298t216.5 216.5t298 79.5q52 0 133 -15l41 113q13 22 29 22h121q20 0 20 -20q-8 -31 -61 -172q141 -76 226 -216t85 -306q0 -161 -79.5 -298t-216.5 -216.5t-298 -79.5q-73 0 -133 14l-43 -115q-13 -22 -29 -22h-121q-20 0 -20 20l66 172 q-142 76 -228 217t-86 308zM289 578q0 -113 47 -206t131 -149l287 768q-34 6 -70 6q-172 0 -283.5 -121t-111.5 -298zM614 166q35 -6 70 -6q173 0 286 120.5t113 297.5q0 111 -48 204.5t-132 151.5z" />
<glyph unicode="&#xd9;" horiz-adv-x="1261" d="M143 512v631q0 20 21 20h155q21 0 21 -20v-631q0 -181 67.5 -266.5t223.5 -85.5t223.5 85.5t67.5 266.5v631q0 20 20 20h156q20 0 20 -20v-631q0 -246 -124 -384t-361 -138q-240 0 -365 138t-125 384zM377 1565q0 22 22 22h168q3 0 7.5 -3t7 -7t5.5 -8l3 -4l112 -234 q0 -9 -6.5 -15.5t-15.5 -6.5h-113q-22 0 -35 22z" />
<glyph unicode="&#xda;" horiz-adv-x="1261" d="M143 512v631q0 20 21 20h155q21 0 21 -20v-631q0 -181 67.5 -266.5t223.5 -85.5t223.5 85.5t67.5 266.5v631q0 20 20 20h156q20 0 20 -20v-631q0 -246 -124 -384t-361 -138q-240 0 -365 138t-125 384zM545 1331l112 234l3 4q3 4 5.5 8t7 7t7.5 3h168q22 0 22 -22 l-155 -234q-13 -22 -35 -22h-113q-9 0 -15.5 6.5t-6.5 15.5z" />
<glyph unicode="&#xdb;" horiz-adv-x="1261" d="M143 512v631q0 20 21 20h155q21 0 21 -20v-631q0 -181 67.5 -266.5t223.5 -85.5t223.5 85.5t67.5 266.5v631q0 20 20 20h156q20 0 20 -20v-631q0 -246 -124 -384t-361 -138q-240 0 -365 138t-125 384zM377 1372q0 6 6 12l203 175q1 1 6.5 4.5t10.5 6.5t9 3h41q4 0 9.5 -3 t11 -7t6.5 -4l203 -175q6 -6 6 -12t-10 -16l-62 -68q-6 -6 -14 -6q-7 0 -15 4l-155 129l-156 -129q-8 -4 -14 -4q-8 0 -14 6l-62 68q-10 10 -10 16z" />
<glyph unicode="&#xdc;" horiz-adv-x="1261" d="M143 512v631q0 20 21 20h155q21 0 21 -20v-631q0 -181 67.5 -266.5t223.5 -85.5t223.5 85.5t67.5 266.5v631q0 20 20 20h156q20 0 20 -20v-631q0 -246 -124 -384t-361 -138q-240 0 -365 138t-125 384zM369 1415q0 44 31 74.5t75 30.5t75.5 -30.5t31.5 -74.5t-31.5 -75 t-75.5 -31t-75 31t-31 75zM680 1415q0 44 31 74.5t75 30.5t75.5 -30.5t31.5 -74.5t-31.5 -75t-75.5 -31t-75 31t-31 75z" />
<glyph unicode="&#xdd;" horiz-adv-x="1146" d="M41 1143q0 20 20 20h189q8 0 11.5 -3.5t10.5 -16.5l301 -496l301 496q11 20 23 20h188q21 0 21 -20l-434 -709v-414q0 -20 -21 -20h-155q-21 0 -21 20v414zM502 1331l112 234l3 4q3 4 5.5 8t7 7t7.5 3h168q22 0 22 -22l-155 -234q-13 -22 -35 -22h-113q-9 0 -15.5 6.5 t-6.5 15.5z" />
<glyph unicode="&#xde;" horiz-adv-x="1052" d="M143 20v1123q0 20 21 20h155q21 0 21 -20v-162h332q143 0 241.5 -107.5t98.5 -275.5t-98.5 -272.5t-241.5 -104.5h-332v-201q0 -20 -21 -20h-155q-21 0 -21 20zM340 401h311q70 0 117 50.5t47 144.5q0 96 -46.5 145.5t-117.5 49.5h-311v-390z" />
<glyph unicode="&#xdf;" horiz-adv-x="1128" d="M143 20v801q0 141 101 241.5t243 100.5h195q141 0 242.5 -100.5t101.5 -241.5q0 -134 -111 -252q56 -59 83.5 -112t27.5 -117q0 -139 -102 -239.5t-242 -100.5h-135q-21 0 -21 20v134q0 20 21 20h117q66 0 115.5 50.5t49.5 115.5q0 57 -35.5 99.5t-91.5 45.5h-149 q-9 0 -15 6t-6 15v133q0 20 21 20h113q67 0 115 48.5t48 113.5t-48 113.5t-115 48.5h-166q-67 0 -113.5 -48.5t-46.5 -113.5v-801q0 -20 -21 -20h-155q-21 0 -21 20z" />
<glyph unicode="&#xe0;" horiz-adv-x="913" d="M82 252q0 126 77.5 195t205.5 69q62 0 126 -17.5t93 -49.5q0 113 -54.5 156.5t-167.5 43.5q-49 0 -145 -22l-16 -4q-13 0 -19 16l-43 90q-6 12 -6 25t10 18q51 26 99.5 39t77 15.5t71.5 2.5q186 0 287.5 -97.5t101.5 -270.5v-441q0 -20 -20 -20h-107q-19 0 -28 20l-9 80 q-17 -31 -48 -54t-59 -33t-63 -16t-48.5 -6.5t-28.5 -0.5q-32 0 -64 4.5t-74.5 21.5t-73.5 44t-53 76.5t-22 115.5zM229 1231q0 10 7 16t16 6h168q4 0 9 -5t9 -11l4 -6l113 -234q0 -9 -7 -15.5t-16 -6.5h-112q-22 0 -35 22zM279 262q0 -59 34 -80.5t115 -21.5q15 0 37.5 3.5 t59 18.5t59.5 39v66q-20 34 -74.5 53.5t-103.5 19.5q-71 0 -99 -25t-28 -73z" />
<glyph unicode="&#xe1;" horiz-adv-x="913" d="M82 252q0 126 77.5 195t205.5 69q62 0 126 -17.5t93 -49.5q0 113 -54.5 156.5t-167.5 43.5q-49 0 -145 -22l-16 -4q-13 0 -19 16l-43 90q-6 12 -6 25t10 18q51 26 99.5 39t77 15.5t71.5 2.5q186 0 287.5 -97.5t101.5 -270.5v-441q0 -20 -20 -20h-107q-19 0 -28 20l-9 80 q-17 -31 -48 -54t-59 -33t-63 -16t-48.5 -6.5t-28.5 -0.5q-32 0 -64 4.5t-74.5 21.5t-73.5 44t-53 76.5t-22 115.5zM279 262q0 -59 34 -80.5t115 -21.5q15 0 37.5 3.5t59 18.5t59.5 39v66q-20 34 -74.5 53.5t-103.5 19.5q-71 0 -99 -25t-28 -73zM369 997l112 234l3 4 q3 4 5.5 8t7 7t7.5 3h168q22 0 22 -22l-155 -234q-13 -22 -35 -22h-113q-9 0 -15.5 6.5t-6.5 15.5z" />
<glyph unicode="&#xe2;" horiz-adv-x="913" d="M82 252q0 126 77.5 195t205.5 69q62 0 126 -17.5t93 -49.5q0 113 -54.5 156.5t-167.5 43.5q-49 0 -145 -22l-16 -4q-13 0 -19 16l-43 90q-6 12 -6 25t10 18q51 26 99.5 39t77 15.5t71.5 2.5q186 0 287.5 -97.5t101.5 -270.5v-441q0 -20 -20 -20h-107q-19 0 -28 20l-9 80 q-17 -31 -48 -54t-59 -33t-63 -16t-48.5 -6.5t-28.5 -0.5q-32 0 -64 4.5t-74.5 21.5t-73.5 44t-53 76.5t-22 115.5zM215 1038q0 7 6 13l203 174q1 0 6.5 4t11 7t9.5 3h41q4 0 9 -3t10.5 -6.5t6.5 -4.5l203 -174q6 -6 6 -13q0 -6 -10 -16l-62 -68q-6 -6 -14 -6q-6 0 -14 4 l-156 129l-156 -129q-8 -4 -14 -4q-8 0 -14 6l-62 68q-10 10 -10 16zM279 262q0 -59 34 -80.5t115 -21.5q15 0 37.5 3.5t59 18.5t59.5 39v66q-20 34 -74.5 53.5t-103.5 19.5q-71 0 -99 -25t-28 -73z" />
<glyph unicode="&#xe3;" horiz-adv-x="913" d="M82 252q0 126 77.5 195t205.5 69q62 0 126 -17.5t93 -49.5q0 113 -54.5 156.5t-167.5 43.5q-49 0 -145 -22l-16 -4q-13 0 -19 16l-43 90q-6 12 -6 25t10 18q51 26 99.5 39t77 15.5t71.5 2.5q186 0 287.5 -97.5t101.5 -270.5v-441q0 -20 -20 -20h-107q-19 0 -28 20l-9 80 q-17 -31 -48 -54t-59 -33t-63 -16t-48.5 -6.5t-28.5 -0.5q-32 0 -64 4.5t-74.5 21.5t-73.5 44t-53 76.5t-22 115.5zM147 1124q0 16 15 23q85 72 172 72q45 0 78.5 -11t49.5 -24t41.5 -24t57.5 -11q64 0 115 39q4 2 10 2q13 0 21 -12l53 -115q0 -1 1 -3t1 -3q0 -16 -14 -23 q-91 -78 -189 -78q-45 0 -116 35t-109 35q-57 0 -101 -33q-4 -2 -10 -2q-11 0 -20 13l-53 114q0 1 -1.5 3t-1.5 3zM279 262q0 -59 34 -80.5t115 -21.5q15 0 37.5 3.5t59 18.5t59.5 39v66q-20 34 -74.5 53.5t-103.5 19.5q-71 0 -99 -25t-28 -73z" />
<glyph unicode="&#xe4;" horiz-adv-x="913" d="M82 252q0 126 77.5 195t205.5 69q62 0 126 -17.5t93 -49.5q0 113 -54.5 156.5t-167.5 43.5q-49 0 -145 -22l-16 -4q-13 0 -19 16l-43 90q-6 12 -6 25t10 18q51 26 99.5 39t77 15.5t71.5 2.5q186 0 287.5 -97.5t101.5 -270.5v-441q0 -20 -20 -20h-107q-19 0 -28 20l-9 80 q-17 -31 -48 -54t-59 -33t-63 -16t-48.5 -6.5t-28.5 -0.5q-32 0 -64 4.5t-74.5 21.5t-73.5 44t-53 76.5t-22 115.5zM203 1081q0 44 31 74.5t75 30.5t75.5 -30.5t31.5 -74.5t-31.5 -75t-75.5 -31t-75 31t-31 75zM279 262q0 -59 34 -80.5t115 -21.5q15 0 37.5 3.5t59 18.5 t59.5 39v66q-20 34 -74.5 53.5t-103.5 19.5q-71 0 -99 -25t-28 -73zM514 1081q0 44 31.5 74.5t75.5 30.5t75 -30.5t31 -74.5t-31 -75t-75 -31t-75.5 31t-31.5 75z" />
<glyph unicode="&#xe5;" horiz-adv-x="913" d="M82 252q0 126 77.5 195t205.5 69q62 0 126 -17.5t93 -49.5q0 113 -54.5 156.5t-167.5 43.5q-49 0 -145 -22l-16 -4q-13 0 -19 16l-43 90q-6 12 -6 25t10 18q51 26 99.5 39t77 15.5t71.5 2.5q186 0 287.5 -97.5t101.5 -270.5v-441q0 -20 -20 -20h-107q-19 0 -28 20l-9 80 q-17 -31 -48 -54t-59 -33t-63 -16t-48.5 -6.5t-28.5 -0.5q-32 0 -64 4.5t-74.5 21.5t-73.5 44t-53 76.5t-22 115.5zM250 1192q0 90 64.5 154.5t154.5 64.5q89 0 153 -64t64 -155q0 -88 -64 -152.5t-153 -64.5t-154 64.5t-65 152.5zM279 262q0 -59 34 -80.5t115 -21.5 q15 0 37.5 3.5t59 18.5t59.5 39v66q-20 34 -74.5 53.5t-103.5 19.5q-71 0 -99 -25t-28 -73zM389 1192q0 -36 24.5 -62t55.5 -26q30 0 54 26t24 62q0 37 -23.5 59.5t-54.5 22.5q-33 0 -56.5 -22t-23.5 -60z" />
<glyph unicode="&#xe6;" horiz-adv-x="1443" d="M82 252q0 126 77.5 195t205.5 69q61 0 125.5 -17t93.5 -46q-1 110 -56 153t-166 43q-49 0 -145 -22l-16 -4q-13 0 -19 16l-43 90q-6 12 -6 25t10 18q51 26 99.5 39t77 15.5t71.5 2.5q198 0 299 -110q107 110 287 110q174 0 284.5 -105t110.5 -296v-80q0 -20 -20 -20h-568 q0 -47 24.5 -82.5t63 -52.5t73 -25t65.5 -8q51 0 108 12.5t94 38.5q6 6 15 6q12 0 22 -10l60 -94q6 -12 6 -17q0 -10 -8 -16q-85 -90 -295 -90q-211 0 -324 116q-40 -40 -86 -66.5t-87.5 -36t-60.5 -11.5t-36 -2q-52 0 -94 5t-89 21t-79 43.5t-53 76.5t-21 116zM279 262 q0 -59 34 -80.5t115 -21.5q15 0 37.5 3.5t59 18.5t59.5 39v66q-20 34 -74.5 53.5t-103.5 19.5q-71 0 -99 -25t-28 -73zM784 492h396q0 78 -58.5 116.5t-140.5 38.5q-78 0 -137.5 -40.5t-59.5 -114.5z" />
<glyph unicode="&#xe7;" horiz-adv-x="843" d="M72 414q0 112 57.5 207.5t156 151.5t214.5 56q75 0 147.5 -26.5t128.5 -73.5q6 -6 6 -14q0 -7 -6 -19q-36 -56 -74 -96q-10 -10 -22 -10q-10 0 -16 6q-31 22 -80 36.5t-86 14.5q-95 0 -161.5 -64.5t-66.5 -170.5q0 -107 67 -179.5t161 -72.5q116 0 178 39q6 6 14 6 q13 0 23 -10l59 -95q6 -12 6 -16q0 -10 -8 -16q-102 -71 -250 -78l-4 -64q71 -42 105 -77.5t34 -79.5q0 -61 -54 -90t-124 -29q-98 0 -170 51l-6 12q0 4 2 6l35 62q8 4 12 4t12 -4q14 -9 54 -20t71 -11q48 0 48 29q0 8 -7 16.5t-21.5 17.5t-28 16t-34 17t-32.5 17l-27 12 l12 127q-141 34 -233 149.5t-92 262.5z" />
<glyph unicode="&#xe8;" horiz-adv-x="933" d="M72 403q0 87 23.5 162.5t70 135t124 94t177.5 34.5q174 0 284.5 -105t110.5 -296v-80q0 -20 -20 -20h-568q0 -47 24.5 -82.5t63 -52.5t73 -25t65.5 -8q51 0 108 12.5t94 38.5q6 6 15 6q12 0 22 -10l60 -94q6 -12 6 -17q0 -10 -8 -16q-85 -90 -295 -90q-91 0 -167.5 24.5 t-136 73t-93 129.5t-33.5 186zM221 1231q0 10 7 16t16 6h168q4 0 9 -5t9 -11l4 -6l113 -234q0 -9 -7 -15.5t-16 -6.5h-112q-22 0 -35 22zM274 492h396q0 78 -58.5 116.5t-140.5 38.5q-78 0 -137.5 -40.5t-59.5 -114.5z" />
<glyph unicode="&#xe9;" horiz-adv-x="933" d="M72 403q0 87 23.5 162.5t70 135t124 94t177.5 34.5q174 0 284.5 -105t110.5 -296v-80q0 -20 -20 -20h-568q0 -47 24.5 -82.5t63 -52.5t73 -25t65.5 -8q51 0 108 12.5t94 38.5q6 6 15 6q12 0 22 -10l60 -94q6 -12 6 -17q0 -10 -8 -16q-85 -90 -295 -90q-91 0 -167.5 24.5 t-136 73t-93 129.5t-33.5 186zM274 492h396q0 78 -58.5 116.5t-140.5 38.5q-78 0 -137.5 -40.5t-59.5 -114.5zM387 997l113 234l4 6q4 6 9 11t9 5h168q9 0 16 -6t7 -16l-156 -234q-13 -22 -35 -22h-112q-9 0 -16 6.5t-7 15.5z" />
<glyph unicode="&#xea;" horiz-adv-x="933" d="M72 403q0 87 23.5 162.5t70 135t124 94t177.5 34.5q174 0 284.5 -105t110.5 -296v-80q0 -20 -20 -20h-568q0 -47 24.5 -82.5t63 -52.5t73 -25t65.5 -8q51 0 108 12.5t94 38.5q6 6 15 6q12 0 22 -10l60 -94q6 -12 6 -17q0 -10 -8 -16q-85 -90 -295 -90q-91 0 -167.5 24.5 t-136 73t-93 129.5t-33.5 186zM209 1038q0 7 6 13l203 174q1 1 6.5 4.5t10.5 6.5t9 3h41q4 0 9.5 -3t11 -7t6.5 -4l203 -174q6 -6 6 -13q0 -6 -10 -16l-62 -68q-6 -6 -14 -6q-6 0 -14 4l-156 129l-156 -129q-8 -4 -14 -4q-8 0 -14 6l-62 68q-10 10 -10 16zM274 492h396 q0 78 -58.5 116.5t-140.5 38.5q-78 0 -137.5 -40.5t-59.5 -114.5z" />
<glyph unicode="&#xeb;" horiz-adv-x="933" d="M72 403q0 87 23.5 162.5t70 135t124 94t177.5 34.5q174 0 284.5 -105t110.5 -296v-80q0 -20 -20 -20h-568q0 -47 24.5 -82.5t63 -52.5t73 -25t65.5 -8q51 0 108 12.5t94 38.5q6 6 15 6q12 0 22 -10l60 -94q6 -12 6 -17q0 -10 -8 -16q-85 -90 -295 -90q-91 0 -167.5 24.5 t-136 73t-93 129.5t-33.5 186zM215 1081q0 44 31.5 74.5t75.5 30.5t75 -30.5t31 -74.5t-31 -75t-75 -31t-75.5 31t-31.5 75zM274 492h396q0 78 -58.5 116.5t-140.5 38.5q-78 0 -137.5 -40.5t-59.5 -114.5zM526 1081q0 44 31.5 74.5t75.5 30.5t75 -30.5t31 -74.5t-31 -75 t-75 -31t-75.5 31t-31.5 75z" />
<glyph unicode="&#xec;" d="M-6 1231q0 22 22 22h168q3 0 7.5 -3t7 -7t5.5 -8l3 -4l112 -234q0 -9 -6.5 -15.5t-15.5 -6.5h-113q-21 0 -34 22zM143 20v779q0 20 21 20h155q21 0 21 -20v-779q0 -20 -21 -20h-155q-21 0 -21 20z" />
<glyph unicode="&#xed;" d="M143 20v779q0 20 21 20h155q21 0 21 -20v-779q0 -20 -21 -20h-155q-21 0 -21 20zM164 997l112 234l3 4q3 4 5.5 8t7 7t7.5 3h168q22 0 22 -22l-155 -234q-13 -22 -35 -22h-113q-9 0 -15.5 6.5t-6.5 15.5z" />
<glyph unicode="&#xee;" d="M-14 1038q0 7 6 13l203 174q1 1 6.5 4.5t10.5 6.5t9 3h41q4 0 9.5 -3t11 -7t6.5 -4l203 -174q6 -6 6 -13q0 -5 -11 -16l-61 -68q-6 -6 -14 -6q-7 0 -15 4l-155 129l-156 -129q-8 -4 -14 -4q-9 0 -15 6l-61 68q-10 10 -10 16zM143 20v779q0 20 21 20h155q21 0 21 -20v-779 q0 -20 -21 -20h-155q-21 0 -21 20z" />
<glyph unicode="&#xef;" d="M-4 1071q0 44 31 74.5t75 30.5t75.5 -30.5t31.5 -74.5t-31.5 -75t-75.5 -31t-75 31t-31 75zM143 20v779q0 20 21 20h155q21 0 21 -20v-779q0 -20 -21 -20h-155q-21 0 -21 20zM274 1071q0 44 31.5 74.5t75.5 30.5t75 -30.5t31 -74.5t-31 -75t-75 -31t-75.5 31t-31.5 75z " />
<glyph unicode="&#xf0;" horiz-adv-x="1017" d="M72 399q0 110 60.5 200.5t160.5 141t215 50.5h53l-67 122h-252q-9 0 -15 6t-6 15v110q0 9 6 15t15 6h170l-43 78q0 20 20 20h176q12 0 23 -20l43 -78h211q20 0 20 -21v-110q0 -21 -20 -21h-129l188 -344q45 -79 45 -170q0 -99 -36 -178t-97 -129t-138.5 -76t-164.5 -26 q-119 0 -216.5 44.5t-159.5 139t-62 225.5zM268 389q0 -104 72 -166.5t168 -62.5q97 0 169.5 62.5t72.5 166.5q0 101 -72.5 160t-169.5 59t-168.5 -59t-71.5 -160z" />
<glyph unicode="&#xf1;" horiz-adv-x="1030" d="M143 20v779q0 20 21 20h112q18 0 21 -20l18 -80q92 110 250 110q90 0 157.5 -29t107 -80.5t58.5 -115t19 -139.5v-445q0 -20 -20 -20h-156q-20 0 -20 20v414q0 51 -6 84.5t-24.5 66.5t-59 49.5t-103.5 16.5q-88 0 -133 -61.5t-45 -155.5v-414q0 -20 -21 -20h-155 q-21 0 -21 20zM223 1124q0 16 15 23q85 72 172 72q45 0 78.5 -11t49.5 -24t41.5 -24t57.5 -11q64 0 115 39q4 2 10 2q12 0 20 -12l54 -115q0 -1 1 -3t1 -3q0 -15 -15 -23q-91 -78 -188 -78q-45 0 -116 35t-109 35q-57 0 -101 -33q-4 -2 -10 -2q-11 0 -20 13l-54 114 q0 1 -1 3t-1 3z" />
<glyph unicode="&#xf2;" horiz-adv-x="991" d="M72 414q0 170 124.5 292.5t299.5 122.5t299.5 -122.5t124.5 -292.5q0 -174 -125 -299t-299 -125t-299 125t-125 299zM244 1231q0 22 22 22h168q3 0 7.5 -3t7 -7t5.5 -8l3 -4l112 -234q0 -9 -6.5 -15.5t-15.5 -6.5h-113q-22 0 -35 22zM268 412q0 -107 66.5 -179.5 t159.5 -72.5q96 0 162.5 72t66.5 180q0 106 -65.5 171.5t-163.5 65.5q-95 0 -160.5 -65.5t-65.5 -171.5z" />
<glyph unicode="&#xf3;" horiz-adv-x="991" d="M72 414q0 170 124.5 292.5t299.5 122.5t299.5 -122.5t124.5 -292.5q0 -174 -125 -299t-299 -125t-299 125t-125 299zM268 412q0 -108 67 -180t163 -72q93 0 159 72t66 180q0 106 -65 171.5t-160 65.5q-98 0 -164 -65.5t-66 -171.5zM422 997l113 234l4 6q4 6 9 11t9 5h168 q9 0 16 -6t7 -16l-156 -234q-13 -22 -35 -22h-113q-9 0 -15.5 6.5t-6.5 15.5z" />
<glyph unicode="&#xf4;" horiz-adv-x="991" d="M72 414q0 170 124.5 292.5t299.5 122.5t299.5 -122.5t124.5 -292.5q0 -174 -125 -299t-299 -125t-299 125t-125 299zM240 1038q0 7 6 13l203 174q1 1 6.5 4.5t10.5 6.5t9 3h41q4 0 9.5 -3t11 -7t6.5 -4l202 -174q7 -7 7 -13q0 -5 -11 -16l-61 -68q-6 -6 -14 -6 q-7 0 -15 4l-155 129l-156 -129q-8 -4 -14 -4q-9 0 -15 6l-61 68q-10 10 -10 16zM268 412q0 -107 66.5 -179.5t159.5 -72.5q96 0 162.5 72t66.5 180q0 106 -65.5 171.5t-163.5 65.5q-95 0 -160.5 -65.5t-65.5 -171.5z" />
<glyph unicode="&#xf5;" horiz-adv-x="991" d="M72 414q0 170 124.5 292.5t299.5 122.5t299.5 -122.5t124.5 -292.5q0 -174 -125 -299t-299 -125t-299 125t-125 299zM188 1124q0 16 15 23q85 72 172 72q45 0 78.5 -11t49.5 -24t41.5 -24t57.5 -11q64 0 115 39q4 2 10 2q13 0 21 -12l53 -115q0 -1 1 -3t1 -3 q0 -15 -15 -23q-91 -78 -188 -78q-45 0 -116 35t-109 35q-57 0 -101 -33q-4 -2 -10 -2q-11 0 -20 13l-54 114q0 1 -1 3t-1 3zM268 412q0 -107 66.5 -179.5t159.5 -72.5q96 0 162.5 72t66.5 180q0 106 -65.5 171.5t-163.5 65.5q-95 0 -160.5 -65.5t-65.5 -171.5z" />
<glyph unicode="&#xf6;" horiz-adv-x="991" d="M72 414q0 170 124.5 292.5t299.5 122.5t299.5 -122.5t124.5 -292.5q0 -174 -125 -299t-299 -125t-299 125t-125 299zM248 1071q0 44 31 74.5t75 30.5t75.5 -30.5t31.5 -74.5t-31.5 -75t-75.5 -31t-75 31t-31 75zM268 412q0 -107 66.5 -179.5t159.5 -72.5q96 0 162.5 72 t66.5 180q0 106 -65.5 171.5t-163.5 65.5q-95 0 -160.5 -65.5t-65.5 -171.5zM526 1071q0 44 31.5 74.5t75.5 30.5t75 -30.5t31 -74.5t-31 -75t-75 -31t-75.5 31t-31.5 75z" />
<glyph unicode="&#xf7;" horiz-adv-x="946" d="M143 328v135q0 20 21 20h618q21 0 21 -20v-135q0 -9 -6 -15t-15 -6h-618q-9 0 -15 6t-6 15zM367 104q0 44 31 75.5t75 31.5t75.5 -31.5t31.5 -75.5t-31 -74t-76 -30q-44 0 -75 30t-31 74zM367 686q0 44 31 74.5t75 30.5t75.5 -30.5t31.5 -74.5t-31.5 -75t-75.5 -31 t-75 31t-31 75z" />
<glyph unicode="&#xf8;" horiz-adv-x="991" d="M72 414q0 170 124.5 292.5t299.5 122.5q36 0 73 -6l33 90q13 23 29 23h121q20 0 20 -21q-7 -27 -55 -147q92 -56 147.5 -151t55.5 -203q0 -174 -125 -299t-299 -125q-38 0 -72 6q-33 -89 -37 -94q-13 -23 -29 -23h-120q-9 0 -15 6t-6 15l59 151q-94 58 -149 154.5 t-55 208.5zM268 412q0 -112 74 -189l160 426h-8q-95 0 -160.5 -65.5t-65.5 -171.5zM485 160h9q96 0 162.5 72t66.5 180q0 109 -72 178z" />
<glyph unicode="&#xf9;" horiz-adv-x="1030" d="M123 354v445q0 20 20 20h156q20 0 20 -20v-422q0 -51 6 -84.5t24.5 -66.5t59 -49.5t103.5 -16.5q88 0 133 61.5t45 155.5v422q0 20 21 20h155q21 0 21 -20v-779q0 -20 -21 -20h-112q-18 0 -21 20l-18 80q-92 -110 -250 -110q-90 0 -157.5 29t-107 80.5t-58.5 115 t-19 139.5zM258 1231q0 10 7 16t16 6h168q4 0 9 -5t9 -11l4 -6l113 -234q0 -9 -7 -15.5t-16 -6.5h-112q-22 0 -35 22z" />
<glyph unicode="&#xfa;" horiz-adv-x="1030" d="M123 354v445q0 20 20 20h156q20 0 20 -20v-422q0 -51 6 -84.5t24.5 -66.5t59 -49.5t103.5 -16.5q88 0 133 61.5t45 155.5v422q0 20 21 20h155q21 0 21 -20v-779q0 -20 -21 -20h-112q-18 0 -21 20l-18 80q-92 -110 -250 -110q-90 0 -157.5 29t-107 80.5t-58.5 115 t-19 139.5zM428 997l113 234l4 6q4 6 9 11t9 5h168q9 0 16 -6t7 -16l-156 -234q-13 -22 -35 -22h-112q-9 0 -16 6.5t-7 15.5z" />
<glyph unicode="&#xfb;" horiz-adv-x="1030" d="M123 354v445q0 20 20 20h156q20 0 20 -20v-422q0 -51 6 -84.5t24.5 -66.5t59 -49.5t103.5 -16.5q88 0 133 61.5t45 155.5v422q0 20 21 20h155q21 0 21 -20v-779q0 -20 -21 -20h-112q-18 0 -21 20l-18 80q-92 -110 -250 -110q-90 0 -157.5 29t-107 80.5t-58.5 115 t-19 139.5zM258 1038q0 7 6 13l203 174q1 0 6.5 4t11 7t9.5 3h41q4 0 9 -3t10.5 -6.5t6.5 -4.5l203 -174q6 -6 6 -13q0 -6 -10 -16l-62 -68q-6 -6 -14 -6q-6 0 -14 4l-156 129l-156 -129q-8 -4 -14 -4q-8 0 -14 6l-62 68q-10 10 -10 16z" />
<glyph unicode="&#xfc;" horiz-adv-x="1030" d="M123 354v445q0 20 20 20h156q20 0 20 -20v-422q0 -51 6 -84.5t24.5 -66.5t59 -49.5t103.5 -16.5q88 0 133 61.5t45 155.5v422q0 20 21 20h155q21 0 21 -20v-779q0 -20 -21 -20h-112q-18 0 -21 20l-18 80q-92 -110 -250 -110q-90 0 -157.5 29t-107 80.5t-58.5 115 t-19 139.5zM262 1071q0 44 31.5 74.5t75.5 30.5t75 -30.5t31 -74.5t-31 -75t-75 -31t-75.5 31t-31.5 75zM541 1071q0 44 31 74.5t75 30.5t75.5 -30.5t31.5 -74.5t-31.5 -75t-75.5 -31t-75 31t-31 75z" />
<glyph unicode="&#xfd;" horiz-adv-x="897" d="M61 799q0 20 21 20h176q12 0 23 -20l184 -393l182 393q11 20 23 20h176q20 0 20 -20l-540 -1129q-11 -20 -23 -20h-176q-21 0 -21 20l248 520q-51 108 -153 318.5t-140 290.5zM395 997q0 -9 7 -15.5t16 -6.5h112q22 0 35 22l156 234q0 10 -7 16t-16 6h-168q-4 0 -9 -5 t-9 -11l-4 -6z" />
<glyph unicode="&#xfe;" horiz-adv-x="1071" d="M143 -330v1473q0 20 21 20h155q21 0 21 -20v-408l6 -26q88 120 266 120q165 0 276 -121.5t111 -293.5q0 -175 -107.5 -299.5t-266.5 -124.5q-205 0 -285 119v-439q0 -20 -21 -20h-155q-21 0 -21 20zM360 412q0 -107 66 -179.5t158 -72.5q90 0 152.5 73.5t62.5 178.5 t-61.5 172t-153.5 67t-158 -67t-66 -172z" />
<glyph unicode="&#xff;" horiz-adv-x="897" d="M61 799q0 20 21 20h176q12 0 23 -20l184 -393l182 393q11 20 23 20h176q20 0 20 -20l-540 -1129q-11 -20 -23 -20h-176q-21 0 -21 20l248 520q-51 108 -153 318.5t-140 290.5zM225 1071q0 -44 31.5 -75t75.5 -31t75 31t31 75t-31 74.5t-75 30.5t-75.5 -30.5t-31.5 -74.5z M504 1071q0 -44 31 -75t75 -31t75.5 31t31.5 75t-31.5 74.5t-75.5 30.5t-75 -30.5t-31 -74.5z" />
<glyph unicode="&#x152;" horiz-adv-x="1712" d="M92 584q0 161 79.5 298t216.5 216.5t298 79.5q49 0 137 -15h756q20 0 20 -20v-135q0 -21 -20 -21h-580v-338h457q21 0 21 -20v-129q0 -9 -6 -15t-15 -6h-457v-303h580q20 0 20 -20v-136q0 -20 -20 -20h-756q-8 0 -12 2q-78 -12 -125 -12q-161 0 -298 79.5t-216.5 216.5 t-79.5 298zM289 578q0 -177 111.5 -298.5t283.5 -121.5q54 0 119 18v805q-59 16 -119 16q-172 0 -283.5 -121t-111.5 -298z" />
<glyph unicode="&#x153;" horiz-adv-x="1585" d="M72 414q0 170 124.5 292.5t299.5 122.5q91 0 172 -36.5t141 -100.5q103 137 309 137q174 0 284.5 -105t110.5 -296v-80q0 -20 -20 -20h-567q0 -47 24.5 -82.5t62.5 -52.5t72.5 -25t65.5 -8q51 0 108.5 12.5t94.5 38.5q6 6 14 6q13 0 23 -10l59 -94q6 -12 6 -17 q0 -10 -8 -16q-85 -90 -295 -90q-231 0 -344 139q-60 -65 -141.5 -102t-171.5 -37q-174 0 -299 125t-125 299zM268 412q0 -107 66.5 -179.5t159.5 -72.5q94 0 160 69t69 174v9q0 106 -65.5 171.5t-163.5 65.5q-95 0 -160.5 -65.5t-65.5 -171.5zM926 492h395 q0 78 -58.5 116.5t-140.5 38.5q-78 0 -137 -40.5t-59 -114.5z" />
<glyph unicode="&#x178;" horiz-adv-x="1146" d="M41 1143q0 20 20 20h189q8 0 11.5 -3.5t10.5 -16.5l301 -496l301 496q11 20 23 20h188q21 0 21 -20l-434 -709v-414q0 -20 -21 -20h-155q-21 0 -21 20v414zM311 1415q0 44 31.5 74.5t75.5 30.5t75 -30.5t31 -74.5t-31 -75t-75 -31t-75.5 31t-31.5 75zM623 1415 q0 44 31 74.5t75 30.5t75.5 -30.5t31.5 -74.5t-31.5 -75t-75.5 -31t-75 31t-31 75z" />
<glyph unicode="&#x2c6;" horiz-adv-x="798" d="M143 963q0 5 7 12l202 174q1 0 6.5 4t11 7t9.5 3h41q4 0 9 -3t10.5 -6.5t6.5 -4.5l203 -174q6 -6 6 -12q0 -7 -10 -17l-61 -67q-7 -7 -15 -7q-4 0 -14 5l-156 129l-155 -129q-10 -5 -15 -5q-7 0 -14 7l-61 67q-11 11 -11 17z" />
<glyph unicode="&#x2dc;" horiz-adv-x="901" d="M143 1069q0 15 15 23q84 71 172 71q45 0 78.5 -11t49.5 -23.5t41.5 -23.5t57.5 -11q64 0 115 39q4 2 10 2q11 0 20 -13l54 -114q0 -1 1 -3.5t1 -3.5q0 -15 -15 -22q-91 -78 -188 -78q-45 0 -116 35t-109 35q-57 0 -101 -33q-4 -2 -10 -2q-12 0 -20 12l-54 115q0 1 -1 3 t-1 3z" />
<glyph unicode="&#x2000;" horiz-adv-x="872" />
<glyph unicode="&#x2001;" horiz-adv-x="1745" />
<glyph unicode="&#x2002;" horiz-adv-x="872" />
<glyph unicode="&#x2003;" horiz-adv-x="1745" />
<glyph unicode="&#x2004;" horiz-adv-x="581" />
<glyph unicode="&#x2005;" horiz-adv-x="436" />
<glyph unicode="&#x2006;" horiz-adv-x="290" />
<glyph unicode="&#x2007;" horiz-adv-x="290" />
<glyph unicode="&#x2008;" horiz-adv-x="218" />
<glyph unicode="&#x2009;" horiz-adv-x="349" />
<glyph unicode="&#x200a;" horiz-adv-x="96" />
<glyph unicode="&#x2010;" horiz-adv-x="927" d="M143 328v135q0 20 21 20h600q20 0 20 -20v-135q0 -21 -20 -21h-600q-9 0 -15 6t-6 15z" />
<glyph unicode="&#x2011;" horiz-adv-x="927" d="M143 328v135q0 20 21 20h600q20 0 20 -20v-135q0 -21 -20 -21h-600q-9 0 -15 6t-6 15z" />
<glyph unicode="&#x2012;" horiz-adv-x="927" d="M143 328v135q0 20 21 20h600q20 0 20 -20v-135q0 -21 -20 -21h-600q-9 0 -15 6t-6 15z" />
<glyph unicode="&#x2013;" horiz-adv-x="927" d="M143 328v135q0 20 21 20h600q20 0 20 -20v-135q0 -21 -20 -21h-600q-9 0 -15 6t-6 15z" />
<glyph unicode="&#x2014;" horiz-adv-x="1046" d="M143 328v135q0 20 21 20h719q20 0 20 -20v-135q0 -21 -20 -21h-719q-9 0 -15 6t-6 15z" />
<glyph unicode="&#x2018;" horiz-adv-x="501" d="M143 920q0 8 4.5 23.5t6.5 17.5l92 180q13 22 28 22h-1h1h1h1h1h1h1h1h1h1h1h1h1h1h1h1h1h1h1h1h1h1h1h1h1h1h1h1h1h1h1h10q21 0 21 -20l-41 -127q65 -38 65 -96q0 -44 -32 -75.5t-76 -31.5t-75.5 31.5t-31.5 75.5z" />
<glyph unicode="&#x2019;" horiz-adv-x="501" d="M143 1057q0 44 32 75t77 31q44 0 75 -31t31 -75q0 -8 -4 -23.5t-6 -17.5l-92 -180q-13 -23 -29 -23h1h-1h-1h-1h-1h-1h-1h-1h-1h-1h-1h-1h-1h-1h-1h-1h-1h-1h-1h-1h-1h-1h-1h-1h-1h-1h-1h-1h-1h-1h-1h-10q-20 0 -20 21l41 127q-66 39 -66 96z" />
<glyph unicode="&#x201a;" horiz-adv-x="501" d="M143 80q0 44 32 75t77 31q44 0 75 -31t31 -75q0 -8 -4 -23.5t-6 -17.5l-92 -180q-13 -23 -29 -23h1h-1h-1h-1h-1h-1h-1h-1h-1h-1h-1h-1h-1h-1h-1h-1h-1h-1h-1h-1h-1h-1h-1h-1h-1h-1h-1h-1h-1h-1h-1h-10q-20 0 -20 21l41 127q-66 39 -66 96z" />
<glyph unicode="&#x201c;" horiz-adv-x="819" d="M143 920q0 8 4.5 23.5t6.5 17.5l92 180q13 22 28 22h-1h1h1h1h1h1h1h1h1h1h1h1h1h1h1h1h1h1h1h1h1h1h1h1h1h1h1h1h1h1h1h10q21 0 21 -20l-41 -127q65 -38 65 -96q0 -44 -32 -75.5t-76 -31.5t-75.5 31.5t-31.5 75.5zM461 920q0 8 4 23.5t6 17.5l92 180q13 22 29 22h-1h1h1 h1h1h1h1h1h1h1h1h1h1h1h1h1h1h1h1h1h1h1h1h1h1h1h1h1h1h1h1h10q20 0 20 -20l-41 -127q66 -39 66 -96q0 -44 -32.5 -75.5t-76.5 -31.5t-75 31.5t-31 75.5z" />
<glyph unicode="&#x201d;" horiz-adv-x="819" d="M143 1057q0 44 32 75t77 31q44 0 75 -31t31 -75q0 -8 -4 -23.5t-6 -17.5l-92 -180q-13 -23 -29 -23h1h-1h-1h-1h-1h-1h-1h-1h-1h-1h-1h-1h-1h-1h-1h-1h-1h-1h-1h-1h-1h-1h-1h-1h-1h-1h-1h-1h-1h-1h-1h-10q-20 0 -20 21l41 127q-66 39 -66 96zM461 1057q0 44 32 75t76 31 t75.5 -31t31.5 -75q0 -8 -4 -23.5t-6 -17.5l-93 -180q-13 -23 -28 -23h1h-1h-1h-1h-1h-1h-1h-1h-1h-1h-1h-1h-1h-1h-1h-1h-1h-1h-1h-1h-1h-1h-1h-1h-1h-1h-1h-1h-1h-1h-1h-10q-9 0 -15 6t-6 15l41 127q-65 38 -65 96z" />
<glyph unicode="&#x201e;" horiz-adv-x="819" d="M143 80q0 44 32 75t77 31q44 0 75 -31t31 -75q0 -8 -4 -23.5t-6 -17.5l-92 -180q-13 -23 -29 -23h1h-1h-1h-1h-1h-1h-1h-1h-1h-1h-1h-1h-1h-1h-1h-1h-1h-1h-1h-1h-1h-1h-1h-1h-1h-1h-1h-1h-1h-1h-1h-10q-20 0 -20 21l41 127q-66 39 -66 96zM461 80q0 44 32 75t76 31 t75.5 -31t31.5 -75q0 -8 -4 -23.5t-6 -17.5l-93 -180q-13 -23 -28 -23h1h-1h-1h-1h-1h-1h-1h-1h-1h-1h-1h-1h-1h-1h-1h-1h-1h-1h-1h-1h-1h-1h-1h-1h-1h-1h-1h-1h-1h-1h-1h-10q-9 0 -15 6t-6 15l41 127q-65 38 -65 96z" />
<glyph unicode="&#x2022;" horiz-adv-x="544" d="M143 397q0 54 37 91.5t90 37.5q55 0 93 -37.5t38 -91.5q0 -53 -38 -90t-93 -37q-52 0 -89.5 37t-37.5 90z" />
<glyph unicode="&#x2026;" horiz-adv-x="1490" d="M143 96q0 44 31.5 74.5t75.5 30.5t75 -30.5t31 -74.5t-31 -75t-75 -31t-75.5 31t-31.5 75zM639 96q0 44 31 74.5t75 30.5t75.5 -30.5t31.5 -74.5t-31.5 -75t-75.5 -31t-75 31t-31 75zM1135 96q0 44 31 74.5t75 30.5t75.5 -30.5t31.5 -74.5t-31.5 -75t-75.5 -31t-75 31 t-31 75z" />
<glyph unicode="&#x202f;" horiz-adv-x="349" />
<glyph unicode="&#x2039;" horiz-adv-x="894" d="M143 309v256q0 13 25 25l559 282q11 0 18 -7t7 -17v-174q0 -13 -22 -23q-2 -1 -3 -2l-428 -211l428 -211q1 -1 5.5 -3t6.5 -3t5 -3t4.5 -4t2.5 -5t1 -6v-174q0 -11 -7 -18t-18 -7l-557 279q-27 9 -27 26z" />
<glyph unicode="&#x203a;" horiz-adv-x="894" d="M143 29v174q0 3 1 6t2.5 5t4.5 4t5 3t6.5 3t5.5 3l428 211l-428 211q-1 0 -4 1.5t-4 2.5t-3.5 2t-3.5 2t-3 2.5t-3 3t-2 3.5t-1.5 4t-0.5 4v174q0 10 7 17t18 7l559 -282q25 -12 25 -25v-256q0 -17 -27 -26l-557 -279q-10 0 -17.5 7t-7.5 18z" />
<glyph unicode="&#x205f;" horiz-adv-x="436" />
<glyph unicode="&#x20ac;" horiz-adv-x="1470" d="M143 348v119q0 7 5.5 12.5t13.5 5.5h125q-8 41 -8 99q0 35 2 53h-119q-19 0 -19 16v119q0 8 5.5 13.5t13.5 5.5h153q64 171 216 279t341 108q117 0 225 -44t189 -122q4 -8 4 -13q0 -6 -10 -16q-44 -38 -90 -86q-10 -10 -23 -10q-10 0 -16 6q-122 104 -281 104 q-114 0 -204.5 -55.5t-141.5 -150.5h162q8 0 13.5 -5.5t5.5 -13.5v-119q0 -16 -19 -16h-207q-4 -46 -4 -59q0 -54 8 -93h203q8 0 13.5 -5.5t5.5 -12.5v-119q0 -16 -19 -16h-141q52 -81 136.5 -127.5t188.5 -46.5q79 0 173.5 37.5t162.5 109.5q6 6 15 6q12 0 22 -10 q45 -47 74 -72q10 -10 10 -16q0 -4 -4 -12q-80 -99 -198 -155t-253 -56q-176 0 -320.5 93.5t-217.5 248.5h-172q-19 0 -19 16z" />
<glyph unicode="&#x2122;" horiz-adv-x="1429" d="M143 1059v92q0 12 13 12h469q12 0 12 -12v-92q0 -15 -12 -15h-160v-487q0 -14 -14 -14h-121q-13 0 -13 14v487h-161q-5 0 -9 4.5t-4 10.5zM709 557v602q5 8 12 8q6 0 14 -8l244 -264q16 -12 18 -12q3 0 19 12l244 264q8 8 14 8q7 0 12 -8v-602q0 -14 -14 -14h-129 q-11 0 -15 14v266l-118 -121q-10 -10 -13 -10q-2 0 -12 10l-119 121v-266q-4 -14 -14 -14h-129q-14 0 -14 14z" />
<glyph unicode="&#x25fc;" horiz-adv-x="819" d="M0 0v819h819v-819h-819z" />
</font>
</defs>
</svg>
