<?xml version="1.0" standalone="no"?>
<!DOCTYPE svg PUBLIC "-//W3C//DTD SVG 1.1//EN" "http://www.w3.org/Graphics/SVG/1.1/DTD/svg11.dtd" >
<svg xmlns="http://www.w3.org/2000/svg" xmlns:xlink="http://www.w3.org/1999/xlink" version="1.1">
<metadata></metadata>
<defs>
<font id="noyhbold" horiz-adv-x="946" >
<font-face units-per-em="2048" ascent="1536" descent="-512" />
<missing-glyph horiz-adv-x="407" />
<glyph unicode="&#xfb01;" horiz-adv-x="1212" d="M39 643v162q0 11 6.5 17.5t17.5 6.5h140q0 206 70 297t219 91q108 0 188 -50q12 -12 12 -20q0 -10 -2 -14l-47 -132q-5 -8 -20 -8q-11 0 -15 2q-22 17 -82 17q-55 0 -73.5 -43.5t-18.5 -139.5h610q11 0 18 -7t7 -17v-780q0 -11 -7.5 -18t-17.5 -7h-182q-10 0 -17 7t-7 18 v593h-404v-593q0 -11 -7 -18t-17 -7h-183q-10 0 -17 7t-7 18v593h-140q-10 0 -17 7t-7 18z" />
<glyph unicode="&#xfb02;" horiz-adv-x="1216" d="M41 643v162q0 10 7 17t18 7h139q0 206 70 297t219 91q108 0 188 -50q12 -12 12 -20q0 -10 -2 -14l-47 -132q-5 -8 -20 -8q-11 0 -15 2q-22 17 -82 17q-55 0 -73.5 -43.5t-18.5 -139.5h203q11 0 18 -7t7 -17v-162q0 -11 -7 -18t-18 -7h-203v-593q0 -11 -7 -18t-17 -7h-183 q-10 0 -17 7t-7 18v593h-139q-10 0 -17.5 7t-7.5 18zM838 25v1114q0 11 7 17.5t17 6.5h182q11 0 18 -7t7 -17v-1114q0 -11 -7.5 -18t-17.5 -7h-182q-10 0 -17 7t-7 18z" />
<glyph horiz-adv-x="0" />
<glyph unicode="&#xd;" horiz-adv-x="579" />
<glyph unicode=" "  horiz-adv-x="407" />
<glyph unicode="&#x09;" horiz-adv-x="407" />
<glyph unicode="&#xa0;" horiz-adv-x="407" />
<glyph unicode="!" horiz-adv-x="532" d="M143 113q0 53 35.5 88t87.5 35t87.5 -35t35.5 -88t-35.5 -88t-87.5 -35t-87.5 35t-35.5 88zM150 1139q0 11 7 17.5t17 6.5h182q11 0 18 -7t7 -17l-31 -797q0 -11 -7 -18t-17 -7h-125q-11 0 -18 7.5t-7 17.5z" />
<glyph unicode="&#x22;" horiz-adv-x="831" d="M143 1139q0 10 7 17t18 7h162q10 0 17 -6.5t7 -17.5l-24 -340q0 -11 -7 -18t-18 -7h-115q-10 0 -17 7t-7 18zM477 1139q0 10 7 17t18 7h162q10 0 17 -6.5t7 -17.5l-24 -340q0 -11 -7 -18t-18 -7h-115q-10 0 -17 7t-7 18z" />
<glyph unicode="#" horiz-adv-x="1556" d="M143 279v161q0 10 7.5 17.5t17.5 7.5h205l76 203h-173q-10 0 -17 7t-7 17v162q0 11 7 18t17 7h252l99 260q12 24 32 24h183q10 0 17 -6.5t7 -17.5l-98 -260h274l99 260q12 24 33 24h182q10 0 17 -6.5t7 -17.5l-98 -260h107q10 0 17 -7t7 -18v-162q0 -10 -6.5 -17 t-17.5 -7h-187l-76 -203h154q10 0 17.5 -7.5t7.5 -17.5v-161q0 -11 -7.5 -18t-17.5 -7h-233l-86 -229q-13 -25 -33 -25h-183q-10 0 -17 7t-7 18l86 229h-275l-86 -229q-12 -25 -32 -25h-183q-10 0 -17 7t-7 18l86 229h-125q-10 0 -17.5 7t-7.5 18zM612 465h275l76 203h-275z " />
<glyph unicode="$" horiz-adv-x="1122" d="M143 844q0 137 82.5 222t237.5 105v144q0 11 6.5 17.5t17.5 6.5h183q10 0 17 -6.5t7 -17.5v-154q101 -21 203 -63q11 -7 16 -23q0 -10 -2 -14l-61 -139q-4 -15 -23 -15q-6 0 -14 4q-179 54 -252 54q-51 0 -88.5 -11.5t-55.5 -26.5t-28.5 -36.5t-12 -33t-1.5 -23.5 q0 -43 33.5 -75.5t86.5 -55t117.5 -44.5t129 -51t117.5 -67t86.5 -100t33.5 -142q0 -108 -84 -187t-201 -110v-154q0 -10 -7 -17t-17 -7h-183q-11 0 -17.5 7t-6.5 17v148q-168 14 -293 96q-12 12 -12 21q0 10 2 14l67 131q5 8 21 8q10 0 14 -2q119 -69 299 -69 q74 0 131.5 35t57.5 85q0 39 -33.5 68t-87 50t-118.5 42t-129.5 50t-118 68t-87 103.5t-33.5 147.5z" />
<glyph unicode="%" horiz-adv-x="1781" d="M143 870q0 121 87.5 207t209.5 86q119 0 205 -86t86 -207q0 -120 -86.5 -207.5t-204.5 -87.5q-121 0 -209 87.5t-88 207.5zM332 870q0 -52 31.5 -86t76.5 -34q41 0 72 34.5t31 85.5q0 49 -30.5 79t-72.5 30q-46 0 -77 -29t-31 -80zM463 25l604 1114q12 24 33 24h194 q11 0 18 -7t7 -17l-604 -1114q-13 -25 -33 -25h-195q-10 0 -17 7t-7 18zM1051 295q0 121 87.5 207t209.5 86q119 0 204.5 -86t85.5 -207q0 -120 -86 -207.5t-204 -87.5q-121 0 -209 87.5t-88 207.5zM1239 295q0 -52 32 -86.5t77 -34.5q41 0 71.5 35t30.5 86q0 49 -30 78.5 t-72 29.5q-46 0 -77.5 -28.5t-31.5 -79.5z" />
<glyph unicode="&#x26;" horiz-adv-x="1368" d="M143 356q0 81 63 177.5t161 138.5q-54 58 -71 108.5t-17 110.5q0 126 100 206.5t305 80.5q156 0 274 -74q12 -8 17 -23q0 -10 -2 -14l-62 -139q-4 -15 -22 -15q-5 0 -15 5q-83 47 -184 47q-50 0 -86.5 -12t-54 -26.5t-27 -36t-11 -32.5t-1.5 -24q0 -57 91 -158t257 -246 l174 186q4 2 8 2q7 0 11 -4l92 -96q8 -8 8 -18q0 -17 -6 -23l-162 -190q186 -190 242 -262q0 -11 -7.5 -18t-17.5 -7h-182q-23 0 -33 4.5t-24 18.5l-121 122q-40 -48 -89.5 -81.5t-94 -48t-74.5 -20t-52 -5.5q-162 0 -274.5 100t-112.5 266zM375 344q0 -48 15.5 -79.5 t45 -46t57.5 -19t68 -4.5q68 0 141 79q-59 55 -89 85t-62 63t-62 63q-49 -5 -81.5 -52.5t-32.5 -88.5z" />
<glyph unicode="'" horiz-adv-x="497" d="M143 1139q0 10 7 17t18 7h162q10 0 17 -6.5t7 -17.5l-24 -340q0 -11 -7 -18t-18 -7h-115q-10 0 -17 7t-7 18z" />
<glyph unicode="(" horiz-adv-x="737" d="M143 541q0 446 217 897q12 24 25 24h182q11 0 19 -7t8 -17q-219 -455 -219 -897q0 -446 217 -867q0 -10 -7 -17t-18 -7h-182q-11 0 -18 7t-7 17q-217 421 -217 867z" />
<glyph unicode=")" horiz-adv-x="737" d="M143 1438q0 10 8 17t19 7h182q13 0 25 -24q217 -451 217 -897t-217 -867q0 -10 -7 -17t-18 -7h-182q-11 0 -18 7t-7 17q217 421 217 867q0 442 -219 897z" />
<glyph unicode="*" horiz-adv-x="1118" d="M143 801q0 6 2 10l70 145q6 15 21 15q8 0 12 -2l227 -127l-20 297q0 11 6.5 17.5t17.5 6.5h162q11 0 18 -7t7 -17l-23 -297l227 127q4 2 13 2q14 0 20 -15l70 -145q2 -4 2 -10q0 -16 -14 -23l-246 -94l133 -186q4 -8 4 -11q0 -18 -12 -24l-138 -86q-4 -2 -10 -2 q-16 0 -22 12l-111 209l-108 -209q-6 -12 -23 -12q-6 0 -10 2l-137 86q-13 7 -13 24q0 3 4 11l131 184l-245 96q-15 8 -15 23z" />
<glyph unicode="+" d="M143 348v162q0 10 7.5 17.5t17.5 7.5h201v200q0 11 7 18t17 7h162q11 0 18 -7t7 -18v-200h198q10 0 17.5 -7.5t7.5 -17.5v-162q0 -10 -7 -17t-18 -7h-198v-199q0 -11 -7 -18t-18 -7h-162q-10 0 -17 7t-7 18v199h-201q-11 0 -18 7t-7 17z" />
<glyph unicode="," horiz-adv-x="534" d="M143 96q0 52 36 87.5t89 35.5q52 0 87.5 -35.5t35.5 -87.5q0 -33 -14 -53l-96 -188q-7 -15 -17 -15h-94q-14 0 -14 15l45 137q-58 33 -58 104z" />
<glyph unicode="-" d="M143 322v161q0 11 7.5 18t17.5 7h610q10 0 17.5 -7t7.5 -18v-161q0 -10 -7.5 -17.5t-17.5 -7.5h-610q-10 0 -17.5 7.5t-7.5 17.5z" />
<glyph unicode="." horiz-adv-x="532" d="M143 113q0 53 35.5 88t87.5 35t87.5 -35t35.5 -88t-35.5 -88t-87.5 -35t-87.5 35t-35.5 88z" />
<glyph unicode="/" horiz-adv-x="1120" d="M143 -233l594 1576q13 25 33 25h182q10 0 17.5 -7t7.5 -18l-594 -1576q-13 -25 -33 -25h-182q-10 0 -17.5 7t-7.5 18z" />
<glyph unicode="0" horiz-adv-x="1214" d="M92 584q0 166 59.5 299.5t178.5 214t278 80.5t277.5 -80.5t177.5 -214t59 -299.5t-59 -299.5t-177.5 -214t-277.5 -80.5t-278 80.5t-178.5 214t-59.5 299.5zM324 578q0 -84 14.5 -150.5t46 -120t88 -83t133.5 -29.5t134 29.5t89 83t47 120.5t15 150q0 66 -9 122 t-30 105.5t-53.5 83.5t-81.5 54t-111 20t-111 -20t-80.5 -54t-52.5 -83.5t-29.5 -105.5t-8.5 -122z" />
<glyph unicode="1" horiz-adv-x="790" d="M61 748v161q0 21 25 25q84 17 179 57t160.5 77t122 66t75.5 29q21 0 24 -20v-1118q0 -11 -7 -18t-17 -7h-183q-10 0 -17 7t-7 18v802q-68 -53 -167 -78.5t-167 -25.5q-9 0 -15 8t-6 17z" />
<glyph unicode="2" horiz-adv-x="1052" d="M123 25v81q0 64 31.5 126.5t82 114t111.5 101t122.5 97t112 92.5t82 96t31.5 101q0 13 -1.5 23.5t-13.5 32.5t-33.5 36.5t-67 26.5t-109.5 12q-54 0 -130.5 -21.5t-117.5 -44.5q-8 -4 -14 -4q-19 0 -23 14l-61 140q-2 4 -2 14q5 15 16 22q54 34 149 63.5t189 29.5 q216 0 333.5 -88t117.5 -246q0 -81 -26.5 -151.5t-67.5 -119t-97 -97.5t-109 -86t-110.5 -86.5t-93.5 -96.5h481q11 0 18 -7.5t7 -17.5v-157q0 -11 -7 -18t-18 -7h-758q-10 0 -17 7t-7 18z" />
<glyph unicode="3" horiz-adv-x="1005" d="M92 127q0 10 8 18l78 117q6 6 15 6q150 -73 260 -73q117 0 163 46.5t46 145.5q0 45 -20 78.5t-54.5 50.5t-72.5 25t-81 8q-36 0 -63 -6q-5 0 -9 4t-4 8l179 397h-420q-11 0 -18 7t-7 18v162q0 10 7 17t18 7h745q9 0 16 -5.5t7 -14.5q0 -6 -2 -10l-219 -443 q112 -31 170.5 -111.5t58.5 -189.5q0 -181 -110.5 -290t-331.5 -109q-89 0 -195 31.5t-158 82.5q-6 9 -6 23z" />
<glyph unicode="4" horiz-adv-x="1067" d="M102 283v149q0 16 29 57l410 654q9 20 24 20h283q21 0 24 -20v-674h109q11 0 18 -7.5t7 -17.5v-161q0 -11 -7 -18t-18 -7h-109v-233q0 -11 -7 -18t-17 -7h-182q-10 0 -17.5 7t-7.5 18v233h-514q-11 0 -18 7t-7 18zM389 469h252v399z" />
<glyph unicode="5" horiz-adv-x="1024" d="M123 266q0 11 7 18t17 7h183q10 0 17 -7t7 -18q36 -71 181 -71q53 0 95.5 15t72.5 54t30 98q0 88 -50.5 128t-131.5 40q-62 0 -98 -5t-64 -23q-6 -17 -29 -17l-8 1q-7 0 -55.5 4t-128.5 10q-21 7 -21 22v615q0 13 3.5 19.5t17.5 6.5h698q11 0 18 -7t7 -17v-162 q0 -11 -7.5 -18t-17.5 -7h-487v-237q82 30 174 30q112 0 205.5 -46.5t150 -134.5t56.5 -199t-61 -198t-157.5 -132t-209.5 -45q-157 0 -271 73.5t-143 202.5z" />
<glyph unicode="6" horiz-adv-x="1089" d="M102 406q0 95 45 174l306 559q12 24 32 24h207q11 0 18 -7t7 -17l-189 -336h17q116 0 217 -51t163 -143t62 -203q0 -100 -36.5 -181t-98.5 -131.5t-141 -77t-168 -26.5q-87 0 -165.5 26.5t-140.5 77t-98.5 131.5t-36.5 181zM334 395q0 -91 63 -145.5t148 -54.5t148 54.5 t63 145.5q0 89 -63 141t-148 52t-148 -52t-63 -141z" />
<glyph unicode="7" horiz-adv-x="989" d="M72 977v162q0 11 7 17.5t17 6.5h819q9 0 16 -5.5t7 -14.5q0 -6 -2 -10l-475 -1108q-13 -25 -33 -25h-192q-9 0 -16 5.5t-7 14.5q0 7 2 11l401 921h-520q-10 0 -17 7t-7 18z" />
<glyph unicode="8" horiz-adv-x="1083" d="M102 346q0 166 140 254q-103 77 -103 227q0 171 104.5 261t297.5 90t298 -90t105 -261q0 -153 -104 -227q141 -88 141 -254q0 -83 -37 -151.5t-98.5 -112.5t-139.5 -68t-163 -24q-86 0 -165 24t-140.5 68t-98.5 112.5t-37 151.5zM334 344q0 -44 21 -75.5t55 -46.5t66 -21 t65 -6t65.5 6t67 21t55.5 46.5t21 75.5q0 86 -63 128t-148 42q-51 0 -95.5 -15.5t-77 -55.5t-32.5 -99zM371 825q0 -86 43 -115.5t127 -29.5q85 0 128.5 29.5t43.5 115.5q0 45 -12.5 74t-38.5 42t-53.5 17.5t-69.5 4.5q-84 0 -126 -26.5t-42 -111.5z" />
<glyph unicode="9" horiz-adv-x="1089" d="M102 762q0 100 36.5 181t99 131.5t141.5 77t168 26.5q87 0 165.5 -26.5t140 -77t98 -131.5t36.5 -181q0 -95 -45 -174l-307 -563q-13 -25 -33 -25h-207q-10 0 -17 7t-7 18l190 350h-16q-87 0 -167.5 28.5t-141.5 78.5t-97.5 123t-36.5 157zM334 772q0 -89 63 -140.5 t148 -51.5t148 51.5t63 140.5q0 90 -62.5 140.5t-148.5 50.5t-148.5 -50.5t-62.5 -140.5z" />
<glyph unicode=":" horiz-adv-x="532" d="M143 113q0 53 35.5 88t87.5 35t87.5 -35t35.5 -88t-35.5 -88t-87.5 -35t-87.5 35t-35.5 88zM143 668q0 52 35.5 87.5t87.5 35.5t87.5 -35.5t35.5 -87.5t-35.5 -87.5t-87.5 -35.5t-87.5 35.5t-35.5 87.5z" />
<glyph unicode=";" horiz-adv-x="534" d="M143 96q0 52 36 87.5t89 35.5q52 0 87.5 -35.5t35.5 -87.5q0 -33 -14 -53l-96 -188q-7 -15 -17 -15h-94q-14 0 -14 15l45 137q-58 33 -58 104zM145 668q0 52 35.5 87.5t87.5 35.5t87.5 -35.5t35.5 -87.5t-35.5 -87.5t-87.5 -35.5t-87.5 35.5t-35.5 87.5z" />
<glyph unicode="&#x3c;" horiz-adv-x="915" d="M143 307v271q0 11 11 18l594 299q10 0 17 -7t7 -18v-211q0 -3 -0.5 -5.5t-2 -4.5t-3 -3.5t-4.5 -3t-4 -2.5t-5 -2.5t-5 -2.5l-388 -193l388 -192q24 -12 24 -25v-211q0 -10 -7 -17t-17 -7l-594 299q-11 7 -11 18z" />
<glyph unicode="=" horiz-adv-x="794" d="M143 174v162q0 10 7 17t18 7h459q11 0 17.5 -7t6.5 -17v-162q0 -10 -6.5 -17t-17.5 -7h-459q-11 0 -18 7t-7 17zM143 479v162q0 11 7.5 18t17.5 7h459q10 0 17 -7t7 -18v-162q0 -11 -6.5 -17.5t-17.5 -6.5h-459q-11 0 -18 7t-7 17z" />
<glyph unicode="&#x3e;" horiz-adv-x="915" d="M143 14v211q0 13 25 25l387 192l-387 193q-1 1 -5.5 3t-6.5 3t-5 3t-4.5 4t-2.5 5t-1 6v211q0 10 7.5 17.5t17.5 7.5l594 -299q10 -7 10 -18v-271q0 -11 -10 -18l-594 -299q-11 0 -18 7t-7 17z" />
<glyph unicode="?" horiz-adv-x="974" d="M143 1075q5 15 17 23q128 80 305 80q74 0 138.5 -18.5t116.5 -55t81.5 -97t29.5 -139.5q0 -46 -25 -95.5t-61.5 -95t-72.5 -91t-61 -99t-25 -104.5v-35q0 -10 -7 -17t-18 -7h-182q-11 0 -18 7t-7 17v45q0 76 25.5 143.5t61.5 113.5t72 84.5t61.5 74t25.5 65.5 q0 40 -39.5 65.5t-101.5 25.5q-55 0 -115 -15.5t-100 -38.5q-8 -4 -15 -4q-18 0 -22 15l-62 139q-2 4 -2 14zM346 113q0 53 35 88t88 35t88 -35t35 -88t-35 -88t-88 -35t-88 35t-35 88z" />
<glyph unicode="@" horiz-adv-x="1929" d="M143 418q0 98 23 195t82.5 198.5t150 177.5t238.5 125t334 49q135 0 249.5 -25.5t196.5 -68.5t147 -103.5t106 -126t67.5 -140.5t37.5 -143.5t11 -137.5q0 -59 -11 -118t-37 -118t-65 -104t-100.5 -73t-136.5 -28q-52 0 -86.5 4t-89 27.5t-103.5 69.5q-83 -88 -223 -88 q-78 0 -146 22t-124.5 66.5t-89.5 120.5t-33 176q0 179 86 280t262 101q128 0 211 -86v63q0 11 7 18t17 7h183q10 0 17 -7t7 -18v-547q52 -14 103 -14q20 0 34.5 4t31.5 19t27.5 41t17.5 73t7 113q0 65 -12.5 129t-51 139.5t-100 131.5t-171 94t-252.5 38t-252.5 -38.5 t-171.5 -95t-101.5 -132.5t-52 -140.5t-12.5 -129.5q0 -67 5 -120.5t22.5 -117.5t48 -112.5t84.5 -96t128 -78.5t183.5 -50t245.5 -19q143 0 434 94q11 0 17.5 -7t6.5 -17v-162q0 -10 -4 -14.5t-18 -10.5q-67 -34 -200.5 -56t-219.5 -22q-111 0 -201.5 6.5t-193.5 27.5 t-182 55.5t-154.5 94.5t-124.5 141.5t-79 199t-30 264.5zM772 365q0 -93 38 -131.5t120 -38.5q84 0 127 39.5t43 130.5q0 176 -170 176q-81 0 -119.5 -42t-38.5 -134z" />
<glyph unicode="A" horiz-adv-x="1245" d="M41 25l551 1130q14 14 31 14q16 0 30 -14l551 -1130q0 -11 -7 -18t-17 -7h-199q-21 0 -33 25l-108 227h-434l-109 -227q-13 -25 -33 -25h-198q-10 0 -17.5 7t-7.5 18zM506 459h233l-116 243z" />
<glyph unicode="B" horiz-adv-x="1116" d="M143 25v1114q0 10 7 17t18 7h498q144 0 246 -101.5t102 -244.5q0 -140 -96 -239q94 -101 94 -234q0 -142 -101.5 -243t-244.5 -101h-498q-10 0 -17.5 7t-7.5 18zM375 207h274q55 0 95 41t40 96q0 47 -28 86t-70 39h-311v-262zM375 684h276q55 0 94 39.5t39 93.5t-39 93.5 t-94 39.5h-276v-266z" />
<glyph unicode="C" horiz-adv-x="1222" d="M92 584q0 161 79.5 298t216.5 216.5t298 79.5q121 0 230 -45.5t190 -126.5q8 -12 8 -21q0 -10 -8 -18l-117 -113q-6 -6 -14 -6q-13 0 -23 10q-114 105 -268 105q-157 0 -258.5 -111.5t-101.5 -273.5t101 -272.5t259 -110.5q94 0 174.5 40.5t138.5 110.5q10 10 23 10 q8 0 14 -6l109 -106q8 -8 8 -19q0 -8 -8 -20q-84 -99 -203.5 -157t-253.5 -58q-161 0 -298 79.5t-216.5 216.5t-79.5 298z" />
<glyph unicode="D" horiz-adv-x="1183" d="M143 25v1114q0 10 7 17t18 7h395q161 0 289.5 -77.5t199 -211t70.5 -296.5t-70.5 -294.5t-199 -207.5t-289.5 -76h-395q-10 0 -17.5 7t-7.5 18zM375 207h151q160 0 262.5 102t102.5 262q0 161 -103.5 270t-261.5 109h-151v-743z" />
<glyph unicode="E" horiz-adv-x="1064" d="M143 25v1114q0 10 7 17t18 7h760q10 0 17 -6.5t7 -17.5v-162q0 -11 -7 -18t-17 -7h-553v-284h438q11 0 18 -7t7 -18v-156q0 -10 -7 -17t-18 -7h-438v-252h553q10 0 17 -7t7 -18v-161q0 -11 -7 -18t-17 -7h-760q-10 0 -17.5 7t-7.5 18z" />
<glyph unicode="F" horiz-adv-x="983" d="M143 25v1114q0 10 7 17t18 7h760q10 0 17 -6.5t7 -17.5v-162q0 -11 -7 -18t-17 -7h-553v-284h438q11 0 18 -7t7 -18v-156q0 -10 -7 -17t-18 -7h-438v-438q0 -11 -7.5 -18t-17.5 -7h-182q-10 0 -17.5 7t-7.5 18z" />
<glyph unicode="G" horiz-adv-x="1296" d="M92 584q0 161 79.5 298t216.5 216.5t298 79.5q121 0 230 -45.5t190 -126.5q8 -12 8 -21q0 -10 -8 -18l-117 -113q-6 -6 -14 -6q-13 0 -23 10q-114 105 -268 105q-157 0 -258.5 -111.5t-101.5 -273.5t101 -272.5t259 -110.5q142 0 248 86v143h-209q-11 0 -18 7t-7 18v157 q0 10 7 17.5t18 7.5h416q10 0 17 -7t7 -18v-581q0 -11 -7 -18t-17 -7h-70q-15 0 -29 14l-49 60q-143 -84 -305 -84q-161 0 -298 79.5t-216.5 216.5t-79.5 298z" />
<glyph unicode="H" horiz-adv-x="1204" d="M143 25v1114q0 10 7 17t18 7h182q11 0 18 -7t7 -17v-471h454v471q0 10 7 17t18 7h182q11 0 18 -7t7 -17v-1114q0 -11 -7.5 -18t-17.5 -7h-182q-10 0 -17.5 7t-7.5 18v438h-454v-438q0 -11 -7.5 -18t-17.5 -7h-182q-10 0 -17.5 7t-7.5 18z" />
<glyph unicode="I" horiz-adv-x="518" d="M143 25v1114q0 10 7 17t18 7h182q11 0 18 -7t7 -17v-1114q0 -11 -7.5 -18t-17.5 -7h-182q-10 0 -17.5 7t-7.5 18z" />
<glyph unicode="J" horiz-adv-x="960" d="M33 129q0 8 6 14l92 121q10 10 23 10q4 0 12 -4q57 -47 104 -61t127 -14q86 0 129 29.5t61.5 104t18.5 222.5v588q0 10 7 17t18 7h182q11 0 18 -7t7 -17v-615q0 -155 -23 -256t-77 -164t-136 -88.5t-207 -25.5q-215 0 -352 119q-10 10 -10 20z" />
<glyph unicode="K" horiz-adv-x="1218" d="M143 25v1114q0 10 7 17t18 7h182q11 0 18 -7t7 -17v-459l422 465q3 7 13 12.5t19 5.5h250q11 0 18 -7t7 -17l-365 -398l439 -716q0 -11 -7 -18t-18 -7h-213q-9 0 -19.5 5.5t-13.5 12.5l-332 545l-200 -219v-319q0 -11 -7.5 -18t-17.5 -7h-182q-10 0 -17.5 7t-7.5 18z" />
<glyph unicode="L" horiz-adv-x="1042" d="M143 25v1114q0 10 7 17t18 7h182q11 0 18 -7t7 -17v-932h553q10 0 17 -7t7 -18v-157q0 -11 -7 -18t-17 -7h-760q-10 0 -17.5 7t-7.5 18z" />
<glyph unicode="M" horiz-adv-x="1404" d="M143 25v1130q8 14 23 14q10 0 24 -14l476 -498q14 -22 36 -22q23 0 37 22l475 498q14 14 25 14q15 0 23 -14v-1130q0 -11 -7 -18t-18 -7h-182q-11 0 -18 7t-7 18v587l-305 -307q-16 -16 -23 -16q-6 0 -22 16l-305 307v-587q0 -11 -7.5 -18t-17.5 -7h-182q-10 0 -17.5 7 t-7.5 18z" />
<glyph unicode="N" horiz-adv-x="1288" d="M143 25v1128q0 23 29 23l741 -500v463q0 10 7 17t18 7h182q11 0 18 -7t7 -17v-1114q0 -11 -7.5 -18t-17.5 -7h-182q-10 0 -17.5 7t-7.5 18v378l-538 351v-729q0 -11 -7.5 -18t-17.5 -7h-182q-10 0 -17.5 7t-7.5 18z" />
<glyph unicode="O" horiz-adv-x="1372" d="M92 584q0 161 79.5 298t216.5 216.5t298 79.5t298 -79.5t216.5 -216.5t79.5 -298t-79.5 -298t-216.5 -216.5t-298 -79.5t-298 79.5t-216.5 216.5t-79.5 298zM324 578q0 -162 101 -272.5t259 -110.5t261.5 110.5t103.5 272.5t-103.5 273.5t-261.5 111.5 q-157 0 -258.5 -111.5t-101.5 -273.5z" />
<glyph unicode="P" horiz-adv-x="1062" d="M143 25v1114q0 10 7 17t18 7h506q148 0 248 -108.5t100 -280.5q0 -171 -100 -278t-248 -107h-299v-364q0 -11 -7.5 -18t-17.5 -7h-182q-10 0 -17.5 7t-7.5 18zM375 604h278q59 0 98.5 43.5t39.5 124.5q0 82 -39 124t-99 42h-278v-334z" />
<glyph unicode="Q" horiz-adv-x="1372" d="M92 584q0 161 79.5 298t216.5 216.5t298 79.5t298 -79.5t216.5 -216.5t79.5 -298q0 -213 -134 -376t-337 -206q-6 -15 -6 -35q0 -42 19.5 -74t68.5 -32q41 0 61 2q4 2 11 2q10 0 14 -4l39 -123q0 -6 -6 -12q-51 -31 -144 -31q-121 0 -192 73.5t-72 227.5 q-218 31 -364 198t-146 390zM324 578q0 -162 101 -272.5t259 -110.5t261.5 110.5t103.5 272.5t-103.5 273.5t-261.5 111.5q-157 0 -258.5 -111.5t-101.5 -273.5z" />
<glyph unicode="R" horiz-adv-x="1128" d="M143 25v1114q0 10 7 17t18 7h524q147 0 247.5 -104.5t100.5 -263.5q0 -117 -58.5 -208.5t-154.5 -133.5l220 -428q0 -11 -7.5 -18t-17.5 -7h-215q-21 0 -33 25l-205 401h-194v-401q0 -11 -7.5 -18t-17.5 -7h-182q-10 0 -17.5 7t-7.5 18zM375 639h301q57 0 95 42.5 t38 111.5t-38 113t-95 44h-301v-311z" />
<glyph unicode="S" horiz-adv-x="1034" d="M113 844q0 158 107 246t304 88q153 0 342 -80q12 -8 17 -23q0 -10 -2 -14l-62 -139q-4 -15 -22 -15q-7 0 -15 4q-179 54 -252 54q-51 0 -88.5 -11.5t-55.5 -26.5t-28.5 -36.5t-12 -33t-1.5 -23.5q0 -43 33.5 -75.5t86.5 -55t117.5 -44.5t129 -51t117.5 -67t86.5 -100 t33.5 -142q0 -90 -63.5 -163t-151.5 -109.5t-174 -36.5q-128 0 -225 19.5t-195 82.5q-12 12 -12 21q0 10 2 14l68 131q5 8 20 8q10 0 14 -2q119 -69 299 -69q74 0 131.5 35t57.5 85q0 39 -33.5 68t-87 50t-118 42t-129 50t-118 68t-87 103.5t-33.5 147.5z" />
<glyph unicode="T" horiz-adv-x="964" d="M61 977v162q0 10 7 17t18 7h793q11 0 17.5 -6.5t6.5 -17.5v-162q0 -11 -7 -18t-17 -7h-281v-927q0 -11 -7 -18t-18 -7h-182q-10 0 -17 7t-7 18v927h-281q-10 0 -17.5 7t-7.5 18z" />
<glyph unicode="U" horiz-adv-x="1265" d="M143 514v625q0 10 7 17t18 7h182q11 0 18 -7t7 -17v-625q0 -164 59.5 -241.5t198.5 -77.5t198.5 77.5t59.5 241.5v625q0 11 6.5 17.5t17.5 6.5h183q10 0 17 -6.5t7 -17.5v-625q0 -247 -125 -385.5t-366 -138.5q-239 0 -363.5 139t-124.5 385z" />
<glyph unicode="V" horiz-adv-x="1245" d="M41 1139q0 10 7 17t18 7h198q21 0 33 -24l326 -678l325 678q12 24 33 24h199q10 0 17 -6.5t7 -17.5l-551 -1129q-14 -14 -30 -14q-17 0 -31 14z" />
<glyph unicode="W" horiz-adv-x="1560" d="M41 1139q0 10 7 17t18 7h188q21 0 33 -24l207 -596l245 551q15 22 41 22t41 -22l248 -551l205 596q12 24 33 24h188q11 0 18 -7t7 -17l-375 -1129q-14 -14 -31 -14t-31 14l-280 559q-12 19 -23 19q-7 0 -10.5 -3t-11.5 -16l-281 -559q-14 -14 -31 -14q-16 0 -30 14z" />
<glyph unicode="X" horiz-adv-x="1155" d="M41 25l371 561l-359 553q0 10 7 17t18 7h219q21 0 33 -24l248 -387l247 387q12 24 33 24h219q11 0 18 -7t7 -17l-359 -553l371 -561q0 -11 -7 -18t-17 -7h-213q-11 0 -22.5 7.5t-16.5 17.5l-260 389l-261 -389q-13 -25 -38 -25h-213q-10 0 -17.5 7t-7.5 18z" />
<glyph unicode="Y" horiz-adv-x="1165" d="M41 1139q0 10 7 17t18 7h213q20 0 32 -24l277 -451l266 451q12 24 33 24h213q10 0 17 -6.5t7 -17.5l-419 -703v-411q0 -11 -7.5 -18t-17.5 -7h-182q-10 0 -17.5 7t-7.5 18v409z" />
<glyph unicode="Z" horiz-adv-x="995" d="M61 20q0 7 2 11l512 921h-483q-10 0 -17 7t-7 18v162q0 11 7 17.5t17 6.5h819q9 0 16 -5.5t7 -14.5q0 -6 -2 -10l-510 -926h487q11 0 18 -7.5t7 -17.5v-157q0 -11 -7 -18t-18 -7h-825q-9 0 -16 5.5t-7 14.5z" />
<glyph unicode="[" horiz-adv-x="704" d="M143 -326v1764q0 10 7 17t18 7h369q11 0 17.5 -7t6.5 -17v-158q0 -11 -7 -18t-17 -7h-162v-1398h162q10 0 17 -7t7 -18v-158q0 -10 -6.5 -17t-17.5 -7h-369q-11 0 -18 7t-7 17z" />
<glyph unicode="\" horiz-adv-x="1120" d="M143 1343q0 11 7.5 18t17.5 7h182q20 0 33 -25l594 -1576q0 -11 -7.5 -18t-17.5 -7h-182q-20 0 -33 25z" />
<glyph unicode="]" horiz-adv-x="704" d="M143 -168q0 10 7.5 17.5t17.5 7.5h162v1398h-162q-10 0 -17.5 7.5t-7.5 17.5v158q0 10 7 17t18 7h369q11 0 17.5 -7t6.5 -17v-1764q0 -10 -6.5 -17t-17.5 -7h-369q-11 0 -18 7t-7 17v158z" />
<glyph unicode="^" horiz-adv-x="894" d="M143 784l187 369q7 10 18 10h201q11 0 18 -10l185 -369q0 -10 -7 -17t-18 -7h-182q-23 0 -35 24l-61 162l-64 -162q-12 -24 -35 -24h-182q-11 0 -18 7t-7 17z" />
<glyph unicode="_" d="M143 -35q0 11 7.5 18t17.5 7h610q10 0 17.5 -7t7.5 -18v-162q0 -10 -7 -17t-18 -7h-610q-11 0 -18 7t-7 17v162z" />
<glyph unicode="`" horiz-adv-x="671" d="M143 1139q0 10 7 17t18 7h215q11 0 18 -7t7 -17l120 -334q0 -11 -7 -18t-17 -7h-117q-20 0 -37 25z" />
<glyph unicode="a" horiz-adv-x="923" d="M82 254q0 129 78 194.5t211 65.5q124 0 186 -45q0 80 -36.5 114.5t-125.5 34.5q-124 0 -180 -22q-2 -2 -8 -2q-14 0 -21 16l-49 121q-6 15 -6 23q0 12 4 18q137 57 273 57q194 0 288.5 -96.5t94.5 -273.5v-434q0 -11 -7.5 -18t-17.5 -7h-125q-24 0 -33 25l-10 63 q-66 -98 -223 -98q-33 0 -65.5 4t-76 20.5t-75 43.5t-54 77.5t-22.5 118.5zM291 270q0 -90 141 -90q12 0 31 2.5t48.5 14.5t47.5 30v62q-16 27 -40.5 40t-80.5 13q-147 0 -147 -72z" />
<glyph unicode="b" horiz-adv-x="1054" d="M143 25v1114q0 10 7 17t18 7h182q11 0 18 -7t7 -17v-404q79 94 219 94q167 0 278 -120.5t111 -294.5t-108.5 -299t-268.5 -125q-80 0 -164.5 33t-115.5 94l-9 -92q-9 -25 -32 -25h-117q-10 0 -17.5 7t-7.5 18zM375 412q0 -92 56.5 -154.5t135.5 -62.5q77 0 131 63t54 154 t-53.5 148.5t-131.5 57.5q-79 0 -135.5 -57.5t-56.5 -148.5z" />
<glyph unicode="c" horiz-adv-x="866" d="M72 414q0 171 126.5 293t301.5 122q200 0 299 -96q6 -9 6 -22q0 -11 -8 -19l-90 -119q-6 -6 -15 -6q-10 0 -30 13q-42 34 -164 34q-83 0 -139 -55t-56 -147q0 -93 57 -155t138 -62q32 0 52.5 1.5t54 12t57.5 31.5q18 12 30 12q9 0 15 -6l88 -111q8 -8 8 -18q0 -14 -6 -23 q-94 -104 -297 -104q-174 0 -301 126t-127 298z" />
<glyph unicode="d" horiz-adv-x="1054" d="M72 414q0 174 111 294.5t278 120.5q140 0 219 -94v404q0 10 7 17t18 7h182q11 0 17.5 -6.5t6.5 -17.5v-1114q0 -11 -7 -18t-17 -7h-117q-24 0 -33 25l-8 92q-31 -61 -115.5 -94t-164.5 -33q-160 0 -268.5 125t-108.5 299zM303 412q0 -91 53.5 -154t130.5 -63 q79 0 136 62.5t57 154.5q0 91 -57 148.5t-136 57.5q-78 0 -131 -57.5t-53 -148.5z" />
<glyph unicode="e" horiz-adv-x="935" d="M72 403q0 87 23.5 162.5t70 135t124 94t177.5 34.5q174 0 285.5 -108t111.5 -299q0 -14 -1 -26.5t-1 -30.5q0 -11 -7 -18t-17 -7h-533q0 -48 21 -82t54.5 -49t61.5 -21t56 -6q51 0 107.5 14.5t86.5 41.5q18 12 31 12q8 0 14 -6l62 -103q6 -6 6 -20t-6 -23 q-86 -108 -299 -108q-90 0 -165.5 24.5t-135.5 73t-93.5 129.5t-33.5 186zM305 485h334q0 35 -17.5 61.5t-44 40.5t-54 20.5t-52.5 6.5q-36 0 -71.5 -11.5t-65 -42t-29.5 -75.5z" />
<glyph unicode="f" horiz-adv-x="714" d="M41 643v162q0 10 7 17t18 7h139v64q0 206 70 296.5t219 90.5q110 0 188 -49q12 -12 12 -21q0 -10 -2 -14l-47 -131q-5 -8 -20 -8q-11 0 -15 2q-21 16 -82 16q-55 0 -73.5 -43t-18.5 -139v-64h203q11 0 18 -7t7 -17v-162q0 -11 -7 -18t-18 -7h-203v-593q0 -11 -7 -18 t-17 -7h-183q-10 0 -17 7t-7 18v593h-139q-10 0 -17.5 7t-7.5 18z" />
<glyph unicode="g" horiz-adv-x="1054" d="M72 414q0 174 111 294.5t278 120.5q71 0 130.5 -20t125.5 -82l22 68q9 24 29 24h119q11 0 17.5 -6.5t6.5 -17.5v-789q0 -105 -34.5 -187t-92.5 -129.5t-125 -71.5t-139 -24q-120 0 -196 20.5t-142 78.5q-10 10 -10 20q0 9 6 15l64 125q10 10 22 10q4 0 12 -4 q38 -27 83 -41.5t72 -16.5t69 -2q101 0 139 43.5t43 130.5v103q-68 -86 -233 -86q-160 0 -268.5 125t-108.5 299zM303 412q0 -91 53.5 -154t130.5 -63q79 0 136 62.5t57 154.5q0 91 -57 148.5t-136 57.5q-78 0 -131 -57.5t-53 -148.5z" />
<glyph unicode="h" horiz-adv-x="1032" d="M143 25v1114q0 10 7 17t18 7h178q20 0 29 -24v-371q39 29 76 43t59.5 16t64.5 2q164 0 249 -104.5t85 -261.5v-438q0 -11 -7 -18t-17 -7h-183q-10 0 -17 7t-7 18v409q0 35 -2.5 58.5t-11.5 49t-25.5 41t-46.5 25.5t-72 10q-73 0 -109 -51.5t-36 -132.5v-409 q0 -11 -7.5 -18t-17.5 -7h-182q-10 0 -17.5 7t-7.5 18z" />
<glyph unicode="i" horiz-adv-x="518" d="M125 1040q0 57 39 97.5t94 40.5q57 0 97 -40.5t40 -97.5q0 -55 -40 -94t-97 -39q-56 0 -94.5 38.5t-38.5 94.5zM143 25v770q0 10 7 17t18 7h182q11 0 18 -7t7 -17v-770q0 -11 -7.5 -18t-17.5 -7h-182q-10 0 -17.5 7t-7.5 18z" />
<glyph unicode="j" horiz-adv-x="518" d="M-106 -334q0 11 2 15l43 124q6 9 20 9q10 0 14 -2q34 -13 105 -13q39 0 52 37t13 152v807q0 10 7 17t18 7h182q11 0 18 -7t7 -17v-830q0 -111 -18 -185t-56 -114.5t-86.5 -56t-118.5 -15.5q-63 0 -99.5 8.5t-90.5 43.5q-12 12 -12 20zM125 1040q0 57 39 97.5t94 40.5 q57 0 97 -40.5t40 -97.5q0 -55 -40 -94t-97 -39q-56 0 -94.5 38.5t-38.5 94.5z" />
<glyph unicode="k" horiz-adv-x="937" d="M143 25v1114q0 10 7 17t18 7h182q11 0 18 -7t7 -17v-672l246 328q16 24 32 24h219q11 0 18 -7t7 -17l-283 -369l283 -401q0 -11 -7.5 -18t-17.5 -7h-213q-25 0 -38 25l-246 344v-344q0 -11 -7.5 -18t-17.5 -7h-182q-10 0 -17.5 7t-7.5 18z" />
<glyph unicode="l" horiz-adv-x="518" d="M143 25v1114q0 10 7 17t18 7h182q11 0 18 -7t7 -17v-1114q0 -11 -7.5 -18t-17.5 -7h-182q-10 0 -17.5 7t-7.5 18z" />
<glyph unicode="m" horiz-adv-x="1382" d="M143 25v770q0 10 7 17t18 7h111q19 0 28 -24l12 -68q68 102 224 102q60 0 116.5 -29.5t88.5 -78.5q68 108 237 108q124 0 199.5 -99.5t75.5 -248.5v-456q0 -11 -7 -18t-18 -7h-182q-11 0 -18 7t-7 18v440q0 153 -96 153q-44 0 -77.5 -28.5t-37.5 -71.5q2 -18 2 -55v-438 q0 -11 -7 -18t-17 -7h-183q-10 0 -17 7t-7 18v409q0 184 -96 184q-58 0 -87.5 -51.5t-29.5 -132.5v-409q0 -11 -7.5 -18t-17.5 -7h-182q-10 0 -17.5 7t-7.5 18z" />
<glyph unicode="n" horiz-adv-x="1032" d="M143 25v770q0 10 7 17t18 7h113q19 0 28 -24l10 -68q66 62 125.5 82t130.5 20q164 0 249 -104.5t85 -261.5v-438q0 -11 -7 -18t-17 -7h-183q-10 0 -17 7t-7 18v409q0 35 -2.5 58.5t-11.5 49t-25.5 41t-46.5 25.5t-72 10q-73 0 -109 -51.5t-36 -132.5v-409q0 -11 -7.5 -18 t-17.5 -7h-182q-10 0 -17.5 7t-7.5 18z" />
<glyph unicode="o" horiz-adv-x="983" d="M72 414q0 171 126.5 293t301.5 122q168 0 289.5 -122t121.5 -293q0 -172 -122 -298t-289 -126q-174 0 -301 126t-127 298zM303 412q0 -93 57 -155t138 -62q75 0 128.5 62.5t53.5 154.5q0 91 -53 146.5t-129 55.5q-83 0 -139 -55t-56 -147z" />
<glyph unicode="p" horiz-adv-x="1054" d="M143 -326v1121q0 10 7 17t18 7h119q19 0 28 -24l23 -68q66 62 125.5 82t130.5 20q167 0 278 -120.5t111 -294.5t-108.5 -299t-268.5 -125q-57 0 -122 17t-109 50v-383q0 -10 -7 -17t-18 -7h-182q-11 0 -18 7t-7 17zM375 412q0 -92 56.5 -154.5t135.5 -62.5q77 0 131 63 t54 154t-53.5 148.5t-131.5 57.5q-79 0 -135.5 -57.5t-56.5 -148.5z" />
<glyph unicode="q" horiz-adv-x="1054" d="M72 414q0 174 111 294.5t278 120.5q71 0 130.5 -20t125.5 -82l22 68q9 24 29 24h119q11 0 17.5 -6.5t6.5 -17.5v-1121q0 -10 -6.5 -17t-17.5 -7h-182q-11 0 -18 7t-7 17v383q-44 -33 -109 -50t-122 -17q-160 0 -268.5 125t-108.5 299zM303 412q0 -91 53.5 -154t130.5 -63 q79 0 136 62.5t57 154.5q0 91 -57 148.5t-136 57.5q-78 0 -131 -57.5t-53 -148.5z" />
<glyph unicode="r" horiz-adv-x="655" d="M143 25v770q0 10 7 17t18 7h111q19 0 28 -24l12 -68q60 55 114 77t116 25h61q11 0 18 -7t7 -17v-162q0 -11 -7.5 -18t-17.5 -7h-61q-100 -6 -137 -54t-37 -130v-409q0 -11 -7.5 -18t-17.5 -7h-182q-10 0 -17.5 7t-7.5 18z" />
<glyph unicode="s" horiz-adv-x="825" d="M92 88q0 4 2 8l43 140q3 6 15 6q6 0 10 -2q116 -60 239 -60q36 0 72.5 12t36.5 39q0 22 -22.5 37.5t-59 26.5t-80.5 23t-88 31.5t-80.5 47.5t-59 76.5t-22.5 112.5q0 119 91.5 181t238.5 62q67 0 136.5 -16t111.5 -33q7 -3 12 -14q0 -8 -2 -10l-43 -152q-3 -10 -16 -10 q-1 0 -5 1t-6 1q-89 29 -198 29q-56 0 -72 -11.5t-16 -35.5q0 -26 42.5 -46t102.5 -38t120.5 -43.5t103 -77t42.5 -123.5q0 -58 -20 -103.5t-52.5 -74.5t-77.5 -48t-91 -26.5t-97 -7.5q-177 0 -301 80q-10 10 -10 18z" />
<glyph unicode="t" horiz-adv-x="733" d="M51 643v162q0 10 7 17t18 7h139v310q0 10 7 17t18 7h182q10 0 17 -6.5t7 -17.5v-310h177q11 0 17.5 -6.5t6.5 -17.5v-162q0 -11 -7 -18t-17 -7h-177v-235q0 -120 13.5 -154t64.5 -34q37 0 64 4q4 2 14 2q6 0 14 -5.5t9 -11.5l32 -139q2 -4 2 -14q0 -5 -2.5 -10t-5.5 -8 t-4 -3q-41 -14 -67 -17t-86 -3q-69 0 -118.5 16.5t-86.5 55.5t-55.5 107.5t-18.5 168.5v280h-139q-10 0 -17.5 7t-7.5 18z" />
<glyph unicode="u" horiz-adv-x="1032" d="M123 356v439q0 11 6.5 17.5t17.5 6.5h183q10 0 17 -6.5t7 -17.5v-416q0 -35 2.5 -58.5t11.5 -49t25.5 -41t46.5 -25.5t72 -10q73 0 109 51.5t36 132.5v416q0 10 7 17t18 7h182q11 0 18 -7t7 -17v-770q0 -11 -7.5 -18t-17.5 -7h-114q-20 0 -29 25l-8 67 q-66 -62 -125.5 -82t-130.5 -20q-164 0 -249 104.5t-85 261.5z" />
<glyph unicode="v" horiz-adv-x="888" d="M31 795q0 11 6.5 17.5t17.5 6.5h195q21 0 33 -24l161 -367l162 367q12 24 33 24h195q10 0 17 -6.5t7 -17.5l-383 -791q-14 -14 -31 -14q-16 0 -30 14z" />
<glyph unicode="w" horiz-adv-x="1269" d="M51 795q0 10 7 17t18 7h170q21 0 33 -24l131 -359l184 371q11 22 41 22t41 -22l186 -371l129 359q12 24 33 24h170q11 0 18 -7t7 -17l-285 -785q-14 -14 -31 -14t-31 14l-215 396q-8 12 -11.5 15t-10.5 3q-12 0 -23 -18l-211 -396q-14 -14 -30 -14q-17 0 -31 14z" />
<glyph unicode="x" horiz-adv-x="909" d="M57 25l232 370l-232 400q0 10 7 17t18 7h219q21 0 33 -24l121 -234l120 234q12 24 33 24h219q11 0 18 -7t7 -17l-231 -400l231 -370q0 -11 -7 -18t-18 -7h-213q-26 0 -39 25l-120 198l-121 -198q-5 -10 -16.5 -17.5t-22.5 -7.5h-213q-10 0 -17.5 7t-7.5 18z" />
<glyph unicode="y" horiz-adv-x="919" d="M61 795q0 10 7 17t18 7h195q20 0 32 -24l162 -342l162 342q12 24 33 24h194q11 0 18 -7t7 -17l-541 -1121q-12 -24 -33 -24h-198q-11 0 -18 7t-7 17l256 527z" />
<glyph unicode="z" horiz-adv-x="849" d="M82 633v162q0 11 7 17.5t17 6.5h637q9 0 16 -5.5t7 -14.5q0 -7 -2 -11l-320 -581h299q11 0 18 -7.5t7 -17.5v-157q0 -11 -7 -18t-18 -7h-637q-9 0 -15.5 5.5t-6.5 14.5q0 7 2 11l322 577h-302q-10 0 -17 7t-7 18z" />
<glyph unicode="{" horiz-adv-x="870" d="M143 475v164q0 11 7.5 18t17.5 7q55 0 94 39.5t39 93.5v317q0 100 18.5 168.5t55.5 107.5t86.5 55.5t118.5 16.5h122q11 0 18 -7t7 -17v-156q0 -10 -7.5 -17.5t-17.5 -7.5h-92q-51 0 -64.5 -34t-13.5 -154v-272q0 -141 -96 -240q96 -99 96 -240v-276q0 -120 13.5 -154 t64.5 -34h92q10 0 17.5 -7.5t7.5 -17.5v-156q0 -10 -7 -17t-18 -7h-122q-69 0 -118.5 16.5t-86.5 55.5t-55.5 107.5t-18.5 168.5v321q0 54 -39 94t-94 40q-11 0 -18 7t-7 17z" />
<glyph unicode="|" horiz-adv-x="518" d="M143 -328v1766q0 10 7 17t18 7h182q11 0 18 -7t7 -17v-1766q0 -10 -7 -17t-18 -7h-182q-11 0 -18 7t-7 17z" />
<glyph unicode="}" horiz-adv-x="870" d="M143 -172q0 10 7.5 17.5t17.5 7.5h92q51 0 64.5 34t13.5 154v276q0 141 96 240q-96 99 -96 240v272q0 120 -13.5 154t-64.5 34h-92q-10 0 -17.5 7.5t-7.5 17.5v156q0 10 7 17t18 7h123q69 0 118 -16.5t86.5 -55.5t55.5 -107.5t18 -168.5v-317q0 -54 39 -93.5t94 -39.5 q10 0 17.5 -7t7.5 -18v-164q0 -10 -7 -17t-18 -7q-55 0 -94 -40t-39 -94v-321q0 -100 -18 -168.5t-55.5 -107.5t-86.5 -55.5t-118 -16.5h-123q-11 0 -18 7t-7 17v156z" />
<glyph unicode="~" horiz-adv-x="901" d="M143 418q0 14 15 22q38 26 57 37.5t51 23t64 11.5q45 0 78.5 -11t49.5 -24t41.5 -24t57.5 -11q64 0 115 39q4 2 10 2q12 0 20 -12l54 -133q0 -1 1 -3t1 -3q0 -16 -15 -23q-39 -26 -62 -39.5t-58 -26t-68 -12.5q-45 0 -116 35t-109 35q-57 0 -101 -33q-4 -2 -10 -2 q-11 0 -20 13l-54 133q0 1 -1 3t-1 3z" />
<glyph unicode="&#xa1;" horiz-adv-x="532" d="M143 1040q0 52 35.5 87.5t87.5 35.5t87.5 -35.5t35.5 -87.5t-35 -87t-88 -35t-88 35t-35 87zM150 14l26 797q0 11 7 18t18 7h125q10 0 17 -7t7 -18l31 -797q0 -10 -7 -17t-18 -7h-182q-10 0 -17 7t-7 17z" />
<glyph unicode="&#xa2;" horiz-adv-x="1345" d="M143 575q0 209 130.5 371t328.5 207v154q0 10 7 17t18 7h182q11 0 18 -7t7 -17v-146q192 -30 323 -164q8 -12 8 -20q0 -11 -8 -19l-117 -112q-6 -6 -14 -6q-12 0 -22 10q-113 104 -269 104q-157 0 -258.5 -111.5t-101.5 -273.5t101 -272.5t259 -110.5q94 0 175 41 t139 111q10 10 22 10q8 0 14 -6l109 -106q8 -8 8 -19q0 -8 -8 -20q-67 -80 -160.5 -134t-199.5 -73v-150q0 -10 -7 -17t-18 -7h-182q-11 0 -18 7t-7 17v158q-199 46 -329 207t-130 370z" />
<glyph unicode="&#xa3;" horiz-adv-x="1263" d="M143 459v162q0 10 7 17t18 7h143v127q0 170 126 288t302 118q84 0 172 -31t142 -84q6 -9 6 -23q0 -10 -8 -18l-117 -113q-6 -6 -14 -6q-13 0 -31 12q-23 22 -69 35t-83 13q-82 0 -138 -55.5t-56 -147.5v-115h235q11 0 18 -7t7 -17v-162q0 -11 -7.5 -18t-17.5 -7h-235 v-227h553q10 0 17 -7t7 -18v-157q0 -11 -7 -18t-17 -7h-918q-10 0 -17 7t-7 18v163q0 11 7 18t17 7q52 0 90 36t43 87v98h-143q-10 0 -17.5 7t-7.5 18z" />
<glyph unicode="&#xa4;" horiz-adv-x="1069" d="M143 229q0 8 7 15l110 100q-24 56 -24 121q0 67 24 123l-110 100q-7 7 -7 14q0 5 4 13l84 94q6 6 15 6q4 0 12 -4l109 -98q68 51 170 51q92 0 165 -51l109 98q8 4 12 4q9 0 15 -6l84 -94q4 -8 4 -13q0 -8 -6 -14l-113 -100q27 -62 27 -123q0 -63 -25 -121l111 -100 q6 -6 6 -15q0 -4 -4 -12l-84 -94q-6 -6 -15 -6q-4 0 -12 4l-109 96q-73 -49 -170 -49q-91 0 -165 49l-109 -96q-8 -4 -12 -4q-9 0 -15 6l-84 94q-4 8 -4 12zM416 465q0 -49 35.5 -83t83.5 -34t83 34t35 83t-35 84t-83 35t-83.5 -35t-35.5 -84z" />
<glyph unicode="&#xa5;" horiz-adv-x="1370" d="M143 1139q0 10 7 17t18 7h213q21 0 33 -24l276 -451l266 451q12 24 33 24h213q11 0 18 -7t7 -17l-289 -484h78q10 0 17 -6.5t7 -17.5v-162q0 -11 -7 -18t-17 -7h-205l-4 -8v-57h209q10 0 17 -7t7 -18v-161q0 -11 -7 -18t-17 -7h-209v-143q0 -11 -7.5 -18t-17.5 -7h-182 q-10 0 -17.5 7t-7.5 18v143h-210q-11 0 -18 7t-7 18v161q0 10 7 17.5t18 7.5h210v55l-6 10h-204q-11 0 -18 7t-7 18v162q0 10 7 17t18 7h75z" />
<glyph unicode="&#xa6;" horiz-adv-x="518" d="M143 262q0 10 7.5 17.5t17.5 7.5h182q10 0 17.5 -7.5t7.5 -17.5v-590q0 -10 -7 -17t-18 -7h-182q-11 0 -18 7t-7 17v590zM143 854v586q0 10 7 17t18 7h182q11 0 18 -7t7 -17v-586q0 -10 -7.5 -17.5t-17.5 -7.5h-182q-10 0 -17.5 7.5t-7.5 17.5z" />
<glyph unicode="&#xa7;" horiz-adv-x="1107" d="M143 16q0 5 2 9l43 139q3 6 15 6q6 0 10 -2q114 -59 240 -59q36 0 72 12t36 39q0 22 -22.5 37.5t-59 26.5t-80 22.5t-87.5 31t-80.5 47.5t-59 76.5t-22.5 112.5q0 171 182 225q-10 38 -10 82q0 120 91 182t238 62q67 0 136.5 -16t111.5 -33q6 -3 12 -15q0 -8 -2 -10 l-43 -151q-4 -11 -16 -11q-1 0 -4.5 1t-5.5 1q-89 29 -199 29q-56 0 -72 -11.5t-16 -35.5q0 -22 30.5 -40t76.5 -30.5t99 -33t99 -45.5t76.5 -71.5t30.5 -107.5q0 -177 -185 -237q13 -32 13 -70q0 -58 -20 -103.5t-52.5 -74.5t-77.5 -48t-91 -26.5t-97 -7.5q-177 0 -301 80 q-11 11 -11 18zM381 506q0 -35 76 -62q90 -28 168 -28q36 0 72 12t36 39q0 34 -65 57q-89 29 -199 29q-56 0 -72 -11.5t-16 -35.5z" />
<glyph unicode="&#xa8;" horiz-adv-x="858" d="M143 1040q0 52 35.5 87.5t87.5 35.5t87.5 -35.5t35.5 -87.5t-35 -87t-88 -35t-88 35t-35 87zM469 1040q0 52 35.5 87.5t87.5 35.5t87.5 -35.5t35.5 -87.5t-35 -87t-88 -35t-88 35t-35 87z" />
<glyph unicode="&#xa9;" horiz-adv-x="1460" d="M143 575q0 160 78.5 295.5t213.5 214t294 78.5q160 0 295.5 -78.5t214 -214t78.5 -295.5q0 -159 -78.5 -294t-214 -213t-295.5 -78q-159 0 -294 78t-213.5 213t-78.5 294zM254 575q0 -92 39.5 -179.5t104 -152t152 -104t179.5 -39.5q93 0 181 39.5t152.5 104t104 152 t39.5 179.5q0 124 -66 234.5t-176.5 177t-234.5 66.5q-123 0 -233 -66.5t-176 -177t-66 -234.5zM401 578q0 136 99.5 231.5t238.5 95.5q67 0 136 -24.5t110 -65.5q6 -6 6 -18q0 -7 -6 -13l-92 -90q-2 -4 -12 -4q-13 0 -23 10q-19 16 -54.5 25.5t-66.5 9.5q-65 0 -109 -43 t-44 -117q0 -71 44.5 -120t108.5 -49q32 0 67 9.5t54 26.5q15 11 23 11t12 -4l92 -82q6 -6 6 -15t-6 -18q-42 -40 -111 -65t-135 -25q-138 0 -238 99.5t-100 234.5z" />
<glyph unicode="&#xaa;" horiz-adv-x="798" d="M143 735q0 96 58 144.5t157 48.5q93 0 140 -33q0 60 -27.5 85.5t-93.5 25.5q-87 0 -135 -17q0 -2 -6 -2q-10 0 -15 12l-39 82q-4 16 -4 17q0 8 4 14q65 35 101 43t102 8q144 0 207 -70.5t63 -205.5v-322q0 -18 -18 -18h-78q-18 0 -24 18l-9 47q-46 -73 -166 -73 q-24 0 -48 3t-56.5 15.5t-56 32.5t-40 57.5t-16.5 87.5zM299 748q0 -68 104 -68q9 0 23 2t36.5 10.5t35.5 22.5v47q-23 39 -90 39q-109 0 -109 -53z" />
<glyph unicode="&#xab;" horiz-adv-x="1202" d="M143 416l164 393q13 25 33 25h192q9 0 16 -6t7 -15q0 -6 -2 -10l-172 -389l170 -383q2 -4 2 -11q0 -9 -7 -14.5t-16 -5.5h-192q-20 0 -33 25l-160 381q-2 4 -2 10zM647 416l164 393q13 25 33 25h192q9 0 16 -6t7 -15q0 -6 -2 -10l-172 -389l170 -383q2 -4 2 -11 q0 -9 -7 -14.5t-16 -5.5h-192q-20 0 -33 25l-160 381q-2 4 -2 10z" />
<glyph unicode="&#xac;" d="M143 324v161q0 11 7.5 18t17.5 7h610q10 0 17.5 -7t7.5 -18v-374q0 -11 -7.5 -18t-17.5 -7h-182q-10 0 -17.5 7t-7.5 18v188h-403q-10 0 -17.5 7.5t-7.5 17.5z" />
<glyph unicode="&#xad;" horiz-adv-x="405" />
<glyph unicode="&#xae;" horiz-adv-x="1460" d="M143 575q0 160 78.5 295.5t213.5 214t294 78.5q160 0 295.5 -78.5t214 -214t78.5 -295.5q0 -159 -78.5 -294t-214 -213t-295.5 -78q-159 0 -294 78t-213.5 213t-78.5 294zM254 575q0 -92 39.5 -179.5t104 -152t152 -104t179.5 -39.5q93 0 181 39.5t152.5 104t104 152 t39.5 179.5q0 124 -66 234.5t-176.5 177t-234.5 66.5q-123 0 -233 -66.5t-176 -177t-66 -234.5zM477 256v643q0 14 15 14h229q274 0 274 -243q0 -68 -34 -122t-89 -79l127 -213q0 -14 -14 -14h-145q-16 0 -19 14l-98 197h-64v-197q0 -14 -14 -14h-153q-15 0 -15 14zM659 621 h78q37 0 56.5 11.5t19.5 47.5t-20 49.5t-56 13.5h-78v-122z" />
<glyph unicode="&#xaf;" d="M143 977v162q0 10 7 17t18 7h610q11 0 18 -7t7 -17v-162q0 -11 -7.5 -18t-17.5 -7h-610q-10 0 -17.5 7t-7.5 18z" />
<glyph unicode="&#xb0;" horiz-adv-x="874" d="M143 870q0 121 87.5 207t209.5 86q119 0 205 -86t86 -207q0 -120 -86.5 -207.5t-204.5 -87.5q-121 0 -209 87.5t-88 207.5zM332 870q0 -52 31.5 -86t76.5 -34q41 0 72 34.5t31 85.5q0 49 -30.5 79t-72.5 30q-46 0 -77 -29t-31 -80z" />
<glyph unicode="&#xb1;" d="M143 25q0 -11 7.5 -18t17.5 -7h610q10 0 17.5 7t7.5 18v161q0 10 -7.5 17.5t-17.5 7.5h-610q-10 0 -17.5 -7.5t-7.5 -17.5v-161zM143 520v162q0 10 7.5 17.5t17.5 7.5h201v200q0 11 7 18t17 7h162q11 0 18 -7t7 -18v-200h198q10 0 17.5 -7.5t7.5 -17.5v-162q0 -10 -7 -17 t-18 -7h-198v-199q0 -11 -7 -18t-18 -7h-162q-10 0 -17 7t-7 18v199h-201q-11 0 -18 7t-7 17z" />
<glyph unicode="&#xb2;" horiz-adv-x="720" d="M143 561v49q0 48 27.5 96t66.5 84.5t77.5 67.5t66 55.5t27.5 38.5q0 35 -84 35q-59 0 -127 -33q-4 -4 -7 -4q-8 0 -12 11l-33 135q-2 0 -2 6q3 8 11 12q27 17 83 33t107 16q231 0 231 -209q0 -32 -11 -59t-43 -61t-61.5 -59.5t-94.5 -78.5h198q15 0 15 -14v-121 q0 -5 -4.5 -8.5t-10.5 -3.5h-407q-5 0 -9 4t-4 8z" />
<glyph unicode="&#xb3;" horiz-adv-x="712" d="M143 612q0 5 4 9l41 112q2 2 9 2q90 -39 139 -39q45 0 60.5 15.5t15.5 56.5q0 24 -11.5 39t-35 20.5t-39.5 7t-45 1.5q-27 0 -41 -2q-7 0 -7 6l74 147h-151q-5 0 -9 4t-4 10v150q0 4 4 8t9 4h397q12 0 12 -10q0 -4 -2 -6l-102 -205q56 -16 82 -70t26 -120 q0 -97 -58.5 -155t-176.5 -58q-47 0 -103.5 17t-85.5 44q-2 2 -2 12z" />
<glyph unicode="&#xb4;" horiz-adv-x="628" d="M143 893l119 246q12 24 25 24h174q11 0 17.5 -6.5t6.5 -17.5l-163 -246q-17 -25 -37 -25h-117q-10 0 -17.5 7t-7.5 18z" />
<glyph unicode="&#xb5;" horiz-adv-x="1032" d="M123 -326v1121q0 11 6.5 17.5t17.5 6.5h183q10 0 17 -6.5t7 -17.5v-404q0 -35 2.5 -59.5t11.5 -52t25.5 -44.5t46.5 -28.5t72 -11.5q73 0 109 51.5t36 132.5v416q0 10 7 17t18 7h182q11 0 18 -7t7 -17v-770q0 -11 -7.5 -18t-17.5 -7h-114q-20 0 -29 25l-8 67 q-47 -60 -93 -81t-110 -21q-35 0 -83.5 19t-72.5 52v-387q0 -10 -7 -17t-17 -7h-183q-11 0 -17.5 7t-6.5 17z" />
<glyph unicode="&#xb6;" horiz-adv-x="1284" d="M143 731q0 165 109.5 287.5t271.5 144.5h592q11 0 18 -7t7 -17v-1467q0 -10 -7 -17t-18 -7h-182q-11 0 -18 7t-7 17v1221h-159v-1221q0 -10 -7 -17t-18 -7h-182q-11 0 -18 7t-7 17v631q-161 23 -268 144.5t-107 283.5z" />
<glyph unicode="&#xb7;" horiz-adv-x="555" d="M143 397q0 57 38.5 96t94.5 39q57 0 96.5 -39t39.5 -96q0 -56 -39.5 -94.5t-96.5 -38.5q-56 0 -94.5 39t-38.5 94z" />
<glyph unicode="&#xb8;" horiz-adv-x="657" d="M143 -252q0 4 2 6l39 68q8 4 13 4q6 0 14 -4l11 -10q11 -9 17.5 -12t26.5 -9t47 -10q60 0 60 26q0 13 -18 26.5t-64.5 37t-50.5 25.5l10 98h145l-6 -39q66 -40 95.5 -74.5t29.5 -83.5q0 -69 -54 -102t-128 -33q-53 0 -92.5 16.5t-89.5 55.5z" />
<glyph unicode="&#xb9;" horiz-adv-x="604" d="M143 920v106q0 4 4 8t9 4q58 13 124.5 44.5t111 56t57.5 24.5q12 0 12 -10v-608q0 -5 -4 -10t-8 -5h-134q-12 0 -12 15v399q-75 -37 -149 -37q-11 0 -11 13z" />
<glyph unicode="&#xba;" horiz-adv-x="874" d="M143 870q0 121 87.5 207t209.5 86q119 0 205 -86t86 -207q0 -120 -86.5 -207.5t-204.5 -87.5q-121 0 -209 87.5t-88 207.5zM332 870q0 -52 31.5 -86t76.5 -34q41 0 72 34.5t31 85.5q0 49 -30.5 79t-72.5 30q-46 0 -77 -29t-31 -80z" />
<glyph unicode="&#xbb;" horiz-adv-x="1202" d="M143 813q0 9 7 15t16 6h192q20 0 33 -25l164 -393q0 -6 -2 -10l-160 -381q-13 -25 -33 -25h-192q-9 0 -16 5.5t-7 14.5q0 7 2 11l170 383l-172 389q-2 4 -2 10zM647 813q0 9 7 15t16 6h192q20 0 33 -25l164 -393q0 -6 -2 -10l-160 -381q-13 -25 -33 -25h-192 q-9 0 -16 5.5t-7 14.5q0 7 2 11l170 383l-172 389q-2 4 -2 10z" />
<glyph unicode="&#xbc;" horiz-adv-x="1431" d="M143 920v106q0 4 4 8t9 4q58 13 124.5 44.5t111 56t57.5 24.5q12 0 12 -10v-608q0 -5 -4 -10t-8 -5h-134q-12 0 -12 15v399q-75 -37 -149 -37q-11 0 -11 13zM375 25l420 1114q12 24 32 24h134q11 0 17.5 -6.5t6.5 -17.5l-420 -1114q-13 -25 -33 -25h-133q-10 0 -17 7 t-7 18zM809 113q0 -13 12 -13h273v-88q0 -12 14 -12h131q12 0 12 12v88h33q12 0 12 13v125q0 12 -12 12h-33v354q-3 10 -12 10h-184q-11 0 -13 -10l-219 -332q-4 -6 -9 -20.5t-5 -20.5v-118zM995 250l99 141v-141h-99z" />
<glyph unicode="&#xbd;" horiz-adv-x="1429" d="M143 920v106q0 4 4 8t9 4q58 13 124.5 44.5t111 56t57.5 24.5q12 0 12 -10v-608q0 -5 -4 -10t-8 -5h-134q-12 0 -12 15v399q-75 -37 -149 -37q-11 0 -11 13zM375 25l420 1114q12 24 32 24h134q11 0 17.5 -6.5t6.5 -17.5l-420 -1114q-13 -25 -33 -25h-133q-10 0 -17 7 t-7 18zM852 12q0 -4 4 -8t8 -4h408q14 0 14 12v121q0 14 -14 14h-199q123 100 167 150t44 109q0 208 -231 208q-51 0 -107.5 -16t-83.5 -33q-7 -4 -10 -12q0 -6 2 -6l33 -135q4 -11 12 -11q1 0 6 5q66 32 127 32q84 0 84 -35q0 -12 -19.5 -32t-49 -42t-63.5 -52.5t-63.5 -62 t-49 -72.5t-19.5 -81v-49z" />
<glyph unicode="&#xbe;" horiz-adv-x="1439" d="M143 612q0 5 4 9l41 112q2 2 9 2q90 -39 139 -39q45 0 60.5 15.5t15.5 56.5q0 24 -11.5 39t-35 20.5t-39.5 7t-45 1.5q-27 0 -41 -2q-7 0 -7 6l74 147h-151q-5 0 -9 4t-4 10v150q0 4 4 8t9 4h397q12 0 12 -10q0 -4 -2 -6l-102 -205q56 -16 82 -70t26 -120 q0 -97 -58.5 -155t-176.5 -58q-47 0 -103.5 17t-85.5 44q-2 2 -2 12zM424 25l420 1114q12 24 33 24h133q10 0 17 -6.5t7 -17.5l-420 -1114q-12 -25 -32 -25h-133q-11 0 -18 7t-7 18zM809 113q0 -13 12 -13h273v-88q0 -12 14 -12h131q12 0 12 12v88h33q12 0 12 13v125 q0 12 -12 12h-33v354q-3 10 -12 10h-184q-11 0 -13 -10l-219 -332q-4 -6 -9 -20.5t-5 -20.5v-118zM995 250l99 141v-141h-99z" />
<glyph unicode="&#xbf;" horiz-adv-x="974" d="M143 299q0 46 25.5 95.5t61.5 95l72 91t61.5 99t25.5 104.5v35q0 11 7.5 18t17.5 7h182q10 0 17.5 -7t7.5 -18v-45q0 -76 -25.5 -143.5t-61.5 -113.5t-72 -84.5t-61.5 -74t-25.5 -65.5q0 -40 39.5 -65t101.5 -25q55 0 115 15.5t100 37.5q8 4 14 4q19 0 23 -14l61 -140 q2 -4 2 -14q-5 -15 -16 -22q-128 -80 -305 -80q-101 0 -181.5 31t-133 102.5t-52.5 175.5zM383 1055q0 53 35.5 88t87.5 35t87.5 -35t35.5 -88t-35.5 -88t-87.5 -35t-87.5 35t-35.5 88z" />
<glyph unicode="&#xc0;" horiz-adv-x="1245" d="M41 25l551 1130q14 14 31 14q16 0 30 -14l551 -1130q0 -11 -7 -18t-17 -7h-199q-21 0 -33 25l-108 227h-434l-109 -227q-13 -25 -33 -25h-198q-10 0 -17.5 7t-7.5 18zM358 1579q0 11 7 18t18 7h174q13 0 25 -25l118 -246q0 -11 -7 -17.5t-17 -6.5h-117q-21 0 -37 24z M506 459h233l-116 243z" />
<glyph unicode="&#xc1;" horiz-adv-x="1245" d="M41 25l551 1130q14 14 31 14q16 0 30 -14l551 -1130q0 -11 -7 -18t-17 -7h-199q-21 0 -33 25l-108 227h-434l-109 -227q-13 -25 -33 -25h-198q-10 0 -17.5 7t-7.5 18zM506 459h233l-116 243zM545 1333l119 246q1 1 3 5.5t3 6.5t3 5t4 4.5t5 2.5t6 1h174q10 0 17.5 -7 t7.5 -18l-164 -246q-16 -24 -37 -24h-117q-11 0 -17.5 6.5t-6.5 17.5z" />
<glyph unicode="&#xc2;" horiz-adv-x="1245" d="M41 25l551 1130q14 14 31 14q16 0 30 -14l551 -1130q0 -11 -7 -18t-17 -7h-199q-21 0 -33 25l-108 227h-434l-109 -227q-13 -25 -33 -25h-198q-10 0 -17.5 7t-7.5 18zM360 1407q0 7 9 16l194 146q24 16 39 16h41q15 0 39 -16l195 -146q8 -8 8 -16q0 -4 -13 -21l-84 -86 q-3 -6 -10 -6q-4 0 -16 6l-139 115l-140 -115q-12 -6 -16 -6q-7 0 -10 6l-84 86q-13 17 -13 21zM506 459h233l-116 243z" />
<glyph unicode="&#xc3;" horiz-adv-x="1245" d="M41 25l551 1130q14 14 31 14q16 0 30 -14l551 -1130q0 -11 -7 -18t-17 -7h-199q-21 0 -33 25l-108 227h-434l-109 -227q-13 -25 -33 -25h-198q-10 0 -17.5 7t-7.5 18zM317 1495q0 15 15 23q37 25 56.5 37t51.5 23t64 11q45 0 78.5 -11t49.5 -23.5t41.5 -23.5t57.5 -11 q64 0 115 39q4 2 10 2q12 0 21 -13l53 -133q0 -1 1 -3t1 -3q0 -16 -14 -23q-57 -38 -99.5 -57.5t-89.5 -19.5q-45 0 -116 34.5t-109 34.5q-59 0 -101 -32q-6 -3 -10 -3q-11 0 -20 13l-54 133q0 1 -1 3t-1 3zM506 459h233l-116 243z" />
<glyph unicode="&#xc4;" horiz-adv-x="1245" d="M41 25l551 1130q14 14 31 14q16 0 30 -14l551 -1130q0 -11 -7 -18t-17 -7h-199q-21 0 -33 25l-108 227h-434l-109 -227q-13 -25 -33 -25h-198q-10 0 -17.5 7t-7.5 18zM334 1432q0 52 35 87t88 35t88 -35t35 -87t-35 -87.5t-88 -35.5t-88 35.5t-35 87.5zM506 459h233 l-116 243zM659 1432q0 52 35 87t88 35t88 -35t35 -87t-35.5 -87.5t-87.5 -35.5t-87.5 35.5t-35.5 87.5z" />
<glyph unicode="&#xc5;" horiz-adv-x="1245" d="M41 25l551 1130q14 14 31 14q16 0 30 -14l551 -1130q0 -11 -7 -18t-17 -7h-199q-21 0 -33 25l-108 227h-434l-109 -227q-13 -25 -33 -25h-198q-10 0 -17.5 7t-7.5 18zM391 1538q0 95 69 162t163 67q93 0 160 -67t67 -162q0 -92 -67.5 -160.5t-159.5 -68.5 q-94 0 -163 68.5t-69 160.5zM506 459h233l-116 243zM539 1538q0 -39 25 -66.5t59 -27.5q31 0 55 27.5t24 66.5q0 38 -23.5 62t-55.5 24q-35 0 -59.5 -23t-24.5 -63z" />
<glyph unicode="&#xc6;" horiz-adv-x="1847" d="M31 20l884 1129q14 14 31 14h764q11 0 18 -7t7 -17v-162q0 -11 -7.5 -18t-17.5 -7h-553v-284h438q11 0 18 -7t7 -18v-156q0 -10 -7 -17t-18 -7h-438v-252h553q10 0 17.5 -7.5t7.5 -17.5v-161q0 -11 -7.5 -18t-17.5 -7h-760q-10 0 -17 7t-7 18v266h-396l-208 -271 q-19 -24 -54 -24h-213q-11 0 -17.5 7t-6.5 17zM690 496h236v303z" />
<glyph unicode="&#xc7;" horiz-adv-x="1222" d="M92 584q0 161 79.5 298t216.5 216.5t298 79.5q121 0 230 -45.5t190 -126.5q8 -12 8 -21q0 -10 -8 -18l-117 -113q-6 -6 -14 -6q-13 0 -23 10q-114 105 -268 105q-157 0 -258.5 -111.5t-101.5 -273.5t101 -272.5t259 -110.5q94 0 174.5 40.5t138.5 110.5q10 10 23 10 q8 0 14 -6l109 -106q8 -8 8 -19q0 -8 -8 -20q-74 -88 -178 -144.5t-220 -66.5l-6 -39q66 -40 95.5 -74.5t29.5 -83.5q0 -69 -54 -102t-128 -33q-53 0 -92.5 16.5t-89.5 55.5q-6 12 -6 14q0 4 2 6l39 68q8 4 12 4q6 0 14 -4q2 -2 9 -8t12.5 -9t16 -8.5t27 -9t38.5 -6.5 q59 0 59 26q0 13 -18 26.5t-64.5 37t-50.5 25.5l10 100q-217 31 -362.5 198t-145.5 390z" />
<glyph unicode="&#xc8;" horiz-adv-x="1064" d="M143 25v1114q0 10 7 17t18 7h760q10 0 17 -6.5t7 -17.5v-162q0 -11 -7 -18t-17 -7h-553v-284h438q11 0 18 -7t7 -18v-156q0 -10 -7 -17t-18 -7h-438v-252h553q10 0 17 -7t7 -18v-161q0 -11 -7 -18t-17 -7h-760q-10 0 -17.5 7t-7.5 18zM295 1579q0 11 7 18t17 7h175 q3 0 6 -1t5 -2.5t4 -4.5t3 -5t3 -6.5t3 -5.5l119 -246q0 -10 -7 -17t-18 -7h-116q-21 0 -37 24z" />
<glyph unicode="&#xc9;" horiz-adv-x="1064" d="M143 25v1114q0 10 7 17t18 7h760q10 0 17 -6.5t7 -17.5v-162q0 -11 -7 -18t-17 -7h-553v-284h438q11 0 18 -7t7 -18v-156q0 -10 -7 -17t-18 -7h-438v-252h553q10 0 17 -7t7 -18v-161q0 -11 -7 -18t-17 -7h-760q-10 0 -17.5 7t-7.5 18zM449 1333l118 246q0 1 1.5 4t2.5 4 t2 3.5t2 3.5t2.5 3t3 3t3.5 2t4 1.5t4 0.5h174q10 0 17.5 -7t7.5 -18l-164 -246q-16 -24 -37 -24h-117q-11 0 -17.5 6.5t-6.5 17.5z" />
<glyph unicode="&#xca;" horiz-adv-x="1064" d="M143 25v1114q0 10 7 17t18 7h760q10 0 17 -6.5t7 -17.5v-162q0 -11 -7 -18t-17 -7h-553v-284h438q11 0 18 -7t7 -18v-156q0 -10 -7 -17t-18 -7h-438v-252h553q10 0 17 -7t7 -18v-161q0 -11 -7 -18t-17 -7h-760q-10 0 -17.5 7t-7.5 18zM293 1407q0 8 8 16l195 146 q24 16 39 16h40q15 0 39 -16l195 -146q8 -8 8 -16q0 -5 -12 -21l-84 -86q-3 -6 -10 -6q-5 0 -17 6l-139 115l-139 -115q-12 -6 -17 -6q-7 0 -10 6l-84 86q-12 16 -12 21z" />
<glyph unicode="&#xcb;" horiz-adv-x="1064" d="M143 25v1114q0 10 7 17t18 7h760q10 0 17 -6.5t7 -17.5v-162q0 -11 -7 -18t-17 -7h-553v-284h438q11 0 18 -7t7 -18v-156q0 -10 -7 -17t-18 -7h-438v-252h553q10 0 17 -7t7 -18v-161q0 -11 -7 -18t-17 -7h-760q-10 0 -17.5 7t-7.5 18zM272 1432q0 52 35 87t88 35t88 -35 t35 -87t-35 -87.5t-88 -35.5t-88 35.5t-35 87.5zM598 1432q0 52 35 87t88 35t88 -35t35 -87t-35 -87.5t-88 -35.5t-88 35.5t-35 87.5z" />
<glyph unicode="&#xcc;" horiz-adv-x="518" d="M-4 1579q0 11 7 18t17 7h175q3 0 6 -1t5 -2.5t4 -4.5t3 -5t3 -6.5t3 -5.5l119 -246q0 -10 -7 -17t-18 -7h-116q-21 0 -37 24zM143 25v1114q0 10 7 17t18 7h182q11 0 18 -7t7 -17v-1114q0 -11 -7.5 -18t-17.5 -7h-182q-10 0 -17.5 7t-7.5 18z" />
<glyph unicode="&#xcd;" horiz-adv-x="518" d="M143 25v1114q0 10 7 17t18 7h182q11 0 18 -7t7 -17v-1114q0 -11 -7.5 -18t-17.5 -7h-182q-10 0 -17.5 7t-7.5 18zM180 1333l119 246q0 1 1.5 4t2.5 4t2 3.5t2 3.5t2.5 3t3 3t3.5 2t4 1.5t4 0.5h174q10 0 17 -7t7 -18l-164 -246q-16 -24 -36 -24h-117q-11 0 -18 7t-7 17z " />
<glyph unicode="&#xce;" horiz-adv-x="520" d="M-4 1374q0 9 8 17l195 145q24 16 39 16h41q14 0 38 -16l195 -145q8 -8 8 -17q0 -4 -12 -20l-84 -86q-3 -6 -10 -6q-5 0 -17 6l-139 114l-139 -114q-12 -6 -17 -6q-7 0 -10 6l-84 86q-12 16 -12 20zM145 25v1114q0 10 7 17t18 7h182q11 0 18 -7t7 -17v-1114 q0 -11 -7.5 -18t-17.5 -7h-182q-10 0 -17.5 7t-7.5 18z" />
<glyph unicode="&#xcf;" horiz-adv-x="520" d="M-20 1432q0 52 35 87t87 35q53 0 88 -35t35 -87t-35.5 -87.5t-87.5 -35.5t-87 35t-35 88zM145 25v1114q0 10 7 17t18 7h182q11 0 18 -7t7 -17v-1114q0 -11 -7.5 -18t-17.5 -7h-182q-10 0 -17.5 7t-7.5 18zM293 1432q0 52 35 87t88 35t88 -35t35 -87t-35.5 -87.5 t-87.5 -35.5t-87.5 35.5t-35.5 87.5z" />
<glyph unicode="&#xd0;" horiz-adv-x="1214" d="M31 487v162q0 11 7 18t17 7h119v465q0 10 7 17t18 7h395q161 0 289.5 -77.5t199 -211t70.5 -296.5t-70.5 -294.5t-199 -207.5t-289.5 -76h-395q-11 0 -18 7t-7 18v438h-119q-11 0 -17.5 6.5t-6.5 17.5zM406 207h151q160 0 262.5 102t102.5 262q0 161 -103.5 270 t-261.5 109h-151v-276h223q10 0 17 -7t7 -18v-162q0 -11 -6.5 -17.5t-17.5 -6.5h-223v-256z" />
<glyph unicode="&#xd1;" horiz-adv-x="1288" d="M143 25v1128q0 23 29 23l741 -500v463q0 10 7 17t18 7h182q11 0 18 -7t7 -17v-1114q0 -11 -7.5 -18t-17.5 -7h-182q-10 0 -17.5 7t-7.5 18v378l-538 351v-729q0 -11 -7.5 -18t-17.5 -7h-182q-10 0 -17.5 7t-7.5 18zM334 1495q0 16 14 23q84 71 172 71q45 0 78.5 -11 t50 -23.5t42 -23.5t57.5 -11q63 0 114 39q4 2 10 2q12 0 21 -13l53 -133q0 -1 1 -3t1 -3q0 -16 -14 -23q-90 -77 -189 -77q-45 0 -116 34.5t-109 34.5q-58 0 -100 -32q-6 -3 -10 -3q-12 0 -21 13l-53 133q0 1 -1 3t-1 3z" />
<glyph unicode="&#xd2;" horiz-adv-x="1372" d="M92 584q0 161 79.5 298t216.5 216.5t298 79.5t298 -79.5t216.5 -216.5t79.5 -298t-79.5 -298t-216.5 -216.5t-298 -79.5t-298 79.5t-216.5 216.5t-79.5 298zM324 578q0 -162 101 -272.5t259 -110.5t261.5 110.5t103.5 272.5t-103.5 273.5t-261.5 111.5 q-157 0 -258.5 -111.5t-101.5 -273.5zM426 1579q0 11 7 18t18 7h174q3 0 6 -1t5 -2.5t4 -4.5t3 -5t3 -6.5t3 -5.5l119 -246q0 -10 -7 -17t-18 -7h-116q-21 0 -37 24z" />
<glyph unicode="&#xd3;" horiz-adv-x="1372" d="M92 584q0 161 79.5 298t216.5 216.5t298 79.5t298 -79.5t216.5 -216.5t79.5 -298t-79.5 -298t-216.5 -216.5t-298 -79.5t-298 79.5t-216.5 216.5t-79.5 298zM324 578q0 -162 103 -272.5t261 -110.5t259.5 110.5t101.5 272.5t-102 273.5t-259 111.5q-158 0 -261 -111.5 t-103 -273.5zM604 1333l119 246q0 1 1.5 4t2.5 4t2 3.5t2 3.5t2.5 3t3 3t3.5 2t4 1.5t4 0.5h174q10 0 17 -7t7 -18l-164 -246q-16 -24 -37 -24h-116q-11 0 -18 7t-7 17z" />
<glyph unicode="&#xd4;" horiz-adv-x="1372" d="M92 584q0 161 79.5 298t216.5 216.5t298 79.5t298 -79.5t216.5 -216.5t79.5 -298t-79.5 -298t-216.5 -216.5t-298 -79.5t-298 79.5t-216.5 216.5t-79.5 298zM324 578q0 -162 103 -272.5t261 -110.5t259.5 110.5t101.5 272.5t-102 273.5t-259 111.5q-158 0 -261 -111.5 t-103 -273.5zM424 1407q0 8 8 16l195 146q24 16 39 16h41q14 0 38 -16l195 -146q8 -8 8 -16q0 -5 -12 -21l-84 -86q-3 -6 -10 -6q-5 0 -17 6l-139 115l-139 -115q-12 -6 -17 -6q-7 0 -10 6l-84 86q-12 16 -12 21z" />
<glyph unicode="&#xd5;" horiz-adv-x="1372" d="M92 584q0 161 79.5 298t216.5 216.5t298 79.5t298 -79.5t216.5 -216.5t79.5 -298t-79.5 -298t-216.5 -216.5t-298 -79.5t-298 79.5t-216.5 216.5t-79.5 298zM324 578q0 -162 103 -272.5t261 -110.5t259.5 110.5t101.5 272.5t-102 273.5t-259 111.5q-158 0 -261 -111.5 t-103 -273.5zM377 1495q0 16 14 23q37 25 56.5 37t51.5 23t64 11q45 0 78.5 -11t50 -23.5t42 -23.5t57.5 -11q63 0 114 39q4 2 10 2q12 0 21 -13l53 -133q0 -1 1 -3t1 -3q0 -16 -14 -23q-57 -38 -99.5 -57.5t-89.5 -19.5q-45 0 -116 34.5t-109 34.5q-58 0 -100 -32 q-6 -3 -10 -3q-12 0 -21 13l-53 133q0 1 -1 3t-1 3z" />
<glyph unicode="&#xd6;" horiz-adv-x="1372" d="M92 584q0 161 79.5 298t216.5 216.5t298 79.5t298 -79.5t216.5 -216.5t79.5 -298t-79.5 -298t-216.5 -216.5t-298 -79.5t-298 79.5t-216.5 216.5t-79.5 298zM324 578q0 -162 103 -272.5t261 -110.5t259.5 110.5t101.5 272.5t-102 273.5t-259 111.5q-158 0 -261 -111.5 t-103 -273.5zM399 1432q0 52 35 87t88 35t88 -35t35 -87t-35.5 -87.5t-87.5 -35.5t-87.5 35.5t-35.5 87.5zM725 1432q0 52 35 87t88 35t88 -35t35 -87t-35.5 -87.5t-87.5 -35.5t-87.5 35.5t-35.5 87.5z" />
<glyph unicode="&#xd7;" horiz-adv-x="905" d="M143 250q0 9 9 18l153 152l-153 153q-9 9 -9 17q0 4 9 18l112 113q12 8 19 8q8 0 16 -8l154 -154l153 154q8 8 17 8q6 0 18 -8l113 -113q8 -12 8 -18q0 -9 -8 -17l-152 -153l152 -152q8 -8 8 -18q0 -12 -8 -17l-115 -114q-5 -8 -16 -8t-19 8l-151 151l-152 -151 q-8 -8 -18 -8q-12 0 -17 8l-114 114q-9 6 -9 17z" />
<glyph unicode="&#xd8;" horiz-adv-x="1372" d="M92 584q0 161 79.5 298t216.5 216.5t298 79.5q57 0 117 -13l41 109q12 24 33 24h149q11 0 18 -7t7 -17l-66 -176q134 -78 214.5 -215t80.5 -299q0 -161 -79.5 -298t-216.5 -216.5t-298 -79.5q-58 0 -117 12l-41 -111q-12 -24 -32 -24h-150q-10 0 -17 6.5t-7 17.5l67 179 q-136 78 -216.5 215t-80.5 299zM324 578q0 -95 37.5 -176t103.5 -134l260 693q-12 2 -41 2q-157 0 -258.5 -111.5t-101.5 -273.5zM643 197q14 -2 41 -2q158 0 261.5 110.5t103.5 272.5q0 95 -38 176.5t-106 134.5z" />
<glyph unicode="&#xd9;" horiz-adv-x="1265" d="M143 514v625q0 10 7 17t18 7h182q11 0 18 -7t7 -17v-625q0 -164 59.5 -241.5t198.5 -77.5t198.5 77.5t59.5 241.5v625q0 11 6.5 17.5t17.5 6.5h183q10 0 17 -6.5t7 -17.5v-625q0 -247 -125 -385.5t-366 -138.5q-239 0 -363.5 139t-124.5 385zM375 1579q0 11 7 18t17 7 h174q13 0 25 -25l119 -246q0 -10 -7 -17t-18 -7h-117q-20 0 -36 24z" />
<glyph unicode="&#xda;" horiz-adv-x="1265" d="M143 514v625q0 10 7 17t18 7h182q11 0 18 -7t7 -17v-625q0 -164 59.5 -241.5t198.5 -77.5t198.5 77.5t59.5 241.5v625q0 11 6.5 17.5t17.5 6.5h183q10 0 17 -6.5t7 -17.5v-625q0 -247 -125 -385.5t-366 -138.5q-239 0 -363.5 139t-124.5 385zM559 1333l119 246q1 1 3 5.5 t3 6.5t3 5t4 4.5t5 2.5t6 1h175q10 0 17 -7t7 -18l-164 -246q-16 -24 -37 -24h-116q-11 0 -18 7t-7 17z" />
<glyph unicode="&#xdb;" horiz-adv-x="1265" d="M143 514v625q0 10 7 17t18 7h182q11 0 18 -7t7 -17v-625q0 -164 59.5 -241.5t198.5 -77.5t198.5 77.5t59.5 241.5v625q0 11 6.5 17.5t17.5 6.5h183q10 0 17 -6.5t7 -17.5v-625q0 -247 -125 -385.5t-366 -138.5q-239 0 -363.5 139t-124.5 385zM371 1407q0 8 8 16l194 146 q24 16 39 16h41q15 0 39 -16l195 -146q8 -8 8 -16q0 -5 -12 -21l-84 -86q-3 -6 -11 -6q-4 0 -16 6l-139 115l-139 -115q-12 -6 -17 -6q-7 0 -10 6l-84 86q-12 16 -12 21z" />
<glyph unicode="&#xdc;" horiz-adv-x="1265" d="M143 514v625q0 10 7 17t18 7h182q11 0 18 -7t7 -17v-625q0 -164 59.5 -241.5t198.5 -77.5t198.5 77.5t59.5 241.5v625q0 11 6.5 17.5t17.5 6.5h183q10 0 17 -6.5t7 -17.5v-625q0 -247 -125 -385.5t-366 -138.5q-239 0 -363.5 139t-124.5 385zM346 1432q0 52 35 87t88 35 t88 -35t35 -87t-35 -87.5t-88 -35.5t-88 35.5t-35 87.5zM672 1432q0 52 35 87t88 35t88 -35t35 -87t-35 -87.5t-88 -35.5t-88 35.5t-35 87.5z" />
<glyph unicode="&#xdd;" horiz-adv-x="1165" d="M41 1139q0 10 7 17t18 7h213q20 0 32 -24l277 -451l266 451q12 24 33 24h213q10 0 17 -6.5t7 -17.5l-419 -703v-411q0 -11 -7.5 -18t-17.5 -7h-182q-10 0 -17.5 7t-7.5 18v409zM530 1333l119 246q0 1 1.5 4t2.5 4t2 3.5t2 3.5t2.5 3t3 3t3.5 2t4 1.5t4 0.5h174 q10 0 17 -7t7 -18l-163 -246q-16 -24 -37 -24h-117q-11 0 -18 7t-7 17z" />
<glyph unicode="&#xde;" horiz-adv-x="1062" d="M143 25v1114q0 10 7 17t18 7h182q11 0 18 -7t7 -17v-152h299q148 0 248 -108.5t100 -280.5q0 -171 -100 -278t-248 -107h-299v-188q0 -11 -7.5 -18t-17.5 -7h-182q-10 0 -17.5 7t-7.5 18zM375 428h278q59 0 98.5 43.5t39.5 124.5q0 82 -39 124t-99 42h-278v-334z" />
<glyph unicode="&#xdf;" horiz-adv-x="1126" d="M143 25v792q0 143 102 244.5t247 101.5h184q144 0 246 -101.5t102 -244.5q0 -140 -96 -239q94 -101 94 -234q0 -142 -101.5 -243t-244.5 -101h-144q-10 0 -17 7t-7 18v157q0 11 7 18t17 7h127q55 0 95.5 41.5t40.5 95.5q0 47 -28.5 86t-70.5 39h-157q-11 0 -18 7.5 t-7 17.5v165q0 11 7 18t18 7h123q55 0 94 39.5t39 93.5t-39 93.5t-94 39.5h-156q-55 0 -93 -39t-38 -94v-792q0 -11 -7.5 -18t-17.5 -7h-182q-10 0 -17.5 7t-7.5 18z" />
<glyph unicode="&#xe0;" horiz-adv-x="923" d="M82 254q0 129 78 194.5t211 65.5q124 0 186 -45q0 80 -36.5 114.5t-125.5 34.5q-124 0 -180 -22q-2 -2 -8 -2q-14 0 -21 16l-49 121q-6 15 -6 23q0 12 4 18q137 57 273 57q194 0 288.5 -96.5t94.5 -273.5v-434q0 -11 -7.5 -18t-17.5 -7h-125q-24 0 -33 25l-10 63 q-66 -98 -223 -98q-33 0 -65.5 4t-76 20.5t-75 43.5t-54 77.5t-22.5 118.5zM231 1245q0 11 7.5 18t17.5 7h174q13 0 23 -21q2 -3 2 -4l118 -246q0 -11 -6.5 -17.5t-17.5 -6.5h-117q-21 0 -37 24zM291 270q0 -90 141 -90q12 0 31 2.5t48.5 14.5t47.5 30v62q-16 27 -40.5 40 t-80.5 13q-147 0 -147 -72z" />
<glyph unicode="&#xe1;" horiz-adv-x="923" d="M82 254q0 129 78 194.5t211 65.5q124 0 186 -45q0 80 -36.5 114.5t-125.5 34.5q-124 0 -180 -22q-2 -2 -8 -2q-14 0 -21 16l-49 121q-6 15 -6 23q0 12 4 18q137 57 273 57q194 0 288.5 -96.5t94.5 -273.5v-434q0 -11 -7.5 -18t-17.5 -7h-125q-24 0 -33 25l-10 63 q-66 -98 -223 -98q-33 0 -65.5 4t-76 20.5t-75 43.5t-54 77.5t-22.5 118.5zM291 270q0 -90 141 -90q12 0 31 2.5t48.5 14.5t47.5 30v62q-16 27 -40.5 40t-80.5 13q-147 0 -147 -72zM367 999l118 246q0 1 1.5 4t2.5 4t2 3.5t2 3.5t2.5 3t3 3t3.5 2t4 1.5t4 0.5h174 q10 0 17.5 -7t7.5 -18l-164 -246q-16 -24 -37 -24h-117q-11 0 -17.5 6.5t-6.5 17.5z" />
<glyph unicode="&#xe2;" horiz-adv-x="923" d="M82 254q0 129 78 194.5t211 65.5q124 0 186 -45q0 80 -36.5 114.5t-125.5 34.5q-124 0 -180 -22q-2 -2 -8 -2q-14 0 -21 16l-49 121q-6 15 -6 23q0 12 4 18q137 57 273 57q194 0 288.5 -96.5t94.5 -273.5v-434q0 -11 -7.5 -18t-17.5 -7h-125q-24 0 -33 25l-10 63 q-66 -98 -223 -98q-33 0 -65.5 4t-76 20.5t-75 43.5t-54 77.5t-22.5 118.5zM207 1065q0 8 8 16l195 146q24 16 39 16h40q15 0 39 -16l195 -146q8 -8 8 -16q0 -5 -12 -21l-84 -86q-3 -6 -10 -6q-5 0 -17 6l-139 115l-139 -115q-12 -6 -17 -6q-7 0 -10 6l-84 86q-12 16 -12 21 zM291 270q0 -90 141 -90q12 0 31 2.5t48.5 14.5t47.5 30v62q-16 27 -40.5 40t-80.5 13q-147 0 -147 -72z" />
<glyph unicode="&#xe3;" horiz-adv-x="923" d="M82 254q0 129 78 194.5t211 65.5q124 0 186 -45q0 80 -36.5 114.5t-125.5 34.5q-124 0 -180 -22q-2 -2 -8 -2q-14 0 -21 16l-49 121q-6 15 -6 23q0 12 4 18q137 57 273 57q194 0 288.5 -96.5t94.5 -273.5v-434q0 -11 -7.5 -18t-17.5 -7h-125q-24 0 -33 25l-10 63 q-66 -98 -223 -98q-33 0 -65.5 4t-76 20.5t-75 43.5t-54 77.5t-22.5 118.5zM154 1161q0 16 14 23q37 25 56.5 37t51.5 23t64 11q45 0 78.5 -11t49.5 -23.5t41.5 -23.5t57.5 -11q64 0 115 39q4 2 10 2q12 0 21 -13l53 -133q0 -1 1 -3t1 -3q0 -15 -14 -22q-38 -26 -62 -40 t-59 -26t-68 -12q-45 0 -116 34.5t-109 34.5q-58 0 -100 -32q-4 -2 -11 -2q-12 0 -20 12l-53 133q0 1 -1 3t-1 3zM291 270q0 -90 141 -90q12 0 31 2.5t48.5 14.5t47.5 30v62q-16 27 -40.5 40t-80.5 13q-147 0 -147 -72z" />
<glyph unicode="&#xe4;" horiz-adv-x="923" d="M82 254q0 129 78 194.5t211 65.5q124 0 186 -45q0 80 -36.5 114.5t-125.5 34.5q-124 0 -180 -22q-2 -2 -8 -2q-14 0 -21 16l-49 121q-6 15 -6 23q0 12 4 18q137 57 273 57q194 0 288.5 -96.5t94.5 -273.5v-434q0 -11 -7.5 -18t-17.5 -7h-125q-24 0 -33 25l-10 63 q-66 -98 -223 -98q-33 0 -65.5 4t-76 20.5t-75 43.5t-54 77.5t-22.5 118.5zM180 1098q0 52 35 87.5t88 35.5t88 -35.5t35 -87.5t-35 -87.5t-88 -35.5t-88 35.5t-35 87.5zM291 270q0 -90 141 -90q12 0 31 2.5t48.5 14.5t47.5 30v62q-16 27 -40.5 40t-80.5 13q-147 0 -147 -72 zM506 1098q0 52 35 87.5t88 35.5t88 -35.5t35 -87.5t-35 -87.5t-88 -35.5t-88 35.5t-35 87.5z" />
<glyph unicode="&#xe5;" horiz-adv-x="923" d="M82 254q0 129 78 194.5t211 65.5q124 0 186 -45q0 80 -36.5 114.5t-125.5 34.5q-124 0 -180 -22q-2 -2 -8 -2q-14 0 -21 16l-49 121q-6 15 -6 23q0 12 4 18q137 57 273 57q194 0 288.5 -96.5t94.5 -273.5v-434q0 -11 -7.5 -18t-17.5 -7h-125q-24 0 -33 25l-10 63 q-66 -98 -223 -98q-33 0 -65.5 4t-76 20.5t-75 43.5t-54 77.5t-22.5 118.5zM242 1204q0 95 68.5 162.5t162.5 67.5q93 0 160 -67.5t67 -162.5q0 -92 -67.5 -160.5t-159.5 -68.5q-94 0 -162.5 68.5t-68.5 160.5zM291 270q0 -90 141 -90q12 0 31 2.5t48.5 14.5t47.5 30v62 q-16 27 -40.5 40t-80.5 13q-147 0 -147 -72zM389 1204q0 -39 25 -66.5t59 -27.5q31 0 55.5 27.5t24.5 66.5q0 38 -24 62t-56 24q-35 0 -59.5 -23t-24.5 -63z" />
<glyph unicode="&#xe6;" horiz-adv-x="1419" d="M82 254q0 129 78 194.5t211 65.5q124 0 186 -45q0 80 -36.5 114.5t-125.5 34.5q-124 0 -180 -22q-2 -2 -8 -2q-14 0 -21 16l-49 121q-6 15 -6 23q0 12 4 18q137 57 273 57q183 0 280 -88q98 88 262 88q175 0 286.5 -108t111.5 -299q0 -14 -1 -26.5t-1 -30.5q0 -11 -7 -18 t-18 -7h-530v-29q6 -39 28 -66.5t53 -40t57.5 -17.5t51.5 -5q51 0 108 14.5t87 41.5q18 12 30 12q9 0 15 -6l61 -103q6 -6 6 -20t-6 -23q-86 -108 -299 -108q-189 0 -301 98q-109 -98 -231 -98q-57 0 -102 4.5t-98 20.5t-87.5 43t-58 77.5t-23.5 118.5zM291 270 q0 -90 141 -90q12 0 31 2.5t48.5 14.5t47.5 30v62q-16 27 -40.5 40t-80.5 13q-147 0 -147 -72zM788 500q3 -6 3 -15h331q0 35 -17.5 61.5t-44 40.5t-54 20.5t-52.5 6.5q-56 0 -107.5 -28t-58.5 -86z" />
<glyph unicode="&#xe7;" horiz-adv-x="866" d="M72 414q0 171 126.5 293t301.5 122q200 0 299 -96q6 -9 6 -22q0 -11 -8 -19l-90 -119q-6 -6 -15 -6q-10 0 -30 13q-42 34 -164 34q-83 0 -139 -55t-56 -147q0 -93 57 -155t138 -62q32 0 52.5 1.5t54 12t57.5 31.5q18 12 30 12q9 0 15 -6l88 -111q8 -8 8 -18q0 -14 -6 -23 q-79 -88 -234 -102l-6 -37q66 -40 95.5 -74.5t29.5 -83.5q0 -69 -54 -102t-128 -33q-53 0 -93 16.5t-90 55.5q-6 12 -6 14q0 4 2 6l39 68q8 4 13 4q6 0 14 -4l11 -10q11 -9 17.5 -12t26.5 -9t47 -10q60 0 60 26q0 13 -18 26.5t-64.5 37t-50.5 25.5l14 102 q-150 28 -250 145.5t-100 270.5z" />
<glyph unicode="&#xe8;" horiz-adv-x="935" d="M72 403q0 87 23.5 162.5t70 135t124 94t177.5 34.5q174 0 285.5 -108t111.5 -299q0 -14 -1 -26.5t-1 -30.5q0 -11 -7 -18t-17 -7h-533q0 -48 21 -82t54.5 -49t61.5 -21t56 -6q51 0 107.5 14.5t86.5 41.5q18 12 31 12q8 0 14 -6l62 -103q6 -6 6 -20t-6 -23 q-86 -108 -299 -108q-90 0 -165.5 24.5t-135.5 73t-93.5 129.5t-33.5 186zM221 1245q0 11 7.5 18t17.5 7h174q3 0 6 -1t5 -2.5t4 -4.5t3 -5t3 -6.5t3 -5.5l119 -246q0 -11 -6.5 -17.5t-17.5 -6.5h-117q-21 0 -37 24zM305 485h334q0 35 -17.5 61.5t-44 40.5t-54 20.5 t-52.5 6.5q-36 0 -71.5 -11.5t-65 -42t-29.5 -75.5z" />
<glyph unicode="&#xe9;" horiz-adv-x="935" d="M72 403q0 87 23.5 162.5t70 135t124 94t177.5 34.5q174 0 285.5 -108t111.5 -299q0 -14 -1 -26.5t-1 -30.5q0 -11 -7 -18t-17 -7h-533q0 -48 21 -82t54.5 -49t61.5 -21t56 -6q51 0 107.5 14.5t86.5 41.5q18 12 31 12q8 0 14 -6l62 -103q6 -6 6 -20t-6 -23 q-86 -108 -299 -108q-90 0 -165.5 24.5t-135.5 73t-93.5 129.5t-33.5 186zM305 485h334q0 35 -17.5 61.5t-44 40.5t-54 20.5t-52.5 6.5q-36 0 -71.5 -11.5t-65 -42t-29.5 -75.5zM381 999l119 246q1 1 3 5.5t3 6.5t3 5t4 4.5t5 2.5t6 1h174q10 0 17.5 -7t7.5 -18l-164 -246 q-16 -24 -37 -24h-116q-11 0 -18 7t-7 17z" />
<glyph unicode="&#xea;" horiz-adv-x="935" d="M72 403q0 87 23.5 162.5t70 135t124 94t177.5 34.5q174 0 285.5 -108t111.5 -299q0 -14 -1 -26.5t-1 -30.5q0 -11 -7 -18t-17 -7h-533q0 -48 21 -82t54.5 -49t61.5 -21t56 -6q51 0 107.5 14.5t86.5 41.5q18 12 31 12q8 0 14 -6l62 -103q6 -6 6 -20t-6 -23 q-86 -108 -299 -108q-90 0 -165.5 24.5t-135.5 73t-93.5 129.5t-33.5 186zM203 1065q0 8 8 16l195 146q24 16 38 16h41q15 0 39 -16l195 -146q8 -8 8 -16q0 -5 -12 -21l-84 -86q-3 -6 -10 -6q-5 0 -17 6l-139 115l-139 -115q-12 -6 -17 -6q-7 0 -10 6l-84 86q-12 16 -12 21z M305 485h334q0 35 -17.5 61.5t-44 40.5t-54 20.5t-52.5 6.5q-36 0 -71.5 -11.5t-65 -42t-29.5 -75.5z" />
<glyph unicode="&#xeb;" horiz-adv-x="935" d="M72 403q0 87 23.5 162.5t70 135t124 94t177.5 34.5q174 0 285.5 -108t111.5 -299q0 -14 -1 -26.5t-1 -30.5q0 -11 -7 -18t-17 -7h-533q0 -48 21 -82t54.5 -49t61.5 -21t56 -6q51 0 107.5 14.5t86.5 41.5q18 12 31 12q8 0 14 -6l62 -103q6 -6 6 -20t-6 -23 q-86 -108 -299 -108q-90 0 -165.5 24.5t-135.5 73t-93.5 129.5t-33.5 186zM174 1098q0 52 35 87.5t88 35.5t88 -35.5t35 -87.5t-35 -87.5t-88 -35.5t-88 35.5t-35 87.5zM305 485h334q0 35 -17.5 61.5t-44 40.5t-54 20.5t-52.5 6.5q-36 0 -71.5 -11.5t-65 -42t-29.5 -75.5z M500 1098q0 52 35 87.5t88 35.5q52 0 87 -35t35 -88t-35 -88t-87 -35q-53 0 -88 35.5t-35 87.5z" />
<glyph unicode="&#xec;" horiz-adv-x="520" d="M0 1245q0 11 7 18t18 7h174q3 0 6 -1t5 -2.5t4 -4.5t3 -5t3 -6.5t3 -5.5l119 -246q0 -10 -7 -17t-18 -7h-116q-21 0 -37 24zM145 25v770q0 10 7 17t18 7h182q11 0 18 -7t7 -17v-770q0 -11 -7.5 -18t-17.5 -7h-182q-10 0 -17.5 7t-7.5 18z" />
<glyph unicode="&#xed;" horiz-adv-x="520" d="M145 25v770q0 10 7 17t18 7h182q11 0 18 -7t7 -17v-770q0 -11 -7.5 -18t-17.5 -7h-182q-10 0 -17.5 7t-7.5 18zM180 999l119 246q0 1 1.5 4t2.5 4t2 3.5t2 3.5t2.5 3t3 3t3.5 2t4 1.5t4 0.5h174q10 0 17 -7t7 -18l-164 -246q-16 -24 -36 -24h-117q-11 0 -18 7t-7 17z" />
<glyph unicode="&#xee;" horiz-adv-x="520" d="M0 1030q0 9 8 17l195 145q24 16 39 16h41q15 0 39 -16l194 -145q8 -8 8 -17q0 -4 -12 -20l-84 -86q-3 -6 -10 -6q-5 0 -17 6l-139 114l-139 -114q-12 -6 -17 -6q-7 0 -10 6l-84 86q-12 16 -12 20zM145 25v770q0 10 7 17t18 7h182q11 0 18 -7t7 -17v-770q0 -11 -7.5 -18 t-17.5 -7h-182q-10 0 -17.5 7t-7.5 18z" />
<glyph unicode="&#xef;" horiz-adv-x="520" d="M-20 1087q0 53 35 88t87 35t87.5 -35t35.5 -88q0 -52 -35 -87t-88 -35q-52 0 -87 34.5t-35 87.5zM145 25v770q0 10 7 17t18 7h182q11 0 18 -7t7 -17v-770q0 -11 -7.5 -18t-17.5 -7h-182q-10 0 -17.5 7t-7.5 18zM293 1087q0 53 35.5 88t87.5 35t87.5 -35t35.5 -88 q0 -52 -35 -87t-88 -35t-88 35t-35 87z" />
<glyph unicode="&#xf0;" horiz-adv-x="1028" d="M72 406q0 111 62 203t163 143t217 51h16l-45 80h-204q-21 0 -21 20v129q0 9 6 15t15 6h108l-47 86q0 10 7 17t18 7h206q21 0 33 -24l47 -86h174q8 0 13.5 -6t5.5 -15v-129q0 -9 -5.5 -14.5t-13.5 -5.5h-82l166 -303q45 -79 45 -174q0 -100 -36.5 -181t-98 -131.5 t-140 -77t-165.5 -26.5q-89 0 -168 26.5t-141 77t-98.5 131.5t-36.5 181zM303 395q0 -91 63 -145.5t148 -54.5t148 54.5t63 145.5q0 89 -63 141t-148 52t-148 -52t-63 -141z" />
<glyph unicode="&#xf1;" horiz-adv-x="1032" d="M143 25v770q0 10 7 17t18 7h113q19 0 28 -24l10 -68q66 62 125.5 82t130.5 20q164 0 249 -104.5t85 -261.5v-438q0 -11 -7 -18t-17 -7h-183q-10 0 -17 7t-7 18v409q0 35 -2.5 58.5t-11.5 49t-25.5 41t-46.5 25.5t-72 10q-73 0 -109 -51.5t-36 -132.5v-409q0 -11 -7.5 -18 t-17.5 -7h-182q-10 0 -17.5 7t-7.5 18zM236 1161q0 16 14 23q37 25 56.5 37t51.5 23t64 11q45 0 78.5 -11t49.5 -23.5t41.5 -23.5t57.5 -11q64 0 115 39q4 2 10 2q12 0 21 -13l53 -133q0 -1 1 -3t1 -3q0 -15 -14 -22q-38 -26 -62 -40t-59 -26t-68 -12q-45 0 -116 34.5 t-109 34.5q-58 0 -100 -32q-4 -2 -11 -2q-12 0 -20 12l-53 133q0 1 -1 3t-1 3z" />
<glyph unicode="&#xf2;" horiz-adv-x="983" d="M72 414q0 171 126.5 293t301.5 122q168 0 289.5 -122t121.5 -293q0 -172 -122 -298t-289 -126q-174 0 -301 126t-127 298zM225 1245q0 11 7.5 18t17.5 7h174q13 0 23 -21q2 -3 2 -4l118 -246q0 -11 -6.5 -17.5t-17.5 -6.5h-117q-21 0 -37 24zM303 412q0 -93 57 -155 t138 -62q75 0 128.5 62.5t53.5 154.5q0 91 -53 146.5t-129 55.5q-83 0 -139 -55t-56 -147z" />
<glyph unicode="&#xf3;" horiz-adv-x="983" d="M72 414q0 171 126.5 293t301.5 122q168 0 289.5 -122t121.5 -293q0 -172 -122 -298t-289 -126q-174 0 -301 126t-127 298zM303 412q0 -93 57 -155t138 -62q75 0 128.5 62.5t53.5 154.5q0 91 -53 146.5t-129 55.5q-83 0 -139 -55t-56 -147zM424 999l119 246q1 1 3 5.5 t3 6.5t3 5t4 4.5t5 2.5t6 1h174q11 0 18 -7t7 -18l-164 -246q-16 -24 -37 -24h-116q-11 0 -18 7t-7 17z" />
<glyph unicode="&#xf4;" horiz-adv-x="983" d="M72 414q0 171 126.5 293t301.5 122q168 0 289.5 -122t121.5 -293q0 -172 -122 -298t-289 -126q-174 0 -301 126t-127 298zM238 1087q0 9 8 17l194 145q25 17 39 17h41q14 0 39 -17l195 -145q8 -8 8 -17q0 -4 -12 -20l-84 -86q-3 -6 -11 -6q-4 0 -16 6l-139 115l-140 -115 q-12 -6 -16 -6q-7 0 -10 6l-84 86q-12 16 -12 20zM303 412q0 -93 57 -155t138 -62q75 0 128.5 62.5t53.5 154.5q0 91 -53 146.5t-129 55.5q-83 0 -139 -55t-56 -147z" />
<glyph unicode="&#xf5;" horiz-adv-x="983" d="M72 414q0 171 126.5 293t301.5 122q168 0 289.5 -122t121.5 -293q0 -172 -122 -298t-289 -126q-174 0 -301 126t-127 298zM190 1161q0 15 15 23q37 25 56.5 37t51.5 23t64 11q45 0 78.5 -11t49.5 -23.5t41.5 -23.5t57.5 -11q64 0 115 39q4 2 10 2q12 0 21 -13l53 -133 q0 -1 1 -3t1 -3q0 -15 -14 -22q-38 -26 -62 -40t-59 -26t-68 -12q-45 0 -116 34.5t-109 34.5q-59 0 -101 -32q-4 -2 -10 -2q-12 0 -20 12l-53 133q0 1 -1.5 3t-1.5 3zM303 412q0 -93 57 -155t138 -62q75 0 128.5 62.5t53.5 154.5q0 91 -53 146.5t-129 55.5q-83 0 -139 -55 t-56 -147z" />
<glyph unicode="&#xf6;" horiz-adv-x="983" d="M72 414q0 171 126.5 293t301.5 122q168 0 289.5 -122t121.5 -293q0 -172 -122 -298t-289 -126q-174 0 -301 126t-127 298zM217 1098q0 52 35.5 87.5t87.5 35.5t87.5 -35.5t35.5 -87.5t-35.5 -87.5t-87.5 -35.5t-87.5 35.5t-35.5 87.5zM303 412q0 -93 57 -155t138 -62 q75 0 128.5 62.5t53.5 154.5q0 91 -53 146.5t-129 55.5q-83 0 -139 -55t-56 -147zM543 1098q0 52 35.5 87.5t87.5 35.5t87 -35t35 -88t-35 -88t-87 -35t-87.5 35.5t-35.5 87.5z" />
<glyph unicode="&#xf7;" d="M143 338v162q0 10 7 17t18 7h610q11 0 18 -7t7 -17v-162q0 -10 -7.5 -17.5t-17.5 -7.5h-610q-10 0 -17.5 7.5t-7.5 17.5zM350 111q0 -53 35 -88t88 -35t88 35t35 88q0 52 -35 87t-88 35t-88 -35t-35 -87zM350 729q0 -53 35 -88t88 -35t88 35t35 88t-35 88t-88 35t-88 -35 t-35 -88z" />
<glyph unicode="&#xf8;" horiz-adv-x="983" d="M72 414q0 171 126.5 293t301.5 122q31 0 45 -2l33 84q12 25 32 25h150q10 0 17 -7t7 -18l-57 -151q85 -58 134.5 -149.5t49.5 -196.5q0 -172 -122 -298t-289 -126q-22 0 -62 4l-32 -88q-12 -25 -33 -25h-150q-10 0 -17 7t-7 18l59 160q-86 59 -136 151.5t-50 196.5z M303 412q0 -73 37 -129l125 329q-71 -11 -116.5 -64.5t-45.5 -135.5zM514 195q70 8 118 68.5t48 148.5q0 74 -37 127z" />
<glyph unicode="&#xf9;" horiz-adv-x="1032" d="M123 356v439q0 11 6.5 17.5t17.5 6.5h183q10 0 17 -6.5t7 -17.5v-416q0 -35 2.5 -58.5t11.5 -49t25.5 -41t46.5 -25.5t72 -10q73 0 109 51.5t36 132.5v416q0 10 7 17t18 7h182q11 0 18 -7t7 -17v-770q0 -11 -7.5 -18t-17.5 -7h-114q-20 0 -29 25l-8 67 q-66 -62 -125.5 -82t-130.5 -20q-164 0 -249 104.5t-85 261.5zM246 1245q0 11 7 18t17 7h174q13 0 23 -21q2 -3 2 -4l119 -246q0 -10 -7 -17t-18 -7h-117q-20 0 -36 24z" />
<glyph unicode="&#xfa;" horiz-adv-x="1032" d="M123 356v439q0 11 6.5 17.5t17.5 6.5h183q10 0 17 -6.5t7 -17.5v-416q0 -35 2.5 -58.5t11.5 -49t25.5 -41t46.5 -25.5t72 -10q73 0 109 51.5t36 132.5v416q0 10 7 17t18 7h182q11 0 18 -7t7 -17v-770q0 -11 -7.5 -18t-17.5 -7h-114q-20 0 -29 25l-8 67 q-66 -62 -125.5 -82t-130.5 -20q-164 0 -249 104.5t-85 261.5zM420 999l119 246q1 1 3 5.5t3 6.5t3 5t4 4.5t5 2.5t6 1h174q11 0 18 -7t7 -18l-164 -246q-16 -24 -37 -24h-117q-10 0 -17 6.5t-7 17.5z" />
<glyph unicode="&#xfb;" horiz-adv-x="1032" d="M123 356v439q0 11 6.5 17.5t17.5 6.5h183q10 0 17 -6.5t7 -17.5v-416q0 -35 2.5 -58.5t11.5 -49t25.5 -41t46.5 -25.5t72 -10q73 0 109 51.5t36 132.5v416q0 10 7 17t18 7h182q11 0 18 -7t7 -17v-770q0 -11 -7.5 -18t-17.5 -7h-114q-20 0 -29 25l-8 67 q-66 -62 -125.5 -82t-130.5 -20q-164 0 -249 104.5t-85 261.5zM250 1065q0 8 8 16l195 146q24 16 39 16h40q15 0 39 -16l195 -146q8 -8 8 -16q0 -5 -12 -21l-84 -86q-3 -6 -10 -6q-5 0 -17 6l-139 115l-139 -115q-12 -6 -17 -6q-7 0 -10 6l-84 86q-12 16 -12 21z" />
<glyph unicode="&#xfc;" horiz-adv-x="1032" d="M123 356v439q0 11 6.5 17.5t17.5 6.5h183q10 0 17 -6.5t7 -17.5v-416q0 -35 2.5 -58.5t11.5 -49t25.5 -41t46.5 -25.5t72 -10q73 0 109 51.5t36 132.5v416q0 10 7 17t18 7h182q11 0 18 -7t7 -17v-770q0 -11 -7.5 -18t-17.5 -7h-114q-20 0 -29 25l-8 67 q-66 -62 -125.5 -82t-130.5 -20q-164 0 -249 104.5t-85 261.5zM213 1098q0 52 35.5 87.5t87.5 35.5t87.5 -35.5t35.5 -87.5t-35.5 -87.5t-87.5 -35.5t-87.5 35.5t-35.5 87.5zM539 1098q0 52 35.5 87.5t87.5 35.5t87 -35t35 -88t-35 -88t-87 -35t-87.5 35.5t-35.5 87.5z" />
<glyph unicode="&#xfd;" horiz-adv-x="919" d="M61 795q0 10 7 17t18 7h195q20 0 32 -24l162 -342l162 342q12 24 33 24h194q11 0 18 -7t7 -17l-541 -1121q-12 -24 -33 -24h-198q-11 0 -18 7t-7 17l256 527zM401 999q0 -10 7 -17t18 -7h117q21 0 37 24l163 246q0 11 -7 18t-17 7h-174q-13 0 -25 -25z" />
<glyph unicode="&#xfe;" horiz-adv-x="1054" d="M143 -326v1465q0 10 7 17t18 7h182q11 0 18 -7t7 -17v-381q93 71 219 71q167 0 278 -120.5t111 -294.5t-108.5 -299t-268.5 -125q-57 0 -122 17t-109 50v-383q0 -10 -7 -17t-18 -7h-182q-11 0 -18 7t-7 17zM375 401q3 -88 59 -147t133 -59t131 63t54 154t-53.5 148.5 t-131.5 57.5q-79 0 -135.5 -57.5t-56.5 -148.5v-11z" />
<glyph unicode="&#xff;" horiz-adv-x="919" d="M61 795q0 10 7 17t18 7h195q20 0 32 -24l162 -342l162 342q12 24 33 24h194q11 0 18 -7t7 -17l-541 -1121q-12 -24 -33 -24h-198q-11 0 -18 7t-7 17l256 527zM190 1098q0 -52 35 -87.5t88 -35.5t88 35.5t35 87.5t-35 87.5t-88 35.5t-88 -35.5t-35 -87.5zM516 1098 q0 -52 35 -87.5t88 -35.5t88 35.5t35 87.5t-35 87.5t-88 35.5t-88 -35.5t-35 -87.5z" />
<glyph unicode="&#x152;" horiz-adv-x="1714" d="M92 584q0 161 79.5 298t216.5 216.5t298 79.5q70 0 131 -15h760q11 0 18 -7t7 -17v-162q0 -11 -7 -18t-18 -7h-553v-284h438q10 0 17.5 -7t7.5 -18v-156q0 -10 -7 -17t-18 -7h-438v-252h553q11 0 18 -7.5t7 -17.5v-161q0 -11 -7 -18t-18 -7h-760q-8 0 -10 2 q-59 -12 -121 -12q-161 0 -298 79.5t-216.5 216.5t-79.5 298zM324 578q0 -162 101 -272.5t259 -110.5q48 0 109 14v739q-62 15 -109 15q-157 0 -258.5 -111.5t-101.5 -273.5z" />
<glyph unicode="&#x153;" horiz-adv-x="1544" d="M72 414q0 171 126.5 293t301.5 122q162 0 284 -116q102 116 291 116q175 0 286.5 -108t111.5 -299q0 -14 -1.5 -26.5t-1.5 -30.5q0 -11 -7 -18t-17 -7h-533q0 -48 21 -82t54.5 -49t61.5 -21t56 -6q51 0 107.5 14.5t86.5 41.5q18 12 31 12q9 0 15 -6l61 -103q6 -6 6 -20 t-6 -23q-86 -108 -299 -108q-209 0 -324 121q-124 -121 -284 -121q-174 0 -301 126t-127 298zM303 412q0 -93 57 -155t138 -62q75 0 128.5 62.5t53.5 154.5q0 91 -53 146.5t-129 55.5q-83 0 -139 -55t-56 -147zM913 485h334q0 35 -17.5 61.5t-44 40.5t-54 20.5t-52.5 6.5 q-36 0 -71.5 -11.5t-65 -42t-29.5 -75.5z" />
<glyph unicode="&#x178;" horiz-adv-x="1165" d="M41 1139q0 10 7 17t18 7h213q20 0 32 -24l277 -451l266 451q12 24 33 24h213q10 0 17 -6.5t7 -17.5l-419 -703v-411q0 -11 -7.5 -18t-17.5 -7h-182q-10 0 -17.5 7t-7.5 18v409zM301 1432q0 52 35 87t88 35t88 -35t35 -87t-35.5 -87.5t-87.5 -35.5t-87.5 35.5t-35.5 87.5z M627 1432q0 52 35 87t88 35q52 0 87 -35t35 -87q0 -53 -35 -88t-87 -35t-87.5 35.5t-35.5 87.5z" />
<glyph unicode="&#x2c6;" horiz-adv-x="811" d="M143 985q0 7 9 16l194 146q24 16 39 16h41q15 0 39 -16l194 -146q9 -9 9 -16q0 -3 -13 -20l-84 -86q-3 -7 -10 -7q-2 0 -16 7l-139 114l-140 -114q-14 -7 -16 -7q-6 0 -10 7l-84 86q-13 17 -13 20z" />
<glyph unicode="&#x2dc;" horiz-adv-x="901" d="M143 1069q0 15 15 23q37 25 56.5 37t51.5 23t64 11q45 0 78.5 -11t49.5 -23.5t41.5 -23.5t57.5 -11q64 0 115 39q4 2 10 2q11 0 20 -13l54 -133q0 -1 1 -3t1 -3q0 -15 -15 -22q-39 -26 -62 -39.5t-58 -26t-68 -12.5q-45 0 -116 34.5t-109 34.5q-59 0 -101 -32 q-4 -2 -10 -2q-12 0 -20 12l-54 133q0 1 -1 3t-1 3z" />
<glyph unicode="&#x2000;" horiz-adv-x="883" />
<glyph unicode="&#x2001;" horiz-adv-x="1767" />
<glyph unicode="&#x2002;" horiz-adv-x="883" />
<glyph unicode="&#x2003;" horiz-adv-x="1767" />
<glyph unicode="&#x2004;" horiz-adv-x="589" />
<glyph unicode="&#x2005;" horiz-adv-x="441" />
<glyph unicode="&#x2006;" horiz-adv-x="294" />
<glyph unicode="&#x2007;" horiz-adv-x="294" />
<glyph unicode="&#x2008;" horiz-adv-x="220" />
<glyph unicode="&#x2009;" horiz-adv-x="353" />
<glyph unicode="&#x200a;" horiz-adv-x="98" />
<glyph unicode="&#x2010;" d="M143 322v161q0 11 7.5 18t17.5 7h610q10 0 17.5 -7t7.5 -18v-161q0 -10 -7.5 -17.5t-17.5 -7.5h-610q-10 0 -17.5 7.5t-7.5 17.5z" />
<glyph unicode="&#x2011;" d="M143 322v161q0 11 7.5 18t17.5 7h610q10 0 17.5 -7t7.5 -18v-161q0 -10 -7.5 -17.5t-17.5 -7.5h-610q-10 0 -17.5 7.5t-7.5 17.5z" />
<glyph unicode="&#x2012;" d="M143 322v161q0 11 7.5 18t17.5 7h610q10 0 17.5 -7t7.5 -18v-161q0 -10 -7.5 -17.5t-17.5 -7.5h-610q-10 0 -17.5 7.5t-7.5 17.5z" />
<glyph unicode="&#x2013;" d="M143 322v161q0 11 7.5 18t17.5 7h610q10 0 17.5 -7t7.5 -18v-161q0 -10 -7.5 -17.5t-17.5 -7.5h-610q-10 0 -17.5 7.5t-7.5 17.5z" />
<glyph unicode="&#x2014;" horiz-adv-x="1060" d="M143 322v161q0 11 7.5 18t17.5 7h725q11 0 18 -7t7 -18v-161q0 -10 -7 -17.5t-18 -7.5h-725q-10 0 -17.5 7.5t-7.5 17.5z" />
<glyph unicode="&#x2018;" horiz-adv-x="534" d="M143 907q0 33 15 54l96 188q7 14 16 14h95q14 0 14 -14l-45 -137q57 -33 57 -105q0 -52 -36 -87.5t-89 -35.5q-52 0 -87.5 35t-35.5 88z" />
<glyph unicode="&#x2019;" horiz-adv-x="534" d="M143 1040q0 52 36 87.5t89 35.5q52 0 87.5 -35.5t35.5 -87.5q0 -33 -14 -53l-96 -188q-7 -15 -17 -15h-94q-14 0 -14 15l45 137q-58 33 -58 104z" />
<glyph unicode="&#x201a;" horiz-adv-x="534" d="M143 96q0 52 36 87.5t89 35.5q52 0 87.5 -35.5t35.5 -87.5q0 -33 -14 -53l-96 -188q-7 -15 -17 -15h-94q-14 0 -14 15l45 137q-58 33 -58 104z" />
<glyph unicode="&#x201c;" horiz-adv-x="872" d="M143 907q0 33 15 54l96 188q7 14 16 14h95q14 0 14 -14l-45 -137q57 -33 57 -105q0 -52 -36 -87.5t-89 -35.5q-52 0 -87.5 35t-35.5 88zM481 907q0 33 15 54l96 188q7 14 16 14h94q15 0 15 -14l-45 -137q57 -33 57 -105q0 -52 -36 -87.5t-89 -35.5q-52 0 -87.5 35 t-35.5 88z" />
<glyph unicode="&#x201d;" horiz-adv-x="872" d="M143 1040q0 52 36 87.5t89 35.5q52 0 87.5 -35.5t35.5 -87.5q0 -33 -14 -53l-96 -188q-7 -15 -17 -15h-94q-14 0 -14 15l45 137q-58 33 -58 104zM481 1040q0 52 36 87.5t89 35.5q52 0 87.5 -35.5t35.5 -87.5q0 -33 -14 -53l-97 -188q-8 -15 -16 -15h-94q-14 0 -14 15 l45 137q-58 33 -58 104z" />
<glyph unicode="&#x201e;" horiz-adv-x="872" d="M143 96q0 52 36 87.5t89 35.5q52 0 87.5 -35.5t35.5 -87.5q0 -33 -14 -53l-96 -188q-7 -15 -17 -15h-94q-14 0 -14 15l45 137q-58 33 -58 104zM481 96q0 52 36 87.5t89 35.5q52 0 87.5 -35.5t35.5 -87.5q0 -33 -14 -53l-97 -188q-8 -15 -16 -15h-94q-14 0 -14 15l45 137 q-58 33 -58 104z" />
<glyph unicode="&#x2022;" horiz-adv-x="575" d="M143 403q0 60 42 103t102 43t102.5 -43t42.5 -103t-42.5 -101.5t-102.5 -41.5t-102 41.5t-42 101.5z" />
<glyph unicode="&#x2026;" horiz-adv-x="1441" d="M143 113q0 53 35.5 88t87.5 35t87.5 -35t35.5 -88t-35.5 -88t-87.5 -35t-87.5 35t-35.5 88zM598 113q0 53 35 88t88 35t88 -35t35 -88t-35 -88t-88 -35t-88 35t-35 88zM1053 113q0 53 35.5 88t87.5 35t87 -35t35 -88t-35 -88t-87 -35t-87.5 35t-35.5 88z" />
<glyph unicode="&#x202f;" horiz-adv-x="353" />
<glyph unicode="&#x2039;" horiz-adv-x="915" d="M143 307v271q0 11 11 18l594 299q10 0 17 -7t7 -18v-211q0 -3 -0.5 -5.5t-2 -4.5t-3 -3.5t-4.5 -3t-4 -2.5t-5 -2.5t-5 -2.5l-388 -193l388 -192q24 -12 24 -25v-211q0 -10 -7 -17t-17 -7l-594 299q-11 7 -11 18z" />
<glyph unicode="&#x203a;" horiz-adv-x="915" d="M143 14v211q0 13 25 25l387 192l-387 193q-1 1 -5.5 3t-6.5 3t-5 3t-4.5 4t-2.5 5t-1 6v211q0 10 7.5 17.5t17.5 7.5l594 -299q10 -7 10 -18v-271q0 -11 -10 -18l-594 -299q-11 0 -18 7t-7 17z" />
<glyph unicode="&#x205f;" horiz-adv-x="441" />
<glyph unicode="&#x20ac;" horiz-adv-x="1439" d="M143 350v139q0 9 6 15t15 6h78q-4 50 -4 74q0 27 2 39h-76q-21 0 -21 20v139q0 9 6 15t15 6h115q67 167 217 271t335 104q121 0 230 -45.5t190 -126.5q9 -14 9 -21q0 -9 -9 -18l-116 -113q-6 -6 -15 -6q-12 0 -22 10q-114 105 -269 105q-94 0 -171 -43t-126 -117h156 q9 0 15 -6t6 -15v-139q0 -20 -21 -20h-217q-2 -14 -2 -45q0 -22 4 -68h215q9 0 15 -6t6 -15v-139q0 -20 -21 -20h-139q109 -135 280 -135q94 0 175.5 40.5t138.5 110.5q10 10 22 10q9 0 15 -6l108 -106q8 -8 8 -19q0 -8 -8 -20q-84 -99 -204 -157t-253 -58q-176 0 -320 93.5 t-216 246.5h-131q-21 0 -21 20z" />
<glyph unicode="&#x2122;" horiz-adv-x="1437" d="M143 1036v115q0 12 13 12h469q12 0 12 -12v-115q0 -14 -12 -14h-150v-465q0 -14 -14 -14h-142q-12 0 -12 14v465h-151q-5 0 -9 4t-4 10zM696 557v602q5 8 13 8q6 0 14 -8l254 -264q16 -12 18 -12q3 0 19 12l254 264q8 8 14 8q7 0 12 -8v-602q0 -14 -14 -14h-139 q-11 0 -15 14v213l-118 -121q-10 -10 -13 -10q-2 0 -12 10l-119 121v-213q-4 -14 -14 -14h-139q-15 0 -15 14z" />
<glyph unicode="&#x25fc;" horiz-adv-x="819" d="M0 0v819h819v-819h-819z" />
</font>
</defs>
</svg>
